<svg id="Layer_1" data-name="Layer 1" xmlns="http://www.w3.org/2000/svg" xmlns:xlink="http://www.w3.org/1999/xlink" viewBox="0 0 363.1 202.56"><defs><style>.cls-1{fill:none;}.cls-2{clip-path:url(#clip-path);}.cls-3{clip-path:url(#clip-path-2);}.cls-4{fill:#03545c;}.cls-5{fill:#01535b;}.cls-6{fill:#03555c;}.cls-7{fill:#02535b;}.cls-8{fill:#05565d;}.cls-9{fill:#06575e;}.cls-10{fill:#05565e;}.cls-11{fill:#04565d;}.cls-12{fill:#03555d;}.cls-13{fill:#085960;}</style><clipPath id="clip-path"><rect class="cls-1" x="87.53" y="50.33" width="190.53" height="103.84"/></clipPath><clipPath id="clip-path-2"><rect class="cls-1" x="87.53" y="50.33" width="190.53" height="103.84"/></clipPath></defs><title>bd</title><g id="Artwork_11" data-name="Artwork 11"><g class="cls-2"><g class="cls-3"><path class="cls-4" d="M278.06,88.66v24.06a13.93,13.93,0,0,1-13.92,14.08q-24.24.11-48.49,0a14,14,0,0,1-14-14.16q-.06-24,0-48A14,14,0,0,1,216,50.46h48A14,14,0,0,1,278.06,64.6Zm-31.25,7.17.48.43c0,3.49,0,7,0,10.47a12.5,12.5,0,0,0,.25,2.59,10.48,10.48,0,0,0,11.52,8.09,9.87,9.87,0,0,0,9.34-10.22c.07-12,0-24,0-36,.05-7.45-5-11-10-11q-18.75-.13-37.51,0a9.79,9.79,0,0,0-9.76,9.38c-.31,6,3.21,10.91,8.63,11.53,3.49.4,7,.21,10.57.28.43,0,.86,0,1.29,0,.06.12.12.24.17.36a9.11,9.11,0,0,0-1,.74q-8.15,8.07-16.26,16.18a18.85,18.85,0,0,0-1.72,2,9.52,9.52,0,0,0-.43,11c2.63,4.23,7,6.33,11.36,5.46a11.86,11.86,0,0,0,6-3.62Q238,105.17,246.13,97a5.05,5.05,0,0,0,.68-1.18"/><path class="cls-5" d="M178.06,77.26c0-4.15,0-8.08,0-12a73.93,73.93,0,0,1,.26-8.94c.53-4.09,3.65-6.27,7.8-5.94a7.06,7.06,0,0,1,6.14,7.17q0,30.9,0,61.81a7.11,7.11,0,0,1-5.68,7.07c-4.05.61-6.89-1-8.23-4.75-.07-.18-.11-.38-.2-.69a1.73,1.73,0,0,0-.41.3c-3.74,4.67-8.77,6.31-14.49,5.72-10.08-1-16.34-7.1-19.56-16.25a31.28,31.28,0,0,1,4-29.61c6.85-9.77,20.19-11.54,29.73-4.32l.6.45m-22,22.8a16.4,16.4,0,0,0,3.38,10.25,9.59,9.59,0,0,0,15.11.2c4.33-5.27,4.71-15,.83-20.56a9.79,9.79,0,0,0-16.45,0,17.62,17.62,0,0,0-2.87,10.06"/><path class="cls-5" d="M101.69,120.84c-.11.36-.15.55-.21.73-1.34,3.79-4.26,5.49-8.3,4.84a7.13,7.13,0,0,1-5.64-7.23q0-30.66,0-61.32c0-4.31,2.87-7.48,6.79-7.5,4.39,0,7.36,2.93,7.38,7.44,0,6.15,0,12.29,0,18.44v.85a1.76,1.76,0,0,0,.49-.18c8.49-6.92,24-6.6,31.21,6.25,6.15,11,6.57,22.4-.18,33.42a20.92,20.92,0,0,1-17.77,10.51,15.63,15.63,0,0,1-13.78-6.25m0-22.07a21,21,0,0,0,1.78,9c3.23,7.06,11.72,8.54,16.6,2.89s4.81-16.27-.21-21.87a9.66,9.66,0,0,0-14.16-.37c-3,3-3.87,6.92-4,10.37"/><path class="cls-6" d="M225.8,136.81a3.48,3.48,0,0,1,4.18,1.62c2.36,3.31,5,6.45,7.61,9.86V136.76h3v17a3.18,3.18,0,0,1-3.74-1.42c-2.31-3.25-4.85-6.32-7.3-9.46-.19-.25-.41-.48-.78-.92v11.82h-3Z"/><path class="cls-7" d="M138.7,148.08V136.73h2.86v17a3.15,3.15,0,0,1-3.73-1.41c-2.54-3.51-5.29-6.88-8.12-10.53v12h-3v-17c1.67-.27,2.93-.12,4.06,1.48,2.39,3.41,5.08,6.63,7.65,9.93l.24-.09"/><path class="cls-8" d="M114.17,154.1c-5.26,0-9-3.68-9-8.86a9,9,0,1,1,9,8.86m-5.76-8.8a5.75,5.75,0,1,0,5.61-6,5.68,5.68,0,0,0-5.61,6"/><path class="cls-9" d="M222.81,153.8c-3.18.18-3.24.2-4.29-2.61a1.85,1.85,0,0,0-2.14-1.45c-1.87.11-3.74.06-5.61,0-.69,0-1.11.17-1.27.86a4.59,4.59,0,0,1-.29.69c-1.16,2.67-1.16,2.67-4.24,2.5.43-1,.84-2,1.26-2.93,1.94-4.44,3.92-8.85,5.78-13.32.51-1.23,1.38-.88,2.22-1a1.32,1.32,0,0,1,1.57,1c2.17,5.1,4.43,10.16,6.65,15.24.13.29.22.61.36,1m-6.1-6.89c-1-2.24-1.87-4.31-2.85-6.56-1,2.29-1.87,4.37-2.8,6.56Z"/><path class="cls-10" d="M161.36,136.71h3V138c0,2.78,0,5.57,0,8.35.06,3.61,2.22,5.47,5.47,4.76,1.94-.42,3-1.89,3-4.26,0-2.9,0-5.81,0-8.72v-1.41h3c0,3.93.29,7.84-.08,11.69-.4,4-3.45,5.93-8.08,5.67a6.48,6.48,0,0,1-6.33-6.55c-.12-3.57,0-7.14,0-10.84"/><path class="cls-11" d="M157.65,138.66c-.56.79-1.09,1.52-1.51,2.1-1.37-.52-2.63-1-3.9-1.46a3.16,3.16,0,0,0-1.23-.09c-1.35.1-2.26.8-2.38,1.78-.16,1.33.73,1.85,1.76,2.2,1.22.4,2.47.71,3.68,1.11,3.27,1.06,4.44,2.73,4,5.62-.33,2.29-2.5,4-5.35,4.16a10.67,10.67,0,0,1-7.94-2.75l1.65-2a36.06,36.06,0,0,0,4.39,1.83,5,5,0,0,0,2.9-.23,2.41,2.41,0,0,0,1.23-1.75,2.38,2.38,0,0,0-1.13-1.69,10.83,10.83,0,0,0-2.57-.88c-.82-.26-1.68-.44-2.49-.75-2.41-.93-3.47-2.47-3.29-4.69a5,5,0,0,1,4.23-4.57,9.38,9.38,0,0,1,7.93,2"/><path class="cls-10" d="M259.83,139.15l-1.94,2.24c-1.69-1.59-3.68-2.58-6-1.94a6.57,6.57,0,0,0-3,1.93,6.28,6.28,0,0,0,.29,8.19c2.33,2.44,5,2.31,8.89-.43l1.83,1.85c-2.18,3.48-8.43,4.23-12.14,1.46a9.15,9.15,0,0,1-1.21-13.25c3.3-3.7,9.73-3.76,13.31,0"/><path class="cls-8" d="M103.19,139.16l-1.93,2.17c-3.61-2.61-6.67-2.7-8.85-.29a6.47,6.47,0,0,0,0,8.53q3.35,3.65,8.85-.4l1.94,1.87a9.06,9.06,0,0,1-12.62,1.06,9.19,9.19,0,0,1-.63-13c3.33-3.56,9.64-3.55,13.19.11"/><path class="cls-9" d="M271,153.81h-3.15c0-1.82.06-3.68,0-5.52a4.57,4.57,0,0,0-.64-2.17c-2-3.11-4-6.17-6.17-9.45a30.65,30.65,0,0,1,3.22,0,1.69,1.69,0,0,1,1,.79c1.42,2.18,2.81,4.39,4.26,6.68,1.35-2.11,2.7-4.09,3.9-6.15a2.29,2.29,0,0,1,2.58-1.38,11.71,11.71,0,0,0,1.81,0c-.25.44-.39.75-.58,1-1.87,2.84-3.77,5.66-5.6,8.51a3.51,3.51,0,0,0-.53,1.72c-.06,1.94,0,3.88,0,5.87"/><polygon class="cls-12" points="205.47 136.77 205.47 139.6 200.1 139.6 200.1 153.76 197.02 153.76 197.02 139.64 191.65 139.64 191.65 136.77 205.47 136.77"/><polygon class="cls-13" points="180.16 136.7 183.18 136.7 183.18 151.05 192.11 151.05 192.11 153.77 180.16 153.77 180.16 136.7"/></g></g></g></svg>