<svg id="Layer_1" data-name="Layer 1" xmlns="http://www.w3.org/2000/svg" xmlns:xlink="http://www.w3.org/1999/xlink" viewBox="0 0 363.1 202.56"><defs><style>.cls-1{fill:none;}.cls-2{clip-path:url(#clip-path);}.cls-3{clip-path:url(#clip-path-2);}.cls-4{clip-path:url(#clip-path-4);}.cls-5{fill:#03608c;}.cls-6{fill:#02608c;}.cls-7{fill:#04608d;}</style><clipPath id="clip-path"><rect class="cls-1" x="-1156.97" y="-943" width="1920" height="485.52"/></clipPath><clipPath id="clip-path-2"><rect class="cls-1" x="42" y="79.6" width="281.55" height="59.61"/></clipPath><clipPath id="clip-path-4"><rect class="cls-1" x="42.22" y="79.82" width="281.55" height="58.32"/></clipPath></defs><title>capita</title><g id="jOXdFi"><g class="cls-3"><g class="cls-3"><g class="cls-4"><g class="cls-4"><path class="cls-5" d="M323.77,137.23l-10.55,0c-1.07,0-1.07,0-1.44-1l-3.93-11c-.31-.87-.32-.87-1.22-.87q-9.74,0-19.46,0c-.85,0-.86,0-1.15.8-1.35,3.78-2.7,7.56-4,11.35-.19.56-.42.81-1.06.8-2.68,0-5.35,0-8,0-.83,0-.83,0-.54-.83l6.81-18.84,12.75-35.31c.53-1.46.53-1.46,2.15-1.46h8.35c1,0,1,0,1.27.85l6.2,17.19q6.8,18.79,13.6,37.57a3.39,3.39,0,0,0,.27.43Zm-26.83-20.84h6.7c1.08,0,1.08,0,.71-1.06a1.76,1.76,0,0,0-.09-.2l-5.44-15.48c-.55-1.55-1.1-3.09-1.66-4.64a1.76,1.76,0,0,0-.28-.41,4.81,4.81,0,0,0-.22.46q-3.65,10.26-7.27,20.52c-.28.79-.27.81.63.81h6.92"/><path class="cls-6" d="M72.79,79.82c.62.14,1.23.32,1.85.41a25.43,25.43,0,0,1,8.69,2.87c1.77,1,1.78,1,1.09,2.9q-.86,2.37-1.73,4.73c-.26.7-.28.71-.9.32a25,25,0,0,0-8.38-3.42,16.58,16.58,0,0,0-9.7.72,14.58,14.58,0,0,0-8.27,9,28.16,28.16,0,0,0-1.55,8.82c-.08,2.16-.08,4.33,0,6.48A25.3,25.3,0,0,0,55.85,122c2.36,5.24,6.46,8,12.1,8.72a33.12,33.12,0,0,0,10.46-.79c1.82-.36,3.61-.92,5.41-1.38a4.57,4.57,0,0,1,.52-.05,1.91,1.91,0,0,1,0,.59c-.81,2.27-1.65,4.53-2.45,6.8a.93.93,0,0,1-.71.72,49,49,0,0,1-13.69,1.54,25.31,25.31,0,0,1-24.11-19.34c-.41-1.59-.61-3.23-.91-4.84a2,2,0,0,0-.21-.45v-7.7a2.34,2.34,0,0,0,.22-.55,31.92,31.92,0,0,1,1.76-7.78C47.92,87.83,54.78,82,65,80.2a14.16,14.16,0,0,0,1.42-.38Z"/><path class="cls-5" d="M118.77,80.75h4.51c.91,0,.92,0,1.23.86l5.82,16.06q6.93,19.14,13.85,38.3c.44,1.24.67,1.23-.82,1.23H134c-1,0-1,0-1.39-1l-4-11.14c-.3-.83-.3-.83-1.13-.83q-9.78,0-19.57,0c-.82,0-.82,0-1.12.83q-1.95,5.52-3.92,11c-.37,1.06-.37,1.06-1.42,1.06h-7.7c-.86,0-.88,0-.59-.82q2.81-7.78,5.61-15.56Q105.9,101.25,113,81.69c.34-.94.34-.94,1.39-.94h4.39m-1.11,35.64h6.7a3.84,3.84,0,0,0,.76,0,.47.47,0,0,0,.26-.35,3.22,3.22,0,0,0-.22-.73l-1.75-5q-2.67-7.58-5.33-15.16c-.08-.24-.19-.47-.28-.71a4,4,0,0,0-.34.65q-3.66,10.31-7.29,20.61c-.23.64-.22.66.46.66h7"/><path class="cls-5" d="M155.75,109V81.6c0-.84,0-.85,1-.85,4.54,0,9.09,0,13.63,0,2,0,4,0,6,.19,4.78.46,9.12,2,12.54,5.56A16.71,16.71,0,0,1,193.35,96a18.56,18.56,0,0,1-1.21,9.78,16,16,0,0,1-8.76,8.77,21.76,21.76,0,0,1-8.41,1.82c-2.49,0-5,0-7.47,0-1.05,0-1-.14-1,1v18.47c0,.25,0,.51,0,.77,0,.41-.11.61-.55.58s-.81,0-1.21,0h-8c-1,0-.94,0-.94-1V109m10.73-10.46v9c0,1.35,0,1.35,1.41,1.35s3,0,4.51,0a19.63,19.63,0,0,0,3.16-.27,7,7,0,0,0,6-5.51,19.3,19.3,0,0,0,0-8.91,6.48,6.48,0,0,0-4.41-5.05,14.53,14.53,0,0,0-3.75-.7c-2.05-.11-4.1-.05-6.15-.05-.76,0-.77,0-.77.79v9.34"/><path class="cls-7" d="M244.85,112.81q0-11.43,0-22.87c0-1.53.2-1.3-1.36-1.31H230c-.78,0-.79,0-.8-.76V82.7c0-.47,0-1,0-1.43s.11-.55.5-.52.51,0,.77,0H271c1.3,0,1.3,0,.83,1.25-.72,2-1.46,3.9-2.13,5.87a1,1,0,0,1-1.08.78c-4,0-7.92,0-11.87,0a3.28,3.28,0,0,0-.77,0,.59.59,0,0,0-.39.36,3.68,3.68,0,0,0,0,.88q0,23,0,46.07c0,1.44.18,1.23-1.2,1.23h-8.58c-1,0-.94,0-.94-1V112.81"/><path class="cls-7" d="M206.08,109.07V82.13a6.59,6.59,0,0,0,0-.77c-.05-.49.18-.61.64-.61,3.11,0,6.23,0,9.35,0,.7,0,.71,0,.73.77,0,.18,0,.36,0,.55V136c0,1.4.17,1.23-1.21,1.24H207c-1,0-.93.11-.93-1q0-13.57,0-27.16"/></g></g></g></g></g></svg>