<svg id="Layer_1" data-name="Layer 1" xmlns="http://www.w3.org/2000/svg" xmlns:xlink="http://www.w3.org/1999/xlink" viewBox="0 0 363.1 202.56"><defs><style>.cls-1{fill:none;}.cls-2{clip-path:url(#clip-path);}.cls-3{clip-path:url(#clip-path-3);}.cls-4{fill:#fff;}</style><clipPath id="clip-path"><rect class="cls-1" x="88.03" y="51" width="172.68" height="102.66"/></clipPath><clipPath id="clip-path-3"><rect class="cls-1" x="88.62" y="51.59" width="172.68" height="102.66"/></clipPath></defs><title>cdg</title><g id="MeykP9"><g class="cls-2"><g class="cls-2"><g class="cls-3"><g class="cls-3"><path d="M261.3,154.25H88.62V51.59H261.3Zm-2.39-2.33V54H91.11c-.58,4.44-.39,95.79.2,97.92Z"/><path class="cls-4" d="M258.91,151.92H91.31c-.59-2.13-.78-93.48-.2-97.92h167.8ZM257,55.79h-2.32l-161.31.1c-.07,0-.15.11-.22.17l-.14.13V150c.86,0,1.53.1,2.21.1l161.31-.1c.08,0,.15-.11.23-.17l.24-.21Z"/><path d="M257,55.79v93.79l-.24.21c-.08.06-.15.17-.23.17l-161.31.1c-.68,0-1.35-.06-2.21-.1V56.19l.14-.13c.07-.06.15-.17.22-.17l161.31-.1H257M137.89,131.13l-1.37-.74c-.16-1.19-.29-2.21-.42-3.23l-.44,0V131c.81.73,1.5,1.24,2.19.1l1.29.6c0-1.34,0-2.4,0-3.46a10.89,10.89,0,0,0-.44-1.64l-.8,4.55m89,0a1.54,1.54,0,0,1-1.34-1.63,21.17,21.17,0,0,0-.25-2.37l-.7.05a21.21,21.21,0,0,0,0,3.29c.17,1.08.91,1.21,2.21.59l1.18.62v-4.39h-.32c-.27,1.28-.55,2.56-.82,3.84m-53.42-3.58c1,.1,1.32.65,1.34,1.58s.17,1.6.26,2.39l.58-.06v-4.07c-.79,0-1.49-1.21-2.14.23l-1.17-.71v4.48h.31c.27-1.29.54-2.57.82-3.85m20.68-.1.11.1c-.75-1.15-1.51-.63-2.12.08a3.12,3.12,0,0,0,.3,3.75l2.4.67-2.35.82c.05.2.09.39.13.58l2.69-.4a18.74,18.74,0,0,0,0-6l-1.17.38m-49.27,3.77,1.56.37c.17-1.66.61-3.19-.77-4.51-.93-.17-1.84-.31-2.51.87a3.14,3.14,0,0,1,2.26.6c-1,.45-2.48.24-2.69,1.83,1,1.2,1,1.2,2.25.76Zm61.75-3.76.11.09c-1.08-1.15-1.88-.55-2.46.5a2.68,2.68,0,0,0,.45,3.29l2.47.88-3,.61c1.66.83,2.65.81,3.53-.27v-5.47l-1.06.37m-54.19-7.4a4.07,4.07,0,0,0,1,.29c5,0,10.08.21,15.11,0A23.42,23.42,0,0,0,168,73.51c-4.73-.15-9.48,0-14.22,0a6.68,6.68,0,0,0-1.36.27ZM226.82,75.7A21.37,21.37,0,0,0,218.34,73,23.89,23.89,0,0,0,192.5,101.5a24.71,24.71,0,0,0,20.56,19.1c13.14,1.57,29.67-9.39,26-29.52H218.14v4.78h16.28A18.79,18.79,0,0,1,222,114.67a18.43,18.43,0,0,1-21.35-6.52,19,19,0,0,1,0-22.66c5.61-7.57,13.59-9.4,24.15-5.48a10.7,10.7,0,0,0,.72-1.23c.43-1,.81-2,1.25-3.08M148.1,110.29c-11.26,9-21.64,5.62-27.33,0a19.25,19.25,0,0,1-2.18-24.45A18.73,18.73,0,0,1,129,78.45c6.2-1.82,11.87-.3,17.2,3.12.82-.59,1.54-1.08,2.24-1.61.46-.35.88-.75,1.33-1.14a23.83,23.83,0,1,0,1.11,35.11c-.88-1.14-1.76-2.31-2.78-3.64m-27.46,19.6c1,2.67,2.59,1.34,4.14,1.69-.11-1.62-.2-2.91-.27-4-1.23-.81-2.12-.9-3-.08-.09.09,0,.32,0,.48.57.52,1.73-1.18,2,.4l-2.84,1.5m63.71-2.7c0,1.56,0,2.73,0,3.91,0,.12.26.23.45.39,1.25-1-.42-3,1.71-3.87a17.63,17.63,0,0,1,.59,1.78c.14.69.18,1.4.26,2.11.94-1.63,1.21-3.15-.31-4.57l-2.71.25m-21.81-.48-2.28.7c-.7,1.61-.92,3,.64,4.31l2.47-.38V125.4l-.41-.05c-.13.43-.26.86-.42,1.36m-30.43,1.6c-2.38-1.93-3-1.76-3.61.59l2.31,1.39c-.07.17-.14.33-.22.49l-2.27-.49a1.72,1.72,0,0,0,2.34,1.32,1.32,1.32,0,0,0,1.09-1.87l-2.26-1.4c.06-.14.12-.29.17-.44l2.45.41m103.31,3c.64-1.57.84-2.94-.62-4.35l-2.63.31v6.4l1-1.82,2.22-.54M221,129.25a2.11,2.11,0,0,0-2.13-2.31,2.28,2.28,0,0,0-2,2.45,2.2,2.2,0,0,0,2.19,2.29,2.09,2.09,0,0,0,2-2.43m-103.51-.59c-1-1.7-1.77-2-2.72-1.45-1.33.82-1.31,2.34.28,4.57.66-.24,1.43-.49,2.16-.82.12-.05.07-.46.12-.86l-1.69.86c-1.32-1.09-1.25-2.13-.05-3.27l1.9,1m95.88-1.57-1.64.09v4.28l.38,0c.41-1.44.83-2.89,1.26-4.41m-33,.17h-.74c0,1.41-.61,2.85.74,4.83Zm-29.95,4.09.45-.06v-5.94h-.45Zm17.63-4.13-.35,0v4.08l.35,0Zm11.63-1.8c.43-.11.22,0,0,0h0m-11.7,0c-.06,0-.14-.11-.19-.09a.7.7,0,0,0-.21.18l.4.11Z"/><path class="cls-4" d="M152.45,120.06V73.75a6.68,6.68,0,0,1,1.36-.27c4.74,0,9.49-.12,14.22,0a23.42,23.42,0,0,1,.49,46.79c-5,.26-10.07.06-15.11,0a4.07,4.07,0,0,1-1-.29m5-4.58c4.28,0,8.4.31,12.51-.28A18.53,18.53,0,0,0,171.92,79c-4.73-1.29-9.57-.49-14.45-.68Z"/><path class="cls-4" d="M226.82,75.7c-.44,1.09-.82,2.09-1.25,3.08a10.7,10.7,0,0,1-.72,1.23c-10.56-3.93-18.54-2.09-24.15,5.48a19,19,0,0,0,0,22.66A18.43,18.43,0,0,0,222,114.67a18.79,18.79,0,0,0,12.42-18.81H218.14V91.08H239c3.7,20.13-12.83,31.09-26,29.52a24.71,24.71,0,0,1-20.56-19.1A23.89,23.89,0,0,1,218.34,73a21.37,21.37,0,0,1,8.48,2.66"/><path class="cls-4" d="M148.1,110.29c1,1.33,1.9,2.5,2.78,3.64a23.9,23.9,0,1,1-1.11-35.1c-.45.38-.88.78-1.33,1.13-.7.53-1.42,1-2.24,1.61-5.33-3.42-11-4.94-17.2-3.12a18.73,18.73,0,0,0-10.41,7.4,19.25,19.25,0,0,0,2.18,24.45c5.69,5.61,16.07,9,27.33,0"/><path class="cls-4" d="M206.64,127.46l1.06-.37v5.47c-.88,1.08-1.87,1.1-3.53.27l3-.61-2.47-.88a2.68,2.68,0,0,1-.45-3.29c.58-1.05,1.38-1.65,2.46-.5-1,.2-1.86.58-1.79,1.85,0,.89.34,1.5,1.68,1.32Z"/><path class="cls-4" d="M120.64,129.89l2.83-1.5c-.23-1.58-1.39.12-2-.4,0-.16,0-.39,0-.48.83-.81,1.72-.73,3,.08.07,1.08.16,2.37.27,4-1.55-.35-3.15,1-4.14-1.69m1.2.12c.2.32.29.48.5.83l1.31-.72-.2-.5-1.61.39"/><path class="cls-4" d="M184.35,127.19l2.71-.25c1.52,1.42,1.25,2.94.31,4.57-.08-.71-.12-1.42-.26-2.11a17.63,17.63,0,0,0-.59-1.78c-2.13.83-.46,2.92-1.71,3.87-.19-.16-.44-.27-.45-.39,0-1.18,0-2.35,0-3.91"/><path class="cls-4" d="M145,131.14c-1.29.44-1.29.44-2.26-.76.22-1.59,1.69-1.38,2.7-1.83a3.14,3.14,0,0,0-2.26-.6c.67-1.18,1.58-1,2.51-.87,1.38,1.32.94,2.85.77,4.51l-1.56-.37.69-1.52c-.46,0-.75-.17-1-.08a4.93,4.93,0,0,0-1,.72l1.34.8"/><path class="cls-4" d="M194.16,127.45l1.17-.38a18.74,18.74,0,0,1,0,6l-2.69.4c0-.19-.08-.38-.13-.58l2.35-.82-2.4-.67a3.12,3.12,0,0,1-.3-3.75c.61-.71,1.37-1.23,2.12-.08-2.22,1.21-2.32,1.93-.43,3.3,1.49-1,.65-2.22.32-3.4"/><path class="cls-4" d="M162.54,126.71c.16-.5.29-.93.42-1.36l.41.05v5.94l-2.47.38c-1.56-1.35-1.34-2.7-.64-4.31l2.28-.7m-.73.89c-1.46,1.85-1.46,1.85.17,3.44.86-1.16,1.27-2.15-.17-3.44"/><path class="cls-4" d="M132.11,128.31l-2.45-.41c0,.15-.11.3-.17.45l2.26,1.39a1.32,1.32,0,0,1-1.09,1.87,1.72,1.72,0,0,1-2.34-1.32l2.27.49c.08-.16.15-.32.22-.49l-2.31-1.39c.6-2.35,1.23-2.52,3.61-.59"/><path class="cls-4" d="M235.42,131.3l-2.22.54-1,1.82v-6.4l2.63-.31c1.46,1.41,1.26,2.78.62,4.35m-1.53-.25c1.5-1.75,1.5-1.76,0-3.26-1.38,1.39-1.38,1.39,0,3.26"/><path class="cls-4" d="M221,129.25a2.09,2.09,0,0,1-2,2.43,2.2,2.2,0,0,1-2.19-2.29,2.29,2.29,0,0,1,2-2.45,2.11,2.11,0,0,1,2.13,2.31m-2.09,1.8c1.41-1.79,1.41-1.79.07-3.28-1.42,1.38-1.42,1.38-.07,3.28"/><path class="cls-4" d="M117.53,128.66l-1.9-1c-1.2,1.14-1.27,2.18.05,3.27l1.69-.86c-.05.4,0,.81-.12.86-.73.33-1.5.58-2.16.82-1.59-2.23-1.61-3.75-.28-4.57,1-.58,1.67-.25,2.72,1.45"/><path class="cls-4" d="M213.41,127.09c-.43,1.52-.85,3-1.26,4.41l-.38,0v-4.28l1.64-.09"/><path class="cls-4" d="M173.52,127.62c.65-1.44,1.35-.27,2.14-.23v4.07l-.58.06c-.09-.79-.24-1.59-.26-2.39s-.39-1.48-1.34-1.58Z"/><path class="cls-4" d="M226.86,131.06c-1.3.62-2,.49-2.21-.59a19.93,19.93,0,0,1,0-3.28l.7-.06a21.17,21.17,0,0,1,.25,2.37,1.54,1.54,0,0,0,1.34,1.63Z"/><path class="cls-4" d="M180.41,127.26v4.82c-1.35-2-.75-3.42-.74-4.83h.74"/><path class="cls-4" d="M137.85,131.08c-.69,1.14-1.38.63-2.19-.1v-3.79l.44,0c.13,1,.26,2,.42,3.23l1.37.74Z"/><path class="cls-4" d="M150.46,131.35v-6h.45v5.94l-.45.06"/><path class="cls-4" d="M226.9,131.13c.27-1.28.55-2.56.82-3.85H228v4.39l-1.18-.62Z"/><path class="cls-4" d="M173.48,127.55c-.28,1.28-.55,2.56-.82,3.85h-.31v-4.48l1.17.71Z"/><path class="cls-4" d="M137.89,131.13l.8-4.55a10.89,10.89,0,0,1,.44,1.64c0,1.06,0,2.12,0,3.46l-1.29-.6Z"/><path class="cls-4" d="M168.09,127.22v4.07l-.35,0v-4.08l.35,0"/><path class="cls-4" d="M179.72,125.42c.37.21.18.11,0,0h0"/><path class="cls-4" d="M168,125.39v.2l-.4-.11a.7.7,0,0,1,.21-.18s.13.06.19.09"/><path d="M157.47,115.48V78.27c4.88.19,9.72-.61,14.45.68A18.53,18.53,0,0,1,170,115.2c-4.11.59-8.23.31-12.51.28"/><path d="M206.64,127.46v3.26c-1.34.18-1.63-.43-1.68-1.32-.07-1.27.76-1.65,1.79-1.85Z"/><path d="M121.84,130l1.61-.39.2.5-1.31.72c-.21-.35-.3-.51-.5-.83"/><path d="M145,131.14l-1.34-.8a4.93,4.93,0,0,1,1-.72c.21-.09.5,0,1,.08l-.69,1.52Z"/><path d="M194.16,127.45c.33,1.18,1.17,2.4-.32,3.4-1.89-1.37-1.79-2.09.43-3.3Z"/><path d="M161.81,127.6c1.44,1.29,1,2.28.17,3.44-1.63-1.59-1.63-1.59-.17-3.44"/><path d="M233.89,131.05c-1.34-1.87-1.34-1.87,0-3.26,1.46,1.5,1.46,1.51,0,3.26"/><path d="M219,131.05c-1.35-1.9-1.35-1.9.07-3.28,1.34,1.49,1.34,1.49-.07,3.28"/></g></g></g></g></g></svg>