<svg id="Layer_1" data-name="Layer 1" xmlns="http://www.w3.org/2000/svg" xmlns:xlink="http://www.w3.org/1999/xlink" viewBox="0 0 363.1 202.56"><defs><style>.cls-1,.cls-13{fill:none;}.cls-2{clip-path:url(#clip-path);}.cls-3{fill:#1095d2;}.cls-4{fill:#e4262a;}.cls-5{fill:#e84e14;}.cls-6{fill:#e44892;}.cls-7{fill:#f08428;}.cls-8{fill:#6b8e3c;}.cls-9{fill:#727275;}.cls-10{fill:#6e9293;}.cls-11{clip-path:url(#clip-path-2);}.cls-12{fill:#9c9b9b;}.cls-13{stroke:#b1b1b1;stroke-miterlimit:10;stroke-width:1.73px;}</style><clipPath id="clip-path"><rect class="cls-1" x="51.03" y="67" width="275.39" height="90.02"/></clipPath><clipPath id="clip-path-2"><rect class="cls-1" x="51.03" y="67" width="275.39" height="90.02"/></clipPath></defs><title>cristal</title><g id="Artwork_12" data-name="Artwork 12"><g class="cls-2"><polygon class="cls-3" points="100.42 86.81 90.21 78.51 80.3 87.97 90.59 91.49 100.42 86.81"/><polygon class="cls-3" points="76.92 97.99 89.87 91.83 80.16 88.5 76.92 97.99"/><polygon class="cls-4" points="115.15 99.9 114.49 87.65 101.06 86.98 105.54 96.61 115.15 99.9"/><polygon class="cls-4" points="91.33 91.75 104.81 96.36 100.62 87.33 91.33 91.75"/><polygon class="cls-5" points="71.98 110.71 75.97 99.05 67.16 103.23 71.4 112.32 71.98 110.71"/><polygon class="cls-5" points="79.71 88.12 66.54 89.16 66.79 102.8 76.22 98.32 79.71 88.12"/><polygon class="cls-6" points="106.94 125.28 116.24 120.95 111.84 111.47 106.94 125.28"/><polygon class="cls-6" points="106.54 126.39 103.28 135.58 116.01 134.77 116.27 121.54 106.69 126 106.54 126.39"/><polygon class="cls-7" points="83.28 136.9 93.14 145.51 102.68 136.04 92.62 132.55 83.28 136.9"/><polygon class="cls-7" points="105.98 126.34 93.34 132.22 102.73 135.47 105.98 126.34"/><polygon class="cls-7" points="106.68 126.01 106.54 126.39 106.69 126 106.68 126.01"/><polygon class="cls-8" points="91.88 132.29 78.57 127.68 82.71 136.56 91.88 132.29"/><polygon class="cls-8" points="67.86 123.97 68.88 136.83 82.11 136.59 77.84 127.43 67.86 123.97"/><polygon class="cls-9" points="71.5 113.83 68.19 123.5 77.52 126.73 71.5 113.83"/><polygon class="cls-9" points="66.67 103.49 57.74 113.39 67.69 123.26 71.16 113.11 66.67 103.49"/><polygon class="cls-10" points="111.77 110.02 115.15 100.48 105.86 97.3 111.77 110.02"/><polygon class="cls-10" points="116.58 120.38 125.08 110.9 115.64 100.77 112.1 110.73 116.58 120.38"/><g class="cls-11"><path class="cls-12" d="M159.23,110.52v4.13a19.62,19.62,0,0,1-9.53,2.25,14.64,14.64,0,0,1-7.45-1.77,12.91,12.91,0,0,1-4.84-4.86,13.14,13.14,0,0,1-1.78-6.69A12.79,12.79,0,0,1,139.71,94a14,14,0,0,1,10.06-3.9,23.71,23.71,0,0,1,9.17,2.15v4a18,18,0,0,0-9-2.63,10.39,10.39,0,0,0-7.47,2.84,10,10,0,0,0-.05,14.21,10.42,10.42,0,0,0,7.48,2.77,17,17,0,0,0,9.31-2.92"/><path class="cls-12" d="M171.44,116.6V90.39H178a9.49,9.49,0,0,1,6.31,2,6.61,6.61,0,0,1,2.33,5.33,6.54,6.54,0,0,1-4.42,6.45,11.49,11.49,0,0,1,2.45,2.25,45.47,45.47,0,0,1,3.38,5q1.37,2.23,2.19,3.36l1.39,1.88h-4.46L186,114.87l-.23-.32-.73-1-1.16-1.92-1.26-2a20.44,20.44,0,0,0-2.12-2.57,8.13,8.13,0,0,0-1.75-1.38,5.91,5.91,0,0,0-2.62-.42h-1V116.6Zm4.88-23h-1.13v8.27h1.43a10.75,10.75,0,0,0,3.91-.48,3.65,3.65,0,0,0,1.65-1.48,4.28,4.28,0,0,0,.59-2.24,4.07,4.07,0,0,0-.65-2.24A3.57,3.57,0,0,0,180.27,94a13.55,13.55,0,0,0-4-.41"/><rect class="cls-12" x="202.06" y="90.39" width="3.75" height="26.2"/><path class="cls-12" d="M225.61,105.62l-2.86-1.73a13,13,0,0,1-3.81-3.23A6.07,6.07,0,0,1,217.8,97,6.45,6.45,0,0,1,220,92a8,8,0,0,1,5.58-1.93,10.52,10.52,0,0,1,6,1.84v4.26a8.67,8.67,0,0,0-6.09-2.73,5.07,5.07,0,0,0-3,.85,2.59,2.59,0,0,0-1.19,2.18,3.34,3.34,0,0,0,.87,2.2,10.87,10.87,0,0,0,2.8,2.16l2.87,1.7c3.19,1.9,4.79,4.34,4.79,7.29a6.68,6.68,0,0,1-2.11,5.12,7.71,7.71,0,0,1-5.48,2,11.52,11.52,0,0,1-7.07-2.39v-4.77c2,2.57,4.37,3.85,7,3.85a4.38,4.38,0,0,0,2.93-1,3,3,0,0,0,1.18-2.45q0-2.4-3.45-4.54"/><polygon class="cls-12" points="241.97 90.36 263.86 90.36 263.86 93.69 254.72 93.69 254.72 116.6 250.95 116.6 250.95 93.69 241.97 93.69 241.97 90.36"/><path class="cls-12" d="M279.41,90.24h2.64L293.8,116.6H290l-3.49-7.77H275.29L272,116.6h-3.85Zm5.51,15.25L280.7,96l-3.92,9.49Z"/><polygon class="cls-12" points="304.16 90.39 307.91 90.39 307.91 113.18 319.71 113.18 319.71 116.59 304.16 116.59 304.16 90.39"/><line class="cls-13" x1="139.24" y1="123.35" x2="315.19" y2="123.35"/><rect class="cls-12" x="134.59" y="132.74" width="0.92" height="6.44"/><polygon class="cls-12" points="144.7 132.74 145.57 132.74 145.57 139.18 144.78 139.18 140.48 134.22 140.48 139.18 139.61 139.18 139.61 132.74 140.36 132.74 144.7 137.74 144.7 132.74"/><polygon class="cls-12" points="149.05 132.73 154.42 132.73 154.42 133.55 152.18 133.55 152.18 139.18 151.25 139.18 151.25 133.55 149.05 133.55 149.05 132.73"/><polygon class="cls-12" points="157.94 132.74 161.59 132.74 161.59 133.56 158.86 133.56 158.86 135.53 161.49 135.53 161.49 136.35 158.86 136.35 158.86 138.35 161.67 138.35 161.67 139.17 157.94 139.17 157.94 132.74"/><path class="cls-12" d="M165.32,139.18v-6.44h1.62a2.31,2.31,0,0,1,1.55.49,1.61,1.61,0,0,1,.57,1.3,1.69,1.69,0,0,1-.28,1,1.75,1.75,0,0,1-.81.61,2.78,2.78,0,0,1,.61.55,13.8,13.8,0,0,1,.83,1.22c.22.37.4.64.53.83l.35.46h-1.1l-.28-.43-.06-.07-.18-.26-.28-.47-.31-.5a5.45,5.45,0,0,0-.52-.63,1.91,1.91,0,0,0-.43-.34,1.44,1.44,0,0,0-.64-.1h-.25v2.8Zm1.2-5.65h-.28v2h.35a2.67,2.67,0,0,0,1-.12.93.93,0,0,0,.4-.36,1.06,1.06,0,0,0,.15-.55A1,1,0,0,0,168,134a.81.81,0,0,0-.46-.35,3.19,3.19,0,0,0-1-.1"/><polygon class="cls-12" points="178.75 132.74 179.63 132.74 179.63 139.18 178.84 139.18 174.53 134.22 174.53 139.18 173.66 139.18 173.66 132.74 174.41 132.74 178.75 137.74 178.75 132.74"/><path class="cls-12" d="M185.7,132.71h.65l2.89,6.47h-1l-.86-1.91h-2.74l-.81,1.91h-.94Zm1.36,3.74-1-2.33-1,2.33Z"/><polygon class="cls-12" points="191.09 132.73 196.47 132.73 196.47 133.55 194.22 133.55 194.22 139.18 193.3 139.18 193.3 133.55 191.09 133.55 191.09 132.73"/><rect class="cls-12" x="199.99" y="132.74" width="0.92" height="6.44"/><path class="cls-12" d="M208.14,132.65a3.45,3.45,0,0,1,2.48.94,3.15,3.15,0,0,1,1,2.37,3.08,3.08,0,0,1-1,2.36,3.55,3.55,0,0,1-2.52.93,3.38,3.38,0,0,1-2.43-.93,3.13,3.13,0,0,1-1-2.34,3.2,3.2,0,0,1,1-2.39,3.4,3.4,0,0,1,2.47-.94m0,.88a2.5,2.5,0,0,0-1.82.69,2.37,2.37,0,0,0-.71,1.76,2.33,2.33,0,0,0,.71,1.73,2.67,2.67,0,0,0,3.59,0,2.37,2.37,0,0,0,.72-1.76,2.31,2.31,0,0,0-.72-1.72,2.46,2.46,0,0,0-1.77-.69"/><polygon class="cls-12" points="220.5 132.74 221.38 132.74 221.38 139.18 220.59 139.18 216.28 134.22 216.28 139.18 215.42 139.18 215.42 132.74 216.16 132.74 220.5 137.74 220.5 132.74"/><path class="cls-12" d="M227.45,132.71h.65l2.89,6.47h-.94l-.86-1.91h-2.75l-.8,1.91h-.95Zm1.36,3.74-1-2.33-1,2.33Z"/><polygon class="cls-12" points="234.34 132.74 235.26 132.74 235.26 138.34 238.16 138.34 238.16 139.18 234.34 139.18 234.34 132.74"/><path class="cls-12" d="M248.46,136.48l-.7-.42a3.27,3.27,0,0,1-.94-.8,1.49,1.49,0,0,1-.27-.89,1.59,1.59,0,0,1,.52-1.24,2,2,0,0,1,1.37-.47,2.61,2.61,0,0,1,1.48.45v1a2.11,2.11,0,0,0-1.5-.67,1.24,1.24,0,0,0-.74.21.63.63,0,0,0-.29.53.76.76,0,0,0,.22.54,2.54,2.54,0,0,0,.68.53l.71.42a2.08,2.08,0,0,1,1.18,1.79,1.66,1.66,0,0,1-.52,1.26,1.92,1.92,0,0,1-1.35.48,2.83,2.83,0,0,1-1.74-.58V137.5a2.18,2.18,0,0,0,1.73.94,1.08,1.08,0,0,0,.72-.24.76.76,0,0,0,.29-.6c0-.39-.28-.77-.85-1.12"/><polygon class="cls-12" points="253.28 132.73 258.66 132.73 258.66 133.55 256.42 133.55 256.42 139.18 255.49 139.18 255.49 133.55 253.28 133.55 253.28 132.73"/><path class="cls-12" d="M263.28,132.71h.65l2.89,6.47h-.95l-.85-1.91h-2.75l-.8,1.91h-1Zm1.36,3.74-1-2.33-1,2.33Z"/><polygon class="cls-12" points="275.28 132.74 276.15 132.74 276.15 139.18 275.36 139.18 271.06 134.22 271.06 139.18 270.19 139.18 270.19 132.74 270.94 132.74 275.28 137.74 275.28 132.74"/><path class="cls-12" d="M280.18,139.17v-6.43h2.17a4.47,4.47,0,0,1,2.08.4,2.94,2.94,0,0,1,1.22,1.15,3.24,3.24,0,0,1,.45,1.67,3.12,3.12,0,0,1-.25,1.24,3.06,3.06,0,0,1-.71,1,3.14,3.14,0,0,1-1.09.7,3.45,3.45,0,0,1-.67.19,9.24,9.24,0,0,1-1.16,0Zm2.08-5.61H281.1v4.79h1.18a4.39,4.39,0,0,0,1.08-.1A2.78,2.78,0,0,0,284,138a2.28,2.28,0,0,0,.46-.36,2.36,2.36,0,0,0,.68-1.75,2.2,2.2,0,0,0-.7-1.69,2.27,2.27,0,0,0-.59-.4,2.91,2.91,0,0,0-.63-.21,7,7,0,0,0-1-.05"/><path class="cls-12" d="M291.43,132.71h.64l2.89,6.47H294l-.86-1.91h-2.75l-.8,1.91h-.95Zm1.35,3.74-1-2.33-1,2.33Z"/><path class="cls-12" d="M298.34,139.18v-6.44H300a2.29,2.29,0,0,1,1.55.49,1.61,1.61,0,0,1,.57,1.3,1.69,1.69,0,0,1-.28,1,1.75,1.75,0,0,1-.81.61,2.78,2.78,0,0,1,.61.55,13.8,13.8,0,0,1,.83,1.22c.22.37.4.64.54.83l.34.46h-1.1l-.28-.43-.06-.07-.17-.26-.29-.47-.31-.5a5.45,5.45,0,0,0-.52-.63,1.91,1.91,0,0,0-.43-.34,1.44,1.44,0,0,0-.64-.1h-.24v2.8Zm1.19-5.65h-.27v2h.35a2.64,2.64,0,0,0,1-.12.88.88,0,0,0,.4-.36,1.06,1.06,0,0,0,.15-.55A1,1,0,0,0,301,134a.81.81,0,0,0-.46-.35,3.19,3.19,0,0,0-1-.1"/><path class="cls-12" d="M306.66,139.17v-6.43h2.17a4.5,4.5,0,0,1,2.08.4,2.91,2.91,0,0,1,1.21,1.15,3.24,3.24,0,0,1,.45,1.67,3.3,3.3,0,0,1-.24,1.24,3.22,3.22,0,0,1-.71,1,3.18,3.18,0,0,1-1.1.7,3.37,3.37,0,0,1-.66.19,9.36,9.36,0,0,1-1.16,0Zm2.07-5.61h-1.15v4.79h1.18a4.25,4.25,0,0,0,1.07-.1,2.62,2.62,0,0,0,.64-.23,2.35,2.35,0,0,0,.47-.36,2.4,2.4,0,0,0,.68-1.75,2.2,2.2,0,0,0-.7-1.69,2.45,2.45,0,0,0-.59-.4,3,3,0,0,0-.64-.21,6.91,6.91,0,0,0-1-.05"/><path class="cls-12" d="M318,136.48l-.7-.42a3.27,3.27,0,0,1-.94-.8,1.49,1.49,0,0,1-.27-.89,1.59,1.59,0,0,1,.52-1.24,2,2,0,0,1,1.37-.47,2.61,2.61,0,0,1,1.48.45v1a2.1,2.1,0,0,0-1.49-.67,1.26,1.26,0,0,0-.75.21.63.63,0,0,0-.29.53.81.81,0,0,0,.22.54,2.54,2.54,0,0,0,.68.53l.71.42a2.08,2.08,0,0,1,1.18,1.79,1.66,1.66,0,0,1-.52,1.26,1.92,1.92,0,0,1-1.35.48,2.85,2.85,0,0,1-1.74-.58V137.5a2.18,2.18,0,0,0,1.73.94,1.08,1.08,0,0,0,.72-.24.76.76,0,0,0,.29-.6c0-.39-.28-.77-.85-1.12"/></g></g></g></svg>