<svg id="Layer_1" data-name="Layer 1" xmlns="http://www.w3.org/2000/svg" xmlns:xlink="http://www.w3.org/1999/xlink" viewBox="0 0 363.1 202.56"><defs><style>.cls-1{fill:none;}.cls-2{clip-path:url(#clip-path);}.cls-3{clip-path:url(#clip-path-3);}.cls-4{fill:#1c4598;}.cls-5{fill:#c4cee4;}.cls-6{fill:#1d4598;}.cls-7{fill:#1d4698;}</style><clipPath id="clip-path"><rect class="cls-1" x="51.11" y="79.13" width="249.01" height="42.21"/></clipPath><clipPath id="clip-path-3"><rect class="cls-1" x="51.24" y="79.25" width="249.01" height="42.21"/></clipPath></defs><title>nokia</title><g id="QqwOcD"><g class="cls-2"><g class="cls-2"><g class="cls-3"><g class="cls-3"><path class="cls-4" d="M51.24,120.84V80H72l23.83,30.51V80.06h11.94v40.75H87.42l-24.2-31v31Z"/><path class="cls-4" d="M300.24,120.84H285.71c-1.22-2.35-2.45-4.7-3.69-7.07H257.75l-3.65,7H240.27Q251.4,100.38,262.46,80H278q4.44,8.13,8.89,16.33l12.95,23.79a6.49,6.49,0,0,0,.36.55Zm-22.55-16c-2.62-5-5.18-9.82-7.79-14.78l-7.78,14.78Z"/><path class="cls-5" d="M127.3,79.35a.38.38,0,0,1,0-.1h23.41a.41.41,0,0,0,0,.11H127.3"/><path class="cls-4" d="M150.35,121.36h-23a53.36,53.36,0,0,1-7.74-1c-4.46-1.24-6.74-4.57-6.82-9.1-.14-7.5-.26-15,.1-22.51.26-5.44,4.11-8.57,10.05-9.1,1.46-.13,2.93-.19,4.4-.28h23.42a54.08,54.08,0,0,1,7.24,1,8.77,8.77,0,0,1,6.94,8.8c.17,7.7.27,15.42-.1,23.11-.25,5.24-4.19,8.35-10.05,8.86-1.46.13-2.93.19-4.4.28m-11.54-10.47V111h11.46c2,0,3.49-.61,3.49-2.92,0-5.33.06-10.66-.16-16a3.18,3.18,0,0,0-2.22-2.16c-8.19-.18-16.39-.16-24.58-.15-1.63,0-2.82.78-2.83,2.55q-.07,8,0,16a2.29,2.29,0,0,0,2.4,2.49c4.15.06,8.3,0,12.44,0"/><path class="cls-6" d="M182.54,99.55V120.8H170.05V80.05h12.5V99.54l11.58-10.68,9.25-8.52a1.15,1.15,0,0,1,.69-.31c5.33,0,10.65,0,16.19,0l-22.33,19.1,25.12,21.68h-17.7L182.54,99.55"/><rect class="cls-7" x="225.45" y="80.05" width="12.47" height="40.75"/></g></g></g></g></g></svg>