<svg id="Layer_1" data-name="Layer 1" xmlns="http://www.w3.org/2000/svg" xmlns:xlink="http://www.w3.org/1999/xlink" viewBox="0 0 363.1 202.56"><defs><style>.cls-1{fill:none;}.cls-2{clip-path:url(#clip-path);}.cls-3{fill:#b3904c;}</style><clipPath id="clip-path"><rect class="cls-1" x="65.64" y="66.76" width="237.89" height="73.43"/></clipPath></defs><title>oriel</title><g id="Artwork_9" data-name="Artwork 9"><g class="cls-2"><g class="cls-2"><path class="cls-3" d="M133.58,134l-2.48,6h1l.56-1.43h2.57l.58,1.43h1l-2.44-6Zm-.62,3.83,1-2.71,1,2.71Zm13.5.76L143.33,134h-.91v6h.93v-4.6l3.15,4.6h.88v-6h-.93Zm-20.82-1.46A2,2,0,0,0,126,136a1.93,1.93,0,0,0-.8-1.63,3,3,0,0,0-1.75-.35h-1.7v6h1v-5.18h.83a1.92,1.92,0,0,1,1,.19,1.24,1.24,0,0,1,.51,1,1.28,1.28,0,0,1-.41,1,2,2,0,0,1-1.21.26h-.21l1.66,2.72h1l-1.41-2.24a1.64,1.64,0,0,0,1.16-.66m-13.33.64h2.6a1.9,1.9,0,0,1-.71,1.08,2.32,2.32,0,0,1-1.4.45,2.29,2.29,0,1,1,1.28-4.16,2.71,2.71,0,0,1,.55.57h1.08a3.14,3.14,0,0,0-2.89-1.82,3.13,3.13,0,1,0,0,6.25,3.22,3.22,0,0,0,2.94-1.8A3.31,3.31,0,0,0,116,137h-3.71Zm43-3.77h-1.86v6h1.93a2.77,2.77,0,0,0,3.07-3,3.1,3.1,0,0,0-.66-2,2.94,2.94,0,0,0-2.48-1m.12,5.18h-1v-4.33h1a2,2,0,0,1,1.58.63,2.45,2.45,0,0,1,.49,1.54,1.93,1.93,0,0,1-2.07,2.16m67.33-2.54c-1-.36-1.42-.5-1.42-1.09a.87.87,0,0,1,.92-.85.88.88,0,0,1,.9.85h1a1.71,1.71,0,0,0-1.82-1.66,1.77,1.77,0,0,0-1.9,1.73c0,1.13,1,1.48,1.52,1.64.78.28,1.35.44,1.35,1.11a1,1,0,0,1-1,1,1,1,0,0,1-1-1.08h-.95a1.81,1.81,0,0,0,2,1.89,1.78,1.78,0,0,0,1.94-1.82c0-1-.7-1.36-1.45-1.68m20.33.49a2,2,0,0,0,.34-1.15,1.93,1.93,0,0,0-.8-1.63,3,3,0,0,0-1.75-.35h-1.7v6h1v-5.18h.82a1.94,1.94,0,0,1,1,.19,1.24,1.24,0,0,1,.51,1,1.32,1.32,0,0,1-.41,1,2,2,0,0,1-1.21.26h-.21l1.65,2.72h1l-1.42-2.24a1.64,1.64,0,0,0,1.17-.66m-13.15,2.9h3.38v-.85h-2.41v-1.78h2.38v-.84h-2.38v-1.71h2.41V134h-3.38Zm19.12,0h1v-6h-1Zm7,0h3.37v-.85H257v-1.78h2.38v-.84H257v-1.71h2.41V134h-3.37Zm-91.84,0h3.37v-.85h-2.41v-1.78h2.38v-.84h-2.38v-1.71h2.41V134h-3.37Zm49.17-3.39c-1-.36-1.42-.5-1.42-1.09a.86.86,0,0,1,.91-.85.88.88,0,0,1,.9.85h.95a1.7,1.7,0,0,0-1.82-1.66,1.77,1.77,0,0,0-1.89,1.73c0,1.13,1,1.48,1.52,1.64.77.28,1.34.44,1.34,1.11a1,1,0,0,1-1,1,1,1,0,0,1-1-1.08h-1a1.82,1.82,0,0,0,2,1.89,1.78,1.78,0,0,0,2-1.82c0-1-.7-1.36-1.45-1.68m-11-2.64-2.48,6h1l.56-1.43h2.57l.57,1.43h1.05l-2.44-6Zm-.62,3.83,1-2.71,1,2.71Zm-7.32-.7a2,2,0,0,0,.34-1.15,1.93,1.93,0,0,0-.8-1.63,3,3,0,0,0-1.75-.35h-1.7v6h1v-5.18h.82a2,2,0,0,1,1,.19,1.24,1.24,0,0,1,.51,1,1.32,1.32,0,0,1-.41,1,2,2,0,0,1-1.21.26H192l1.65,2.72h1l-1.42-2.24a1.64,1.64,0,0,0,1.17-.66m-10.73-.32a1.47,1.47,0,0,0,.16-2.48,2.08,2.08,0,0,0-1.28-.33h-1.8v6h1.77a2.32,2.32,0,0,0,1.52-.35,1.59,1.59,0,0,0,.73-1.38,1.49,1.49,0,0,0-1.1-1.49m-2-2h.76a1.44,1.44,0,0,1,.64.1.85.85,0,0,1,0,1.45,1.33,1.33,0,0,1-.61.1h-.79Zm1.61,4.23a1.59,1.59,0,0,1-.64.1h-1v-1.87h.89a1.82,1.82,0,0,1,.72.1.86.86,0,0,1,.53.84.85.85,0,0,1-.53.83m54.3-29.55-.23.19h2.33V77.84h-2.33l.23.18a3.38,3.38,0,0,1,.85,2.4v26.76a3.29,3.29,0,0,1-.85,2.39m-11.71-1.91-.18-.23-.28.27a2,2,0,0,1-1.37.8h-9.33V95h7.92a1.83,1.83,0,0,1,1.91,1.07v-3.4l-.16.25a1.75,1.75,0,0,1-1.75.82h-7.92V79.1h8.4l.61,0a1.81,1.81,0,0,1,1.17.73l.18.3V77.84H213.53v31.92h11.08ZM211,108a2.34,2.34,0,0,1-.78,1.55l-.23.19h2.33V77.84h-2.33a2.16,2.16,0,0,1,1,1.73l.07.85v26.76Zm-18.38,0a2.38,2.38,0,0,1-.75,1.55l-.23.19h2.33V77.84h-2.33a2.3,2.3,0,0,1,1,1.73l.09.85v26.76Zm-30.13,1.55a3.16,3.16,0,0,1-.84-2.39V95.82h2.62l.34.52q1.78,2.76,3.7,5.18a29.73,29.73,0,0,0,10.33,8.33l.89.43H183V110a12.27,12.27,0,0,1-1.78-.75,20.73,20.73,0,0,1-5.47-4.64,67.91,67.91,0,0,1-7-9l-.37-.6.55-.27a13.26,13.26,0,0,0,1.83-1.07,9.27,9.27,0,0,0,2.83-3.29,8.56,8.56,0,0,0,1-3.92,8,8,0,0,0-2.73-6.11,9.66,9.66,0,0,0-6.28-2.51l-2.12,0h-3v31.92h2.33Zm8.08-9a49.52,49.52,0,0,0,5.24,5.88l2.31,2.12a34.6,34.6,0,0,1-8.35-7.32c-.85-1.06-2.09-2.7-3.72-4.9l-.45-.62L167,95.5l.32.48c1.14,1.73,2.22,3.25,3.24,4.54m-1.26-20.37a7.08,7.08,0,0,1,4,6.36,8.56,8.56,0,0,1-4.66,7.23l.85-.87a9.16,9.16,0,0,0,2-3.17,8.55,8.55,0,0,0,.54-3,8.26,8.26,0,0,0-.64-3.27,8.47,8.47,0,0,0-2.14-3l-.89-.75ZM161.6,79.1h2.16a6,6,0,0,1,1.24.13,7,7,0,0,1,5.11,4.45,7.92,7.92,0,0,1-1.64,8.51,7.21,7.21,0,0,1-5.37,2.37h-1.5Zm35.69,30.47a2.64,2.64,0,0,1-.77-1.55l-.1-.84V80.42l.1-.85a2.68,2.68,0,0,1,.77-1.55l.21-.18h-2.33v31.92h2.33Zm57-2-.18-.16-.35.25a3.33,3.33,0,0,1-2.32.82h-9.13V80.42l.07-.85a2.35,2.35,0,0,1,.78-1.55l.23-.18H241v31.92h12.07Zm-96.5.43a2.33,2.33,0,0,1-.75,1.55l-.23.19h2.33V77.84h-2.33a2.27,2.27,0,0,1,1,1.73l.09.85v26.76Zm-39.55-2.17a17.14,17.14,0,0,0,11.86,4.43,17,17,0,0,0,12.16-4.74,16,16,0,0,0,5.25-12,15.37,15.37,0,0,0-5.34-11.75,17.17,17.17,0,0,0-5.84-3.46A19.41,19.41,0,0,0,130,77.29a17.76,17.76,0,0,0-12.14,4.57,15.12,15.12,0,0,0-5.29,11.7,16.46,16.46,0,0,0,1.28,6.3,15.1,15.1,0,0,0,4.31,6M144.29,86a15.46,15.46,0,0,1,1,12.78A14.23,14.23,0,0,1,143,103.1a29.59,29.59,0,0,1-3.4,3.42,20,20,0,0,0,4.09-5.91,19.76,19.76,0,0,0,1.3-7.1A18.09,18.09,0,0,0,144.4,89a16,16,0,0,0-2-4.7A27.13,27.13,0,0,0,139,80.42,18.61,18.61,0,0,1,144.29,86M130,78.55a12.62,12.62,0,0,1,8.39,2.83A14.6,14.6,0,0,1,143.15,89a18.3,18.3,0,0,1,.54,4.52,16.89,16.89,0,0,1-3.53,10.79,12,12,0,0,1-5,3.88A13.53,13.53,0,0,1,130,109a12.35,12.35,0,0,1-10.17-4.76,16.77,16.77,0,0,1-3.49-10.9,15.54,15.54,0,0,1,3.28-10,12.41,12.41,0,0,1,4.45-3.67A13.48,13.48,0,0,1,130,78.55M114.65,88.61a13.88,13.88,0,0,1,3-5.29,27.45,27.45,0,0,1,3.47-3,30.22,30.22,0,0,0-2.9,3.21,15.66,15.66,0,0,0-3.08,9.88,20.08,20.08,0,0,0,.62,5.16,13.83,13.83,0,0,0,1.65,4.14,30.42,30.42,0,0,0,3.18,3.91,27,27,0,0,1-3.49-3.47,14.78,14.78,0,0,1-2.29-4.39,15.53,15.53,0,0,1-.92-5.32,14.81,14.81,0,0,1,.79-4.84m-34.2,9.81H96.11v-.85H79.6v18.27h-14v.85H80.45Zm1.7,1.69h14v-.85H81.3v18.28H65.64v.85H82.15Zm205.72,17.43V99.26h-14.8v.85h14v18.28h16.5v-.85Zm.85-.85h14.81v-.85h-14V97.57h-16.5v.85h15.65ZM265.26,68.43H103.64v48.28H265.26Zm-.85,47.43H104.48V69.28H264.41ZM267,66.76h-165v51.65H267Zm-.85,50.8H102.79V67.61H266.13ZM65.64,125.09H303.53v-.85H65.64Zm0,1.71H303.53V126H65.64Z"/></g></g></g></svg>