<svg id="Layer_1" data-name="Layer 1" xmlns="http://www.w3.org/2000/svg" xmlns:xlink="http://www.w3.org/1999/xlink" viewBox="0 0 363.1 202.56"><defs><style>.cls-1{fill:none;}.cls-2{clip-path:url(#clip-path);}.cls-3{fill:#ed1d24;}</style><clipPath id="clip-path"><rect class="cls-1" x="60.3" y="60.61" width="221.47" height="77.23"/></clipPath></defs><title>royal</title><g id="Artwork_6" data-name="Artwork 6"><g class="cls-2"><g class="cls-2"><path class="cls-3" d="M241.68,134.68a3.16,3.16,0,1,0,6.31,0V112.85a3.16,3.16,0,0,0-6.31,0Z"/><path class="cls-3" d="M157.83,131.73a2.89,2.89,0,0,1,0,5.78H147.12a1.72,1.72,0,0,1-1.71-1.71V113.33a3.07,3.07,0,0,1,6.14,0v18a.34.34,0,0,0,.34.34Z"/><path class="cls-3" d="M225,112.34h0a4.06,4.06,0,0,0-7.54,1.88v20.7a3,3,0,0,0,6,0V122.3a.18.18,0,0,1,.19-.18.19.19,0,0,1,.15.09l7.55,13.34h0a3.85,3.85,0,0,0,7.21-1.89v-21a2.92,2.92,0,1,0-5.84,0v12.61a.18.18,0,0,1-.18.18.16.16,0,0,1-.15-.09Z"/><path class="cls-3" d="M258.78,112.34h0a4.06,4.06,0,0,0-7.54,1.88v20.7a3,3,0,0,0,6,0V122.3a.18.18,0,0,1,.18-.18.19.19,0,0,1,.15.09l7.55,13.34h0a3.86,3.86,0,0,0,7.22-1.89v-21a2.92,2.92,0,0,0-5.84,0v12.61a.18.18,0,0,1-.34.09Z"/><path class="cls-3" d="M115.49,118.51a.4.4,0,0,0,.28-.12l6.72-7.07a2.85,2.85,0,0,1,4.17,3.89l-8.16,9.47-.13,9.95a2.88,2.88,0,0,1-5.76,0l-.13-9.95-8.16-9.47a2.85,2.85,0,0,1,4.17-3.89l6.71,7.07a.45.45,0,0,0,.29.12"/><path class="cls-3" d="M106,124a13.57,13.57,0,1,1-13.56-13.56A13.57,13.57,0,0,1,106,124m-13.56-7.3a7.3,7.3,0,1,0,7.29,7.3,7.3,7.3,0,0,0-7.29-7.3"/><path class="cls-3" d="M215.38,132.82a2.92,2.92,0,1,1-4.67,3.52l-3.16-4.2h-7.43l0,2.41a3.1,3.1,0,0,1-3.12,3,3,3,0,0,1-3-3V112.77c0-1.71,1.39-2.57,3.1-2.57a3.08,3.08,0,0,1,2.36,1.08Zm-15.26-11.08v4.47h2.8a.25.25,0,0,0,.25-.25.21.21,0,0,0,0-.14Z"/><path class="cls-3" d="M136.2,111.28a3.06,3.06,0,0,1,2.35-1.08,3.1,3.1,0,0,1,3.11,3.1v21.25a3,3,0,0,1-3,3,3.11,3.11,0,0,1-3.13-3l0-2.41h-7.44l-3.15,4.2a2.93,2.93,0,0,1-5.27-1.75,2.86,2.86,0,0,1,.6-1.77Zm-3.66,14.54a.23.23,0,0,0,0,.14.25.25,0,0,0,.25.25h2.8v-4.47Z"/><path class="cls-3" d="M168.79,124.11a13.4,13.4,0,0,0,12.76,13.48,13.89,13.89,0,0,0,10.17-4.34,2.88,2.88,0,0,0-2.21-4.73,2.89,2.89,0,0,0-1.32.32l-2.36,1.59a7.1,7.1,0,0,1-3.85,1.14,7.47,7.47,0,0,1,0-14.92,7.09,7.09,0,0,1,3.85,1.13l2.28,1.52a3,3,0,0,0,1.32.32,2.88,2.88,0,0,0,2.21-4.73,12.08,12.08,0,0,0-9.37-4.26,13.48,13.48,0,0,0-13.48,13.48"/><path class="cls-3" d="M60.3,119.68c0-2.6.58-5,2.46-6.78a8.54,8.54,0,0,1,6.61-2.35,8.9,8.9,0,0,1,8.73,9.13,7.8,7.8,0,0,1-3.87,6.85l4.42,7a2.71,2.71,0,0,1,.31,1.27A2.91,2.91,0,0,1,76,137.58a2.72,2.72,0,0,1-1.89-.75l-7.07-9.61a.42.42,0,0,0-.15,0,.32.32,0,0,0-.32.32l-.1,7.2a2.88,2.88,0,0,1-5.76,0Zm8.76-3.06a2.94,2.94,0,1,0,3.17,2.93,3.06,3.06,0,0,0-3.17-2.93"/><path class="cls-3" d="M278.59,109.62a3.18,3.18,0,1,1-3.18,3.18,3.19,3.19,0,0,1,3.18-3.18m0,5.59a2.41,2.41,0,1,0-2.41-2.41,2.4,2.4,0,0,0,2.41,2.41m-.5-1c0,.24-.09.41-.39.41s-.39-.13-.39-.41V111.5c0-.2.07-.36.39-.36h1c.7,0,1.29.2,1.29,1a.84.84,0,0,1-.86.95l.61,1a.49.49,0,0,1,0,.18c0,.19-.12.3-.4.3s-.37-.2-.48-.41l-.54-1h-.26Zm.64-1.64c.29,0,.46-.07.46-.38s-.17-.39-.46-.39h-.64v.77Z"/><path class="cls-3" d="M142.21,100.17a2.38,2.38,0,0,1-1.42-4.28c6.3-4.71,16-7.53,25.8-7.53h0c9.81,0,19.44,2.82,25.74,7.53a2.38,2.38,0,0,1-2.85,3.8c-4.25-3.18-12.5-6.58-22.89-6.58h0c-10.43,0-18.7,3.4-23,6.59a2.33,2.33,0,0,1-1.42.47"/><path class="cls-3" d="M144.38,104.23a1.63,1.63,0,0,1-1-2.88c5.45-4.48,14.14-7.15,23.25-7.15s17.72,2.67,23.18,7.15a1.62,1.62,0,0,1-2.06,2.5c-4.9-4-12.79-6.41-21.12-6.41s-16.37,2.46-21.18,6.42a1.62,1.62,0,0,1-1,.37"/><path class="cls-3" d="M131.66,70.05a5.35,5.35,0,0,0-2.75.76,5.44,5.44,0,0,0-2.51,3.33,5.38,5.38,0,0,0,.59,4.13,5.49,5.49,0,0,0,4.66,2.67h0a5.44,5.44,0,0,0,4.67-8.21,5.47,5.47,0,0,0-4.7-2.68"/><path class="cls-3" d="M166.57,74.24A5.45,5.45,0,1,0,172,79.68a5.45,5.45,0,0,0-5.44-5.44"/><path class="cls-3" d="M166.57,60.61A5.45,5.45,0,1,0,172,66.05a5.45,5.45,0,0,0-5.44-5.44"/><path class="cls-3" d="M152.08,76.14A5.43,5.43,0,0,0,146.83,83a5.48,5.48,0,0,0,5.23,4h.12a5.1,5.1,0,0,0,1.34-.19,5.44,5.44,0,0,0-1.44-10.69"/><path class="cls-3" d="M138.6,81.79A5.44,5.44,0,0,0,133.93,90a5.5,5.5,0,0,0,4.67,2.67h0a5.47,5.47,0,0,0,2.76-.75,5.46,5.46,0,0,0,1.92-7.46,5.49,5.49,0,0,0-4.71-2.67"/><path class="cls-3" d="M182.48,76.33a5.35,5.35,0,0,0-1.43-.19,5.44,5.44,0,1,0,1.43.19"/><path class="cls-3" d="M186.08,63.18a5.37,5.37,0,0,0-1.44-.19,5.44,5.44,0,0,0-1.43,10.69,5.36,5.36,0,0,0,1.43.2,5.45,5.45,0,0,0,1.44-10.7"/><path class="cls-3" d="M197.28,82.54a5.45,5.45,0,0,0-7.45,1.92,5.45,5.45,0,0,0,1.91,7.46A5.47,5.47,0,0,0,199.2,90a5.46,5.46,0,0,0-1.92-7.46"/><path class="cls-3" d="M206.72,74.14a5.45,5.45,0,0,0-5.26-4.09,5.47,5.47,0,0,0-4.69,2.68,5.44,5.44,0,0,0,4.68,8.21,5.43,5.43,0,0,0,5.27-6.8"/><path class="cls-3" d="M148.49,73.88a5.38,5.38,0,0,0,1.44-.2A5.44,5.44,0,0,0,148.49,63a5.37,5.37,0,0,0-1.44.19,5.44,5.44,0,0,0,1.41,10.69Z"/></g></g></g></svg>