<svg id="Layer_1" data-name="Layer 1" xmlns="http://www.w3.org/2000/svg" xmlns:xlink="http://www.w3.org/1999/xlink" viewBox="0 0 363.1 202.56"><defs><style>.cls-1{fill:none;}.cls-2{clip-path:url(#clip-path);}.cls-3{clip-path:url(#clip-path-2);}.cls-4{clip-path:url(#clip-path-4);}.cls-5{fill:#189739;}</style><clipPath id="clip-path"><rect class="cls-1" x="-760.97" y="-942" width="1920" height="485.52"/></clipPath><clipPath id="clip-path-2"><rect class="cls-1" x="50.09" y="42.27" width="268.52" height="122.25"/></clipPath><clipPath id="clip-path-4"><rect class="cls-1" x="50.53" y="49.3" width="268.52" height="108.66"/></clipPath></defs><title>ovo</title><g id="Client_-_Ovo" data-name="Client - Ovo"><g class="cls-3"><g class="cls-3"><g class="cls-4"><g class="cls-4"><path class="cls-5" d="M50.53,72c3.58-.88,7.17-1.71,10.74-2.66q16.63-4.39,33.27-8.87L133.42,50c.9-.24,1.81-.45,2.91-.71q4.26,15.9,8.44,31.45A77.31,77.31,0,0,0,135.64,82a68.34,68.34,0,0,0-8.23,3.17c.31-.92.67-2,1.17-3.43h-3.13c-3.86,0-7.71.06-11.57,0a1.93,1.93,0,0,0-2.25,1.69c-2,7.06-4.06,14.1-6.1,21.14-.09.32-.22.63-.51,1.46-2-6.88-3.85-13.25-5.69-19.61C98,81.7,98,81.69,93.23,81.7H82.1a2.07,2.07,0,0,0-.5.19c.38,1.12.76,2.23,1.2,3.5-11.17-5.63-16.33-5.78-29-.83-.82-3-1.61-6-2.46-9a12.73,12.73,0,0,0-.85-1.89Z"/><path class="cls-5" d="M319.05,93.79a12.58,12.58,0,0,0-1.11,2q-5.58,15.82-11.11,31.66c-.12.35-.25.68-.36,1-.49,1.56-1.54,2.38-3.14,1.9-1.81-.55-1.64-2.07-1.17-3.43.88-2.61,2-5.15,2.84-7.77a5,5,0,0,0,0-2.86c-2.26-6.75-4.63-13.46-6.95-20.19-.4-1.17-.79-2.34-1.14-3.53s-.06-2.56,1.3-2.73a4.55,4.55,0,0,1,2.9,1.14c.53.43.61,1.44.87,2.19,1.95,5.83,3.9,11.66,6,18L312.44,98c.57-1.72,1.12-3.45,1.69-5.18,1.14-3.43,1.75-3.75,4.92-2.53Z"/><path class="cls-5" d="M156,122.71,159.32,135,73.61,158l-8.73-31.91c6.07.24,11.74-.57,16.83-3.71s8.4-7.87,9.84-14.49l4.82,12.38c2,5.11,2,5.12,7.35,5.1,2.61,0,5.84.85,7.67-.37s2.22-4.51,3.19-6.93c1.29-3.22,2.53-6.48,4-10.21,1.91,8.61,6.85,14.12,14.73,16.76A28.49,28.49,0,0,0,156,122.71"/><path class="cls-5" d="M288.47,115.09c-4.72,6.29-12.85,4.09-16.23.27-4.76-5.38-5.16-15.09-.9-20.92,3.2-4.38,10.77-7.37,17-1.53l.17-1.23c.21-1.52,1.29-2.34,2.58-2a3.68,3.68,0,0,1,2.1,2.23,13.75,13.75,0,0,1,.1,3.91c0,6.91,0,13.82,0,20.73,0,5.36-1.6,10-6.73,12.51-5.37,2.6-10.62,1.59-15.59-1.37-.42-.26-1-.62-1.08-1-.24-.9-.62-2.12-.21-2.72s1.71-.74,2.6-.68c.72.06,1.4.72,2.08,1.13,3.37,2,6.94,3,10.51.81s3.65-5.93,3.63-10.13M273.14,104.2l-.54.23c.9,2.54,1.43,5.31,2.8,7.57,2.23,3.69,7.53,4,10.6,1,4-3.94,4-13.61-.22-17.38-2.19-2-4.82-2.67-6.76-1.74-4.52,2.16-5.78,5.86-5.88,10.35"/><path class="cls-5" d="M172.91,106.23c.18,7.49,7.31,11.12,14,7.37a30.94,30.94,0,0,1,2.91-1.91c.72-.3,2.06-.39,2.43,0s.24,1.68.22,2.56c0,.23-.3.49-.5.69-4.66,4.76-16,6.63-21.25-1-3.86-5.56-3.44-14.8.85-20,5-6.16,15.82-5.79,19.71,1.78a24.36,24.36,0,0,1,2.09,7.46c.37,2.36-.41,3-2.81,3-5.1,0-10.19,0-15.28,0h-2.33m0-3.77h15.54c.23-4.76-2.79-8.43-7-8.68-5.11-.29-8.08,2.69-8.52,8.68"/><path class="cls-5" d="M228.82,106.23c.52,7.63,7.36,11.07,14.05,7.35,1-.56,1.85-1.45,2.89-1.92.68-.3,2-.44,2.28-.07a4.66,4.66,0,0,1,.46,2.54c0,.28-.36.62-.61.87-5.33,5.24-16,5.81-20.81-.43-4.32-5.62-4.12-15.4.52-20.73,3.3-3.79,7.56-4.86,12.24-3.86,4.5,1,7.2,4.2,8.66,8.43a21.63,21.63,0,0,1,.85,4.48c.26,2.08-.95,3.33-3.15,3.34-5.09,0-10.19,0-15.28,0h-2.1m15.57-3.77c.17-5.11-3-8.68-7.66-8.7-4.8,0-7.85,3.39-7.75,8.7Z"/><path class="cls-5" d="M202.15,93.23c2.72-2.81,5.67-3.94,9.14-3.54,4.75.55,8.29,3.67,8.6,8.42.39,6.15.25,12.35.28,18.53a2.21,2.21,0,0,1-2.45,2.45c-1.78,0-2.38-1.17-2.39-2.75,0-4.88,0-9.75,0-14.62,0-6.53-3.88-9.25-10-7.13a4.42,4.42,0,0,0-3.11,4.32c-.17,5.74-.17,11.48-.17,17.23,0,1.9-.92,2.62-2.68,2.55-1.36,0-2.14-.64-2.14-2.12,0-8.15,0-16.3,0-24.44a2.23,2.23,0,0,1,2.39-2.38,2.08,2.08,0,0,1,2.41,2,14.07,14.07,0,0,0,.13,1.43"/><path class="cls-5" d="M75.89,103.8c0,5-3.31,8.53-8.17,8.52S59.6,109,59.56,104c0-5.1,3.19-8.57,8-8.64s8.26,3.42,8.29,8.41"/><path class="cls-5" d="M142.32,95.85c5.54.13,8.46,3.18,8.29,8.65a7.89,7.89,0,0,1-8.43,7.82c-4.74-.09-8.05-3.84-7.88-8.95.17-4.77,3.2-7.64,8-7.52"/><path class="cls-5" d="M258.62,93.62a32.77,32.77,0,0,1,4.67-3.71,2.51,2.51,0,0,1,3.8,1.3c.64,1.63-.24,2.78-2.39,3.38-4.88,1.38-6.68,3.7-6.7,8.74,0,4.21,0,8.42,0,12.63,0,1.71-.36,3.13-2.42,3.13s-2.41-1.46-2.41-3.15q0-11.32,0-22.65c0-1.78,0-3.57,2.36-3.65s2.45,1.79,2.55,3.5l.09.93.44-.45"/></g></g></g></g></g></svg>