<svg id="Layer_1" data-name="Layer 1" xmlns="http://www.w3.org/2000/svg" xmlns:xlink="http://www.w3.org/1999/xlink" viewBox="0 0 363.1 202.56"><defs><style>.cls-1{fill:none;}.cls-2{clip-path:url(#clip-path);}.cls-3{fill:#1d1d1b;}</style><clipPath id="clip-path"><rect class="cls-1" x="62.29" y="80" width="215.65" height="39.06"/></clipPath></defs><title>scimed</title><g id="Artwork_5" data-name="Artwork 5"><g class="cls-2"><g class="cls-2"><path class="cls-3" d="M79.89,119q-10.64,0-17.6-6.22l5.79-6.92a19.15,19.15,0,0,0,12.18,4.5q4.29,0,4.29-2.57v-.11a2.28,2.28,0,0,0-1.28-2,19.65,19.65,0,0,0-5-1.63,57.12,57.12,0,0,1-5.66-1.59,21.87,21.87,0,0,1-4.34-2.09A8.31,8.31,0,0,1,65.08,97a10.57,10.57,0,0,1-1-4.81v-.1A10.85,10.85,0,0,1,68,83.46q3.94-3.34,10.6-3.35,9.23,0,15.45,5l-5.2,7.35a18.22,18.22,0,0,0-10.52-3.71,4.91,4.91,0,0,0-2.79.67,2,2,0,0,0-1,1.75v.11a2.29,2.29,0,0,0,1.32,2,21.65,21.65,0,0,0,5.18,1.61q7,1.55,10.51,4.13a8.78,8.78,0,0,1,3.49,7.56v.11a10.82,10.82,0,0,1-4.13,9Q86.8,119,79.89,119"/><path class="cls-3" d="M118.19,119.06A19.11,19.11,0,0,1,98.82,99.64v-.11a18.86,18.86,0,0,1,5.66-13.9A19.27,19.27,0,0,1,118.62,80q10.3,0,15.94,7.83l-7.84,6.07q-3.54-4.41-8.21-4.4a8.2,8.2,0,0,0-6.41,2.87,10.22,10.22,0,0,0-2.55,7v.11a10.45,10.45,0,0,0,2.52,7.16,8.22,8.22,0,0,0,6.44,2.87,8.93,8.93,0,0,0,4.67-1.15A15.31,15.31,0,0,0,127,105l7.83,5.58a21.9,21.9,0,0,1-6.86,6.25,19.48,19.48,0,0,1-9.77,2.23"/><rect class="cls-3" x="139.49" y="80.75" width="10.46" height="37.56"/><polygon class="cls-3" points="170.16 118.31 170.16 80.75 181.16 80.75 190.12 95.29 199.07 80.75 210.07 80.75 210.07 118.31 199.72 118.31 199.72 96.74 190.12 111.44 189.9 111.44 180.35 96.85 180.35 118.31 170.16 118.31"/><polygon class="cls-3" points="216.73 118.31 216.73 80.75 243.45 80.75 246.93 89.6 227.03 89.6 227.03 95.29 240.08 95.29 240.08 103.5 227.03 103.5 227.03 109.45 247.2 109.45 243.72 118.31 216.73 118.31"/><path class="cls-3" d="M272.21,85.72q-5.71-5.19-15.71-5.18h-7L253,89.87h3.69a11,11,0,0,1,7.62,2.55,9,9,0,0,1,2.85,7v.11a9,9,0,0,1-2.85,7.09,11.09,11.09,0,0,1-7.62,2.52H253l-3.48,9.33h6.79q10,0,15.84-5.34a17.87,17.87,0,0,0,5.81-13.76v-.11a17.46,17.46,0,0,0-5.73-13.59"/><path class="cls-3" d="M165.69,112.55a5.89,5.89,0,1,1-5.88-5.89,5.89,5.89,0,0,1,5.88,5.89"/></g></g></g></svg>