<svg id="Layer_1" data-name="Layer 1" xmlns="http://www.w3.org/2000/svg" xmlns:xlink="http://www.w3.org/1999/xlink" viewBox="0 0 363.1 202.56"><defs><style>.cls-1{fill:none;}.cls-2{clip-path:url(#clip-path);}.cls-3{fill:#a27e2d;}.cls-4{fill:#016139;}</style><clipPath id="clip-path"><rect class="cls-1" x="78.42" y="42.89" width="193.11" height="107.43"/></clipPath></defs><title>rolex</title><g id="Artwork_7" data-name="Artwork 7"><g class="cls-2"><g class="cls-2"><path class="cls-3" d="M151.78,61.78a1.53,1.53,0,0,0,.85-.17l9.78,33.05c1,3.71,6.41,6.58,13,6.58,6.41,0,11.81-2.87,13-6.58l9.78-33c.17,0,.51.17.68.17a3.38,3.38,0,1,0-3.38-3.38,3.35,3.35,0,0,0,2,3l-11.3,24.12L187.71,53a3.38,3.38,0,1,0-3.38-3.38,3.26,3.26,0,0,0,2.53,3.21l-7.42,31.87-3.71-35.08a3.29,3.29,0,0,0,2.87-3.37,3.38,3.38,0,0,0-6.75,0,3.44,3.44,0,0,0,2.87,3.37l-3.54,35.08L163.59,53a3.31,3.31,0,0,0,2.53-3.38A3.38,3.38,0,1,0,162.75,53l1.85,32.55L153.3,61.44a3.2,3.2,0,0,0,1.86-3,3.38,3.38,0,0,0-6.75,0,3.19,3.19,0,0,0,3.37,3.38M175.23,92c5.9,0,10.79,1.51,10.79,3.37s-4.72,3.37-10.79,3.37c-5.91,0-10.8-1.52-10.8-3.37S169.32,92,175.23,92"/><path class="cls-4" d="M137.45,115.24a17.54,17.54,0,1,0,17.71,17.54,17.68,17.68,0,0,0-17.71-17.54m7.25,27.66a8.33,8.33,0,0,1-2,2.19,7.53,7.53,0,0,1-4.39,1.69h-2a7.53,7.53,0,0,1-4.39-1.69,8.17,8.17,0,0,1-2-2.19,17.12,17.12,0,0,1-3-10.12,17.39,17.39,0,0,1,2.7-9.61,7.58,7.58,0,0,1,4.22-3.71.49.49,0,0,0,.33-.17,1,1,0,0,1,.68-.17,9.58,9.58,0,0,1,5.06,0c.17,0,.5.17.67.17a.53.53,0,0,1,.34.17,9.88,9.88,0,0,1,4.22,3.71,18.41,18.41,0,0,1-.34,19.73"/><path class="cls-4" d="M190.41,136.32h-2.53v4.89a5.43,5.43,0,0,1-5.4,5.4H172V119h4.72v-2.53h-17V119h4.72v27.83h-4.72v2.36h30.7V136.32Z"/><path class="cls-4" d="M227.85,116.42H195.63V119h4.72v27.83h-4.72v2.36h32.55V137.33h-2.53v3.88a5.43,5.43,0,0,1-5.39,5.4H207.94V132.78h3.88a4.1,4.1,0,0,1,4.05,4.05v2h2.19V125.19h-2.19v1.69a4,4,0,0,1-4.05,3.88h-4V119h12.48a5.33,5.33,0,0,1,5.39,5.4v3.37h2.53v-11.3Z"/><path class="cls-4" d="M270.35,146.78c-2.36,0-2.87-.85-4.73-2.87l-10.79-13.49,7.25-8.6c1.86-2.2,2.36-3,4.89-3h1.86v-2.36H255.5v2.36h2.87a1.15,1.15,0,0,1,1.18,1.18,1,1,0,0,1-.17.68L253,128.23,247.92,122l-1-1.35a1.27,1.27,0,0,1-.33-.68,1.15,1.15,0,0,1,1.18-1.18h2.86v-2.36H234.09v2.36h.84c2.19.17,2.7.84,4.39,2.7l9.61,12-8.6,10.28c-1.86,2.19-2.53,3-4.9,3h-2v2.36h14v-2.36h-3.54a1.15,1.15,0,0,1-1.18-1.18c0-.34.17-.51.17-.68l7.58-9.11,6.41,7.93,1,1.18a1.07,1.07,0,0,1,.16.68,1.15,1.15,0,0,1-1.18,1.18h-3v2.36h17.71v-2.36Z"/><path class="cls-4" d="M114,146.61l-2.2-6.24c-1-2.87-1.68-4.05-3.37-5.57a8.54,8.54,0,0,0-3.54-1.68,8.4,8.4,0,0,0-1.35-16.7H78.42v2.36H83v27.83H78.42v2.53h17v-2.53H90.73V133.28h4.72a8.33,8.33,0,0,1,3,.51,9.67,9.67,0,0,1,2.36.85,5.68,5.68,0,0,1,2.36,2.53l.51,1c1.35,2.69,2.19,6.24,3.2,10.79h10.63v-2.53H114ZM98.66,130.76H90.73v-12h7.93c3.37.17,6.24,2.53,6.24,5.9s-2.7,5.91-6.24,6.08"/></g></g></g></svg>