<svg id="Layer_1" data-name="Layer 1" xmlns="http://www.w3.org/2000/svg" xmlns:xlink="http://www.w3.org/1999/xlink" viewBox="0 0 363.1 202.56"><defs><style>.cls-1{fill:none;}.cls-2{clip-path:url(#clip-path);}.cls-3{clip-path:url(#clip-path-3);}.cls-4{fill:#5f2961;}.cls-5{fill:#75787d;}.cls-6{fill:#75787c;}.cls-7{fill:#74777c;}.cls-8{fill:#74777b;}</style><clipPath id="clip-path"><rect class="cls-1" x="46.42" y="59.51" width="261.22" height="82.53"/></clipPath><clipPath id="clip-path-3"><rect class="cls-1" x="46.55" y="59.63" width="261.22" height="82.53"/></clipPath></defs><title>care</title><g id="Client_CQC" data-name="Client CQC"><g class="cls-2"><g class="cls-2"><g class="cls-3"><g class="cls-3"><path class="cls-4" d="M86.92,59.63c1.14.21,2.3.36,3.43.63a27,27,0,0,1,5.14,1.4c.62.28,1.32.4,1.93.69,1.35.63,2.68,1.3,4,2a23.24,23.24,0,0,1,2.17,1.27c.94.62,1.85,1.28,2.73,2,1.05.83,2.08,1.67,3.05,2.57a22.76,22.76,0,0,1,2,2.18c.88,1.06,1.73,2.14,2.55,3.25a17.59,17.59,0,0,1,1.16,1.86c.71,1.27,1.41,2.55,2.08,3.85a12.46,12.46,0,0,1,.71,1.78c.45,1.38.87,2.77,1.3,4.15a30.78,30.78,0,0,1,1.13,10.23,40.21,40.21,0,0,1-.41,5.38,39.19,39.19,0,0,1-1.2,4.62,17.7,17.7,0,0,1-.72,2.24c-.68,1.55-1.34,3.13-2.17,4.61a43.23,43.23,0,0,1-3,4.68,31.77,31.77,0,0,1-3,3.44c-1.1,1.12-2.29,2.15-3.46,3.19-.43.37-.93.67-1.5,1.07a17.85,17.85,0,0,1,2.36.34,43,43,0,0,1,4.29,1.4,23,23,0,0,1,3.39,1.72A21.05,21.05,0,0,1,117.2,132a.4.4,0,0,1-.08.35c-1.31,1.13-2.64,2.23-4,3.35-1.16,1-2.29,2-3.45,3s-2.08,1.64-3.1,2.48c-.35.29-.65.65-1,1h-.38a1.28,1.28,0,0,0-.14-.34,24.72,24.72,0,0,0-4.36-3.88A23,23,0,0,0,95,135.15a24.46,24.46,0,0,0-3.34-1c-1.78-.31-3.58-.53-5.38-.67-2.86-.22-5.75.13-8.58-.53-.81-.18-1.64-.29-2.44-.49-1.53-.4-3.08-.75-4.56-1.3a46.83,46.83,0,0,1-4.57-2.08,26.7,26.7,0,0,1-3.24-1.87c-1.19-.81-2.32-1.72-3.43-2.64a27,27,0,0,1-2.56-2.34,35.13,35.13,0,0,1-2.41-2.89c-.91-1.2-1.79-2.43-2.62-3.68a21.45,21.45,0,0,1-1.21-2.27c-.52-1-1-2.06-1.49-3.11a14.89,14.89,0,0,1-.65-1.88c-.48-1.62-1-3.24-1.37-4.88-.29-1.17-.43-2.37-.64-3.55V93c.11-.39.26-.77.34-1.17.2-1.07.3-2.16.56-3.22.42-1.71.91-3.41,1.41-5.1a8.91,8.91,0,0,1,.66-1.74c.85-1.63,1.74-3.24,2.63-4.85a10.56,10.56,0,0,1,.76-1.24c.58-.78,1.16-1.56,1.79-2.31.81-1,1.64-1.91,2.52-2.8s1.65-1.57,2.51-2.3a27.86,27.86,0,0,1,2.53-2c1.07-.72,2.19-1.37,3.32-2,1.29-.69,2.61-1.33,3.93-1.95a14.24,14.24,0,0,1,2-.7c1.64-.48,3.27-1,4.92-1.37,1.23-.3,2.5-.44,3.75-.65ZM83.37,124l.06.18,4.56-.53a7,7,0,0,0,1.38-.21c1.54-.48,3.09-1,4.6-1.52a14.57,14.57,0,0,0,2.86-1.32,45.82,45.82,0,0,0,4.24-3.08,24.4,24.4,0,0,0,3-2.86,27,27,0,0,0,2.72-3.76,37,37,0,0,0,2.18-4.53,20.88,20.88,0,0,0,1.12-3.63,35,35,0,0,0,.63-4.56,25,25,0,0,0-1-8.86,31.14,31.14,0,0,0-1.33-3.88,28.24,28.24,0,0,0-2-3.71,26.43,26.43,0,0,0-2.48-3.38,27.4,27.4,0,0,0-3.14-2.95,37.25,37.25,0,0,0-3.64-2.57c-.85-.54-1.83-.87-2.72-1.36a21.21,21.21,0,0,0-5.69-1.86,27.92,27.92,0,0,0-3.3-.49c-.71-.07-1.43,0-2.15,0l0,.16a27.07,27.07,0,0,1,19.34,16.51A21.93,21.93,0,0,0,89.89,75.59a21.55,21.55,0,0,0-16.55,1.5A21.85,21.85,0,0,0,64.21,107a20.66,20.66,0,0,0,17,11.34c9.1.86,16.16-3,21.23-10.63a2,2,0,0,1-.17.81c-.46.86-.92,1.72-1.44,2.55A22.89,22.89,0,0,1,99,113.79c-1,1.22-2.1,2.38-3.23,3.5a20,20,0,0,1-2.43,1.95A23.58,23.58,0,0,1,90.5,121c-1.41.73-2.86,1.39-4.33,2a24.86,24.86,0,0,1-2.46.71c-.12,0-.22.15-.34.23"/><path class="cls-5" d="M307.77,75.94c-.39.91-.77,1.83-1.16,2.74-.46,1.11-.93,2.21-1.37,3.33-.27.65-.5,1.33-.75,2-.78,2-1.55,4.08-2.34,6.12-.5,1.29-1,2.59-1.55,3.86a18.46,18.46,0,0,1-2.82,5.36,5.74,5.74,0,0,1-3.4,1.93c-.59.09-1.19.22-1.79.26a9.43,9.43,0,0,1-4.36-1c-.12-.06-.27-.35-.22-.46.37-1,.78-2,1.21-3a.43.43,0,0,1,.39-.12,5.55,5.55,0,0,0,3.76.31A2.67,2.67,0,0,0,295,95.88,16.15,16.15,0,0,0,296,93.56a1.16,1.16,0,0,0,0-.78c-.69-1.71-1.42-3.4-2.13-5.09l-1.58-3.78c-.76-1.81-1.51-3.63-2.28-5.45-.39-.93-.8-1.84-1.25-2.85H294l4.63,12.08a2.68,2.68,0,0,0,.28-.44c.46-1.34.9-2.69,1.38-4s1-2.63,1.46-4,.86-2.42,1.32-3.71h4.75Z"/><path class="cls-6" d="M218.92,91.41c.82.31,1.71.63,2.57,1a4.18,4.18,0,0,1,1,.68c.09.07.12.4,0,.46-1.27,1.09-2.57,2.16-3.87,3.23,0,0-.08,0-.11,0a8.06,8.06,0,0,0-3.19-2.27,10.79,10.79,0,0,0-3.89-.62,13,13,0,0,1-4.89-1.06,10.17,10.17,0,0,1-4.3-3.5A12,12,0,0,1,200,82.92a13.69,13.69,0,0,1-.2-2,20.11,20.11,0,0,1,.63-4.11,11.08,11.08,0,0,1,3.41-5.33,11.86,11.86,0,0,1,4.11-2.2,12.43,12.43,0,0,1,6.26-.23,10.35,10.35,0,0,1,5.95,3.42,12.88,12.88,0,0,1,2.68,5.58A13.37,13.37,0,0,1,223,83.4a11.9,11.9,0,0,1-2.81,6.52c-.46.49-.89,1-1.3,1.49m-1-9.86c0-3.25-.61-5.42-3-7.36A5.77,5.77,0,0,0,210.93,73a7,7,0,0,0-2.22.72,5.42,5.42,0,0,0-2.9,3.37,13.08,13.08,0,0,0-.73,3.49c-.18,2.62.21,5.09,2.15,7.13a6.5,6.5,0,0,0,4.05,1.89A6.21,6.21,0,0,0,214.1,89a3.34,3.34,0,0,0,1.27-.75,7.77,7.77,0,0,0,2.3-4.17,18.6,18.6,0,0,0,.29-2.57"/><path class="cls-6" d="M148,87.35l2.11,3.42a10.19,10.19,0,0,1-4.54,2.34c-1.06.23-2.14.37-3.21.55a4.55,4.55,0,0,1-1.35.17,18.27,18.27,0,0,1-4.9-1.14,12.69,12.69,0,0,1-3.15-2.06,9.48,9.48,0,0,1-1.9-2.57,16.24,16.24,0,0,1-1.39-3.56,14.48,14.48,0,0,1-.26-3.23,12,12,0,0,1,.7-4.4,12.65,12.65,0,0,1,2.42-4.2,11.91,11.91,0,0,1,5.55-3.34,14.65,14.65,0,0,1,7-.23,9.66,9.66,0,0,1,4.53,2,4.18,4.18,0,0,1,.39.43l-2.16,3.36a9.32,9.32,0,0,0-7.42-1.66,6.43,6.43,0,0,0-3.8,2.08,8.33,8.33,0,0,0-1.86,3.54,9.47,9.47,0,0,0-.18,3.81,7.73,7.73,0,0,0,2.76,5.18,6.92,6.92,0,0,0,4,1.41,11,11,0,0,0,4.74-.89A17.92,17.92,0,0,0,148,87.35"/><path class="cls-6" d="M200,124c-1,0-1.87,0-2.76,0-.37,0-.4-.19-.4-.48,0-.75,0-1.49,0-2.23V106.54h2.74c0,.38,0,.72.07,1.14.53-.25,1-.44,1.48-.7a7.31,7.31,0,0,1,5.72-.7,6.48,6.48,0,0,1,2,1.32c.26.2.39.34.74.16a18,18,0,0,1,3.21-1.44,12.29,12.29,0,0,1,3.27-.26,4.7,4.7,0,0,1,3.61,1.67,5.25,5.25,0,0,1,1.17,2.08,15.69,15.69,0,0,1,.45,3.55c.05,3.5,0,7,0,10.59h-3.17v-.65c0-3.59,0-7.17,0-10.76a6,6,0,0,0-.67-2.71c-.67-1.17-1.94-1.24-3.18-1.12a8.74,8.74,0,0,0-3.58,1.2.6.6,0,0,0-.25.49c0,1.18.15,2.36.16,3.55,0,3.14,0,6.28,0,9.42,0,.54-.16.7-.68.67-.8,0-1.61,0-2.47,0v-.75c0-3.72,0-7.43,0-11.15a3.23,3.23,0,0,0-.62-2.44,3,3,0,0,0-1.3-.86,7.22,7.22,0,0,0-5.34,1.13c-.14.09-.2.44-.2.67,0,4.2,0,8.41,0,12.61Z"/><path class="cls-5" d="M182.84,124h-3v-.73c0-3.46,0-6.92,0-10.38a20.46,20.46,0,0,0-.28-2.17,2,2,0,0,0-1.32-1.75,6.61,6.61,0,0,0-2.31-.21A8,8,0,0,0,172.5,110a.86.86,0,0,0-.24.63c0,3.91,0,7.81,0,11.72V124h-3.14V106.55h2.75c0,.36,0,.71.06,1.14.58-.26,1.11-.47,1.62-.75a7.41,7.41,0,0,1,5.6-.68,3.34,3.34,0,0,1,1.94,1.23c.41.58.92.3,1.38.06s.9-.57,1.39-.78a8.56,8.56,0,0,1,5.63-.56,4.74,4.74,0,0,1,3.7,3.64,17.13,17.13,0,0,1,.4,3.35c0,3.4,0,6.79,0,10.19,0,.48-.11.68-.63.65-.82,0-1.65,0-2.53,0v-.76c0-3.27,0-6.53,0-9.8a13,13,0,0,0-.12-2.16c-.26-1.59-1-2.53-2.71-2.63a8.89,8.89,0,0,0-4.72,1.28.55.55,0,0,0-.18.42c0,3.22.09,6.44.13,9.67,0,1.29,0,2.58,0,3.94"/><path class="cls-6" d="M235.91,75.59h4.81V93.1h-4.11c0-.34,0-.69-.06-1.07a10.64,10.64,0,0,1-3.88,1.56,7.18,7.18,0,0,1-4.31-.67,4.83,4.83,0,0,1-2.43-2.77,15.51,15.51,0,0,1-.77-4c-.1-3.4,0-6.8,0-10.19,0-.11,0-.21,0-.43h1.63c.89,0,1.78,0,2.67,0,.51,0,.71.15.7.69,0,2.69,0,5.39,0,8.08,0,1.14.08,2.29.15,3.43s1.09,1.64,2.08,1.78a5.79,5.79,0,0,0,3.31-1c.14-.07.2-.43.21-.66,0-3.84,0-7.68,0-11.52Z"/><path class="cls-5" d="M196.32,86H184.77a3.55,3.55,0,0,0,1.64,3.09c1.81,1.17,3.75,1,5.68.27.62-.21,1.23-.45,1.84-.68.43.84.86,1.64,1.26,2.45s.27.81-.54,1.2a12.74,12.74,0,0,1-8.09,1.15,7.57,7.57,0,0,1-5.13-3.61,8.22,8.22,0,0,1-1.15-3.2c-.08-.53-.2-1.06-.25-1.59a10.39,10.39,0,0,1,.55-4.11,8.38,8.38,0,0,1,3.32-4.5,6.54,6.54,0,0,1,3.24-1.18,10.75,10.75,0,0,1,1.85-.19c2,.23,3.9.73,5.25,2.44A9.8,9.8,0,0,1,196,80.93a15.25,15.25,0,0,1,.36,5m-4.49-3.51a3.36,3.36,0,0,0-2.75-3.74,3.87,3.87,0,0,0-4.27,3.74Z"/><path class="cls-5" d="M162,93.08c0-.36,0-.67-.06-1a8.17,8.17,0,0,1-6.55,1.3,4.72,4.72,0,0,1-3.15-2.31,6.23,6.23,0,0,1-.74-4.29,5.19,5.19,0,0,1,2.56-3.67,8.37,8.37,0,0,1,3.19-1.17l4.39-.54c.26-1.58-.62-2.31-2-2.51a8.38,8.38,0,0,0-4.76.85c-.24.11-.51.18-.85.3l-.89-1.6c-.15-.27-.3-.54-.47-.8-.28-.46-.19-.74.3-1a9.88,9.88,0,0,1,4.33-1.34c.41,0,.81-.17,1.22-.21a9.74,9.74,0,0,1,4,.55,4.7,4.7,0,0,1,3.27,2.86,7.77,7.77,0,0,1,.49,2.36c0,4,0,7.9,0,11.84,0,.13,0,.25,0,.4Zm-.31-8.21c-.73,0-1.41,0-2.08,0a5.74,5.74,0,0,0-3.06.89,2.22,2.22,0,0,0-.85,2.22A1.79,1.79,0,0,0,157,89.64a5,5,0,0,0,4.24-.55.93.93,0,0,0,.41-.56c0-1.21,0-2.41,0-3.66"/><path class="cls-5" d="M257.44,93.11h-4.09c0-.36-.06-.7-.1-1.12a8.17,8.17,0,0,1-6.53,1.41,5,5,0,0,1-3.28-2.34,5.82,5.82,0,0,1-.79-2.85,5.23,5.23,0,0,1,1.81-4.51,8.06,8.06,0,0,1,4-1.76c1.44-.22,2.9-.37,4.39-.55a2,2,0,0,0-1.92-2.53,11.13,11.13,0,0,0-4.4.61,3.49,3.49,0,0,0-.77.39c-.44.26-.68,0-.88-.34-.37-.72-.77-1.42-1.12-2.14a.49.49,0,0,1,.13-.48,11.9,11.9,0,0,1,2.53-1.25,12.87,12.87,0,0,1,4.49-.57,9.06,9.06,0,0,1,4,1.07,4.52,4.52,0,0,1,2.42,3.75c0,3.24.07,6.49.1,9.73,0,1.14,0,2.28,0,3.48m-4.55-8.27a13.35,13.35,0,0,0-3.76.35,3.15,3.15,0,0,0-1.88,1.19,2.12,2.12,0,0,0,1,3.24,5.09,5.09,0,0,0,4.41-.6.69.69,0,0,0,.25-.53c0-1.18,0-2.37,0-3.65"/><path class="cls-7" d="M282.17,70.75v4.81h5.05v4h-5a4.7,4.7,0,0,0-.08.58c0,2.37-.05,4.75,0,7.13a2.17,2.17,0,0,0,1.25,2.18,3.72,3.72,0,0,0,2.33,0,5.7,5.7,0,0,0,.89-.33c.39,1.14.76,2.22,1.15,3.34a5.45,5.45,0,0,1-3.25,1.11,11.94,11.94,0,0,1-3.22-.17,4.71,4.71,0,0,1-3.88-4.82c0-2.74,0-5.48,0-8.22,0-.75-.08-.83-.84-.83H274.4v-4h3V70.75Z"/><path class="cls-5" d="M141.09,124.47a28.41,28.41,0,0,1-3.57-.51,10,10,0,0,1-4.32-2.39,11.69,11.69,0,0,1-2.87-4.33,15,15,0,0,1-.69-8,11.43,11.43,0,0,1,1.6-4.31,10.53,10.53,0,0,1,2.95-3.25A12.69,12.69,0,0,1,138,99.84a14.36,14.36,0,0,1,6.58-.17,9.41,9.41,0,0,1,3.84,1.53c.26.19.44.4.22.74-.36.58-.69,1.17-1.07,1.73a.48.48,0,0,1-.48,0,9.45,9.45,0,0,0-2.56-1.07,9.26,9.26,0,0,0-4.81-.2,8,8,0,0,0-4.87,3,10.6,10.6,0,0,0-1.77,3.71,11.24,11.24,0,0,0-.18,4.89,8.6,8.6,0,0,0,3.69,6.17,7.45,7.45,0,0,0,3,1.15,13.82,13.82,0,0,0,4.16-.09,7.4,7.4,0,0,0,3.39-1.32c.29-.24.66-.3.88.24a13.42,13.42,0,0,0,.88,1.43.51.51,0,0,1,0,.47,8.37,8.37,0,0,1-1.26.88,14.25,14.25,0,0,1-6.52,1.54"/><path class="cls-5" d="M269.11,115.24a21.48,21.48,0,0,1,.37-3,8,8,0,0,1,3.93-5.22,8.6,8.6,0,0,1,6.41-.72,6.75,6.75,0,0,1,4,2.74,10.74,10.74,0,0,1,1.59,3.73,11.52,11.52,0,0,1,.17,4.13,8.77,8.77,0,0,1-2.67,5.47,7.81,7.81,0,0,1-5.71,2,8.16,8.16,0,0,1-3.78-.83,7.8,7.8,0,0,1-3-2.89,10.76,10.76,0,0,1-1.33-5.38m3.06,0c.07.39.18,1,.29,1.57.43,2.26,1.39,4,3.81,4.75a4.54,4.54,0,0,0,3.45-.35c1.76-.86,2.41-2.55,2.7-4.35a9.32,9.32,0,0,0-.23-4.06,5.44,5.44,0,0,0-2.74-3.7,4.7,4.7,0,0,0-6.12,1.66,10.35,10.35,0,0,0-1.16,4.48"/><path class="cls-5" d="M166.64,115.18a11.49,11.49,0,0,1-1.13,4.82,7.32,7.32,0,0,1-2.8,3.14,8.82,8.82,0,0,1-7.29.81,6.6,6.6,0,0,1-3.63-2.64c-2.14-3-2.06-6.27-1.29-9.55a7.46,7.46,0,0,1,4.27-5,8.72,8.72,0,0,1,4.82-.64,7.1,7.1,0,0,1,4.92,2.7,7.93,7.93,0,0,1,1.78,4.19c.07.74.23,1.47.35,2.21m-3.11.25c-.18-1-.29-1.87-.52-2.71a8.11,8.11,0,0,0-.83-1.94,4.62,4.62,0,0,0-1.24-1.33,4.86,4.86,0,0,0-4.22-.62,4.09,4.09,0,0,0-1.48.76,6.27,6.27,0,0,0-2.05,4.11,8.52,8.52,0,0,0,1.06,5.75,4.5,4.5,0,0,0,2,1.83,4.6,4.6,0,0,0,3.57.27,4.39,4.39,0,0,0,2.91-2.73,29,29,0,0,0,.79-3.39"/><path class="cls-5" d="M302.89,124h-3.13v-.79c0-3.77,0-7.55,0-11.33a4.08,4.08,0,0,0-.48-1.92,2.78,2.78,0,0,0-2.45-1.25,8,8,0,0,0-4.64,1.34.9.9,0,0,0-.22.65c0,3.74,0,7.47,0,11.21,0,.69.2,1.65-.16,2s-1.32.12-2,.14c-.25,0-.51,0-.8,0V106.54h2.69c0,.37,0,.7.06,1.1.44-.22.84-.4,1.22-.61a8.16,8.16,0,0,1,6-.8,4.9,4.9,0,0,1,3.41,2.9,7.32,7.32,0,0,1,.55,3.07c0,3.8,0,7.6,0,11.4,0,.12,0,.24,0,.38"/><rect class="cls-7" x="259.9" y="67.34" width="4.66" height="25.76"/><path class="cls-5" d="M180.48,75.54c-.39,1.24-.77,2.46-1.12,3.6a23.09,23.09,0,0,0-3,.27,5.26,5.26,0,0,0-3,2.17c-.11.14-.07.41-.07.62V93.1h-4.86V75.62h4.15v2c2.28-2.06,4.71-3.23,7.84-2.13"/><path class="cls-5" d="M231.67,122.67c.31-.58.61-1.11.87-1.67.17-.34.32-.4.69-.22a9.3,9.3,0,0,0,4.45,1.12,3.22,3.22,0,0,0,2.75-1.42,1.92,1.92,0,0,0-.46-2.79,19.7,19.7,0,0,0-2.35-1.28c-1.49-.74-3.09-1.27-4.3-2.52a4.49,4.49,0,0,1-.86-4.52c1-2.39,3-3.21,5.38-3.34a11.39,11.39,0,0,1,3,.24,23.28,23.28,0,0,1,3,1.16c-.43.82-.77,1.47-1.13,2.14-.81-.28-1.59-.56-2.38-.82-.39-.13-.8-.21-1.2-.31a3.67,3.67,0,0,0-3.6,1.45,1.7,1.7,0,0,0,.47,2.32,23.85,23.85,0,0,0,2.82,1.52,12.52,12.52,0,0,1,3.89,2.22,4.39,4.39,0,0,1,.95,5,5.35,5.35,0,0,1-5.18,3.4,19,19,0,0,1-4-.28,6,6,0,0,1-2.9-1.36"/><path class="cls-5" d="M258.73,107.62c-.37.66-.72,1.28-1.09,2-.42-.15-.85-.26-1.24-.43a6.31,6.31,0,0,0-3.39-.7,3.11,3.11,0,0,0-2.48,1.3,1.81,1.81,0,0,0,.38,2.45,10.34,10.34,0,0,0,3,1.58,10.32,10.32,0,0,1,4.27,2.73,4.18,4.18,0,0,1,.77,3.17,4.9,4.9,0,0,1-2.93,4c-1.94,1-4,.76-6,.46a7,7,0,0,1-3.45-1.49c.28-.54.58-1.07.84-1.62.16-.33.32-.43.68-.27.76.34,1.55.61,2.31.94a4.48,4.48,0,0,0,5-1.35,2.14,2.14,0,0,0,0-1.91,5.08,5.08,0,0,0-2.6-1.92,35.59,35.59,0,0,1-3.67-1.79,4.7,4.7,0,0,1-2-2.67c-.74-2.35,1.09-4.85,3.12-5.57a10.06,10.06,0,0,1,5.54-.2,5.93,5.93,0,0,1,2.86,1.33"/><rect class="cls-7" x="267.18" y="75.61" width="4.78" height="17.48"/><rect class="cls-8" x="225.13" y="106.53" width="3.05" height="17.41"/><rect class="cls-8" x="262.83" y="106.53" width="3.05" height="17.41"/><path class="cls-5" d="M269.55,73.41a2.7,2.7,0,0,1-2.8-2.71,2.9,2.9,0,0,1,2.81-2.81,2.83,2.83,0,0,1,2.72,2.83,2.64,2.64,0,0,1-2.73,2.69"/><path class="cls-5" d="M264.31,103.72a2,2,0,0,1-1.93-2,1.81,1.81,0,0,1,1.94-1.84,1.78,1.78,0,0,1,1.87,1.9,1.86,1.86,0,0,1-1.88,1.92"/><path class="cls-5" d="M226.65,99.9a1.83,1.83,0,0,1,1.95,1.85,2,2,0,0,1-1.94,2,1.8,1.8,0,0,1-1.88-2,1.76,1.76,0,0,1,1.87-1.83"/><path class="cls-4" d="M102.54,107.64l-.08,0,0,0a.2.2,0,0,1,.08,0l0,0"/></g></g></g></g></g></svg>