<svg id="Layer_1" data-name="Layer 1" xmlns="http://www.w3.org/2000/svg" xmlns:xlink="http://www.w3.org/1999/xlink" viewBox="0 0 363.1 202.56"><defs><style>.cls-1{fill:none;}.cls-2{clip-path:url(#clip-path);}.cls-3,.cls-4,.cls-5,.cls-7{fill:#231f20;}.cls-4,.cls-5{font-size:21.34px;}.cls-4,.cls-5,.cls-7{font-family:Interstate-RegularCompressed, Interstate RegularCompressed;}.cls-5,.cls-8{letter-spacing:0.2em;}.cls-6{letter-spacing:0em;}.cls-7{font-size:7.53px;}</style><clipPath id="clip-path"><rect class="cls-1" x="75.54" y="59.57" width="220.19" height="81.98"/></clipPath></defs><title>belgo</title><g id="Artwork_8" data-name="Artwork 8"><g class="cls-2"><g class="cls-2"><path class="cls-3" d="M90.41,96.13h8.14a7.07,7.07,0,0,0,3.94-1A3.81,3.81,0,0,0,104,91.7q0-4.24-4.85-4.24H90.41Zm0-17.34h7.32a6.15,6.15,0,0,0,3.53-.84,3.44,3.44,0,0,0,1.2-3,2.63,2.63,0,0,0-1.23-2.44,6.77,6.77,0,0,0-3.5-.75H90.41ZM76.54,60.68H101.2a20.26,20.26,0,0,1,7.09,1.08,11.09,11.09,0,0,1,4.45,2.83,10.2,10.2,0,0,1,2.2,3.75,13.15,13.15,0,0,1,.63,4,9.54,9.54,0,0,1-1.42,5.44A12.13,12.13,0,0,1,110,81.47a12.1,12.1,0,0,1,5.64,4,12,12,0,0,1,2.17,7.55,13.76,13.76,0,0,1-1.29,6.06,12.7,12.7,0,0,1-3.53,4.46,15.72,15.72,0,0,1-5.08,2.71,18.94,18.94,0,0,1-5.86.91H76.54Z"/><polygon class="cls-3" points="122.64 60.68 159.9 60.68 159.9 72.61 136.51 72.61 136.51 78.4 157.76 78.4 157.76 89.48 136.51 89.48 136.51 95.28 160.6 95.28 160.6 107.2 122.64 107.2 122.64 60.68"/><polygon class="cls-3" points="166.4 60.68 180.27 60.68 180.27 95.28 200.2 95.28 200.2 107.2 166.4 107.2 166.4 60.68"/><path class="cls-3" d="M236,102.44a13.59,13.59,0,0,1-5.58,4.4,17.89,17.89,0,0,1-7.22,1.47,21.21,21.21,0,0,1-8.86-1.82,19.79,19.79,0,0,1-6.84-5.12,22.87,22.87,0,0,1-4.32-7.66,28.7,28.7,0,0,1-1.49-9.31,29.21,29.21,0,0,1,2-11.14,22,22,0,0,1,5.17-7.79A20.54,20.54,0,0,1,215.93,61a22.84,22.84,0,0,1,7.91-1.43q8.52,0,13.87,4.55T244.59,77H231.28A6.65,6.65,0,0,0,229,72.8a6.34,6.34,0,0,0-4.32-1.63,8.43,8.43,0,0,0-5,1.37A8.26,8.26,0,0,0,216.87,76a14.15,14.15,0,0,0-1.13,4.23,42.28,42.28,0,0,0-.22,4.46,17.89,17.89,0,0,0,.44,3.91,12.57,12.57,0,0,0,1.57,3.88,8.77,8.77,0,0,0,3.16,3,9.76,9.76,0,0,0,5,1.17,8.28,8.28,0,0,0,4.63-1.33,5.73,5.73,0,0,0,2.56-3.82h-6.12v-10h18.41v25.6h-8.76Z"/><path class="cls-3" d="M264.8,90.13a10.65,10.65,0,0,0,2.2,4,8.17,8.17,0,0,0,2.87,2,8.2,8.2,0,0,0,6.06,0,8.14,8.14,0,0,0,2.86-2,10.66,10.66,0,0,0,2.21-4,19.56,19.56,0,0,0,.85-6.19,19.61,19.61,0,0,0-.85-6.19,10.53,10.53,0,0,0-2.21-4,7.89,7.89,0,0,0-2.86-2,8.08,8.08,0,0,0-6.06,0,7.92,7.92,0,0,0-2.87,2,10.52,10.52,0,0,0-2.2,4,19.58,19.58,0,0,0-.86,6.19,19.54,19.54,0,0,0,.86,6.19m-13.09-16a22.8,22.8,0,0,1,4.67-7.76,20.84,20.84,0,0,1,7.25-5,24.77,24.77,0,0,1,18.54,0,20.93,20.93,0,0,1,7.25,5,22.8,22.8,0,0,1,4.67,7.76,29.92,29.92,0,0,1,0,19.54,22.7,22.7,0,0,1-4.67,7.76,21.09,21.09,0,0,1-7.25,5,24.9,24.9,0,0,1-18.54,0,21,21,0,0,1-7.25-5,22.7,22.7,0,0,1-4.67-7.76,29.92,29.92,0,0,1,0-19.54"/><text class="cls-4" transform="translate(75.54 137.44)">M</text><text class="cls-5" transform="translate(89.94 137.44)">O<tspan class="cls-6" x="18.97" y="0">U</tspan></text><text class="cls-4" transform="translate(115.04 137.44)">L</text><text class="cls-4" transform="translate(125.79 137.44)">E</text><text class="cls-4" transform="translate(137.1 137.44)">S</text></g><text class="cls-7" transform="translate(148.71 133.29)">รท</text><g class="cls-2"><text class="cls-4" transform="translate(156.31 137.44)"><tspan class="cls-8">FR</tspan><tspan x="30.41" y="0">I</tspan></text><text class="cls-4" transform="translate(188.57 137.44)">T</text><text class="cls-4" transform="translate(199.71 137.44)">E</text><text class="cls-4" transform="translate(210.66 137.44)">S</text></g><text class="cls-7" transform="translate(222.25 133.29)">รท</text><g class="cls-2"><text class="cls-4" transform="translate(229.84 137.44)">B</text><text class="cls-4" transform="translate(242.07 137.44)">I</text><text class="cls-4" transform="translate(250.73 137.44)">ร</text><text class="cls-4" transform="translate(262.1 137.44)">R</text><text class="cls-4" transform="translate(274.44 137.44)">E</text><text class="cls-4" transform="translate(285.75 137.44)">S</text></g></g></g></svg>