<svg xmlns="http://www.w3.org/2000/svg" xmlns:xlink="http://www.w3.org/1999/xlink" viewBox="0 0 193.11 107.43"><defs><style>.cls-1{fill:none;}.cls-2{clip-path:url(#clip-path);}.cls-3{fill:#a27e2d;}.cls-4{fill:#016139;}</style><clipPath id="clip-path" transform="translate(0 0)"><rect class="cls-1" width="193.11" height="107.43"/></clipPath></defs><title>logo-rolex</title><g id="Layer_2" data-name="Layer 2"><g id="Layer_1-2" data-name="Layer 1"><g id="Artwork_7" data-name="Artwork 7"><g class="cls-2"><g class="cls-2"><path class="cls-3" d="M73.36,18.89a1.53,1.53,0,0,0,.85-.17L84,51.78c1,3.71,6.41,6.57,13,6.57,6.4,0,11.8-2.86,13-6.57l9.78-33.06c.17,0,.51.17.68.17A3.38,3.38,0,1,0,117,15.52a3.32,3.32,0,0,0,2,3l-11.3,24.12,1.52-32.55a3.38,3.38,0,1,0-3.38-3.37,3.26,3.26,0,0,0,2.53,3.2L101,41.83,97.31,6.75a3.31,3.31,0,0,0,2.87-3.38,3.38,3.38,0,0,0-6.75,0A3.46,3.46,0,0,0,96.3,6.75L92.76,41.83,85.17,10.12A3.31,3.31,0,0,0,87.7,6.75a3.38,3.38,0,1,0-3.37,3.37l1.85,32.55L74.88,18.55a3.18,3.18,0,0,0,1.86-3,3.38,3.38,0,1,0-6.75,0,3.18,3.18,0,0,0,3.37,3.37M96.81,49.08c5.9,0,10.79,1.52,10.79,3.37s-4.72,3.37-10.79,3.37c-5.91,0-10.8-1.51-10.8-3.37s4.89-3.37,10.8-3.37" transform="translate(0 0)"/><path class="cls-4" d="M59,72.35A17.54,17.54,0,1,0,76.74,89.89,17.68,17.68,0,0,0,59,72.35M66.28,100a8.33,8.33,0,0,1-2,2.19,7.53,7.53,0,0,1-4.39,1.69h-2a7.53,7.53,0,0,1-4.39-1.69,8.17,8.17,0,0,1-2-2.19,17.12,17.12,0,0,1-3-10.12,17.39,17.39,0,0,1,2.7-9.61,7.58,7.58,0,0,1,4.22-3.71.49.49,0,0,0,.33-.17,1,1,0,0,1,.68-.17,12.92,12.92,0,0,1,2.53-.34,12.92,12.92,0,0,1,2.53.34c.17,0,.51.17.67.17a.53.53,0,0,1,.34.17,9.88,9.88,0,0,1,4.22,3.71A18.41,18.41,0,0,1,66.28,100" transform="translate(0 0)"/><path class="cls-4" d="M112,93.43h-2.53v4.89a5.43,5.43,0,0,1-5.4,5.4H93.6V76.06h4.72V73.53h-17v2.53H86v27.83H81.29v2.36H112V93.43Z" transform="translate(0 0)"/><path class="cls-4" d="M149.43,73.53H117.21v2.53h4.73v27.83h-4.73v2.36h32.55V94.44h-2.53v3.88a5.43,5.43,0,0,1-5.39,5.4H129.52V89.89h3.88a4.1,4.1,0,0,1,4,4v2h2.19V82.3h-2.19V84a4,4,0,0,1-4,3.88h-4V76.06h12.48a5.33,5.33,0,0,1,5.39,5.4v3.37h2.53V73.53Z" transform="translate(0 0)"/><path class="cls-4" d="M191.93,103.89c-2.36,0-2.87-.84-4.73-2.87L176.41,87.53l7.25-8.6c1.86-2.19,2.36-3,4.89-3h1.86V73.53H177.08v2.36H180a1.15,1.15,0,0,1,1.18,1.19,1,1,0,0,1-.17.67l-6.41,7.59L169.5,79.1l-1-1.35a1.23,1.23,0,0,1-.34-.67,1.15,1.15,0,0,1,1.18-1.19h2.86V73.53H155.67v2.36h.84c2.19.17,2.7.85,4.39,2.7l9.61,12-8.6,10.28c-1.86,2.2-2.53,3-4.89,3h-2v2.36h14v-2.36h-3.54a1.15,1.15,0,0,1-1.18-1.18c0-.34.17-.51.17-.68l7.59-9.1,6.4,7.92,1,1.18a1.07,1.07,0,0,1,.16.68,1.15,1.15,0,0,1-1.18,1.18h-3v2.36h17.71v-2.36Z" transform="translate(0 0)"/><path class="cls-4" d="M35.59,103.72l-2.2-6.24c-1-2.87-1.68-4-3.37-5.57a8.54,8.54,0,0,0-3.54-1.68,8.4,8.4,0,0,0-1.35-16.7H0v2.36H4.55v27.83H0v2.53H17v-2.53H12.31V90.4H17a8.34,8.34,0,0,1,3,.5,9.67,9.67,0,0,1,2.36.85,5.73,5.73,0,0,1,2.36,2.53l.51,1c1.35,2.7,2.19,6.24,3.2,10.79H39.13v-2.53H35.59ZM20.24,87.87H12.31v-12h7.93c3.37.17,6.24,2.53,6.24,5.91s-2.7,5.9-6.24,6.07" transform="translate(0 0)"/></g></g></g></g></g></svg>