<svg xmlns="http://www.w3.org/2000/svg" xmlns:xlink="http://www.w3.org/1999/xlink" viewBox="0 0 172.68 102.66"><defs><style>.cls-1{fill:none;}.cls-2{clip-path:url(#clip-path);}.cls-3{clip-path:url(#clip-path-3);}.cls-4{fill:#fff;}</style><clipPath id="clip-path" transform="translate(-0.59 -0.59)"><rect class="cls-1" width="172.68" height="102.66"/></clipPath><clipPath id="clip-path-3" transform="translate(-0.59 -0.59)"><rect class="cls-1" x="0.59" y="0.59" width="172.68" height="102.66"/></clipPath></defs><title>logo-cdg</title><g id="Layer_2" data-name="Layer 2"><g id="Layer_1-2" data-name="Layer 1"><g id="MeykP9"><g class="cls-2"><g class="cls-2"><g class="cls-3"><g class="cls-3"><path d="M173.27,103.25H.59V.59H173.27Zm-2.39-2.33V3H3.09c-.59,4.44-.39,95.79.19,97.92Z" transform="translate(-0.59 -0.59)"/><path class="cls-4" d="M170.88,100.92H3.28C2.7,98.79,2.5,7.44,3.09,3H170.88ZM169,4.79h-2.31L5.35,4.89c-.07,0-.15.11-.22.17L5,5.19V99c.86,0,1.53.1,2.21.1L168.51,99c.08,0,.16-.11.23-.17l.24-.21Z" transform="translate(-0.59 -0.59)"/><path d="M169,4.79V98.58l-.24.21c-.07.06-.15.17-.23.17L7.2,99.06C6.52,99.06,5.85,99,5,99V5.19l.14-.13c.07-.06.15-.17.22-.17l161.32-.1H169M49.87,80.13l-1.38-.74c-.16-1.19-.29-2.21-.42-3.23l-.44,0V80c.81.73,1.5,1.24,2.2.1l1.28.6c0-1.34,0-2.4,0-3.46a10.89,10.89,0,0,0-.44-1.64c-.34,1.93-.57,3.24-.79,4.55m89,0a1.54,1.54,0,0,1-1.34-1.63,21.17,21.17,0,0,0-.25-2.37l-.7.05a21.21,21.21,0,0,0,0,3.29c.17,1.08.92,1.21,2.21.59l1.19.62V76.29h-.33c-.27,1.28-.54,2.56-.82,3.84M85.45,76.55c1,.1,1.32.65,1.34,1.58s.17,1.6.26,2.39l.58-.06V76.39c-.79,0-1.49-1.21-2.14.23l-1.17-.71v4.48h.31c.27-1.29.54-2.57.82-3.85m20.69-.1.1.1c-.75-1.15-1.5-.63-2.12.08a3.12,3.12,0,0,0,.3,3.75l2.4.67-2.34.82c0,.2.08.39.13.58l2.68-.4a18.74,18.74,0,0,0,0-6l-1.16.38M56.86,80.22l1.56.37c.18-1.66.61-3.19-.77-4.51-.93-.17-1.83-.31-2.51.87a3.14,3.14,0,0,1,2.26.6c-1,.45-2.48.24-2.69,1.83,1,1.2,1,1.2,2.25.76Zm61.76-3.76.1.09c-1.08-1.15-1.87-.55-2.45.5a2.67,2.67,0,0,0,.44,3.29l2.47.88-3,.61c1.67.83,2.65.81,3.53-.27V76.09l-1,.37m-54.2-7.4a4.07,4.07,0,0,0,1,.29c5,0,10.09.21,15.11,0A23.42,23.42,0,0,0,80,22.51c-4.73-.15-9.48,0-14.22,0a6.68,6.68,0,0,0-1.36.27ZM138.79,24.7A21.37,21.37,0,0,0,130.31,22,23.89,23.89,0,0,0,104.47,50.5,24.74,24.74,0,0,0,125,69.6c13.15,1.57,29.67-9.39,26-29.52H130.11v4.78H146.4A18.81,18.81,0,0,1,134,63.67a18.43,18.43,0,0,1-21.35-6.52,19,19,0,0,1,0-22.66c5.61-7.57,13.6-9.4,24.15-5.48a10.7,10.7,0,0,0,.72-1.23c.43-1,.81-2,1.25-3.08M60.07,59.29c-11.25,9-21.64,5.62-27.33,0a19.25,19.25,0,0,1-2.18-24.45A18.73,18.73,0,0,1,41,27.45c6.2-1.82,11.87-.3,17.2,3.12C59,30,59.71,29.49,60.41,29c.46-.35.88-.75,1.33-1.14a23.83,23.83,0,1,0,1.11,35.11l-2.78-3.64M32.61,78.89c1,2.67,2.59,1.34,4.14,1.69-.11-1.62-.2-2.91-.27-4-1.23-.81-2.12-.9-2.95-.08-.08.09,0,.32-.05.48.57.52,1.73-1.18,2,.4l-2.84,1.5m63.71-2.7c0,1.56,0,2.73,0,3.91,0,.12.25.23.45.39,1.24-.95-.43-3,1.7-3.87a15.43,15.43,0,0,1,.59,1.78,21,21,0,0,1,.26,2.11c.94-1.63,1.21-3.15-.31-4.57l-2.71.25m-21.81-.48c-.91.29-1.63.51-2.28.7-.7,1.61-.92,3,.64,4.31l2.47-.38V74.4l-.4-.05c-.14.43-.27.86-.43,1.36m-30.43,1.6c-2.37-1.93-3-1.76-3.61.59l2.31,1.39c-.07.17-.14.33-.22.49l-2.27-.49a1.73,1.73,0,0,0,2.35,1.32,1.32,1.32,0,0,0,1.08-1.87l-2.25-1.4c.05-.14.11-.29.17-.44l2.44.41m103.31,3c.64-1.57.84-2.94-.62-4.35l-2.63.31v6.4l1-1.82,2.22-.54m-14.38-2a2.11,2.11,0,0,0-2.13-2.31,2.29,2.29,0,0,0-2,2.45A2.2,2.2,0,0,0,131,80.68a2.09,2.09,0,0,0,2-2.43M29.5,77.66c-1.05-1.7-1.77-2-2.72-1.45-1.33.82-1.31,2.34.28,4.57.66-.24,1.43-.49,2.17-.82.11,0,.06-.46.11-.86L27.65,80c-1.32-1.09-1.25-2.13,0-3.27l1.9,1m95.88-1.57-1.64.09v4.28l.38,0c.41-1.44.83-2.89,1.26-4.41m-33,.17h-.74c0,1.41-.61,2.85.74,4.83ZM62.43,80.35l.45-.06V74.35h-.45Zm17.63-4.13-.35,0v4.08l.35,0Zm11.63-1.8c.43-.11.22,0,0,0h0m-11.7,0c-.06,0-.14-.11-.19-.09a.7.7,0,0,0-.21.18l.4.11Z" transform="translate(-0.59 -0.59)"/><path class="cls-4" d="M64.42,69.06V22.75a6.68,6.68,0,0,1,1.36-.27c4.74,0,9.49-.12,14.22,0a23.42,23.42,0,0,1,.49,46.79c-5,.26-10.07.06-15.11,0a4.07,4.07,0,0,1-1-.29m5-4.58c4.28,0,8.4.31,12.51-.28A18.54,18.54,0,0,0,83.9,28c-4.74-1.29-9.57-.49-14.46-.68Z" transform="translate(-0.59 -0.59)"/><path class="cls-4" d="M138.79,24.7c-.44,1.09-.82,2.09-1.25,3.08a10.7,10.7,0,0,1-.72,1.23c-10.55-3.93-18.54-2.09-24.15,5.48a19,19,0,0,0,0,22.66A18.43,18.43,0,0,0,134,63.67,18.81,18.81,0,0,0,146.4,44.86H130.11V40.08H151c3.7,20.13-12.82,31.09-26,29.52a24.74,24.74,0,0,1-20.56-19.1A23.89,23.89,0,0,1,130.31,22a21.37,21.37,0,0,1,8.48,2.66" transform="translate(-0.59 -0.59)"/><path class="cls-4" d="M60.07,59.29l2.78,3.64a23.9,23.9,0,1,1-1.11-35.1c-.45.38-.87.78-1.33,1.13-.7.53-1.42,1-2.24,1.61-5.33-3.42-11-4.94-17.2-3.12a18.73,18.73,0,0,0-10.41,7.4A19.25,19.25,0,0,0,32.74,59.3c5.69,5.61,16.08,9,27.33,0" transform="translate(-0.59 -0.59)"/><path class="cls-4" d="M118.62,76.46l1-.37v5.47c-.88,1.08-1.86,1.1-3.53.27l3-.61-2.47-.88a2.67,2.67,0,0,1-.44-3.29c.58-1,1.37-1.65,2.45-.5-1,.2-1.86.58-1.79,1.85,0,.89.35,1.5,1.69,1.32Z" transform="translate(-0.59 -0.59)"/><path class="cls-4" d="M32.61,78.89l2.84-1.5c-.24-1.58-1.4.12-2-.4,0-.16,0-.39.05-.48.83-.81,1.72-.73,2.95.08.07,1.08.16,2.37.27,4-1.55-.35-3.14,1-4.14-1.69m1.21.12.49.83,1.31-.72-.2-.5-1.6.39" transform="translate(-0.59 -0.59)"/><path class="cls-4" d="M96.32,76.19,99,75.94c1.52,1.42,1.25,2.94.31,4.57a21,21,0,0,0-.26-2.11,15.43,15.43,0,0,0-.59-1.78c-2.13.83-.46,2.92-1.7,3.87-.2-.16-.45-.27-.45-.39,0-1.18,0-2.35,0-3.91" transform="translate(-0.59 -0.59)"/><path class="cls-4" d="M57,80.14c-1.29.44-1.29.44-2.25-.76.21-1.59,1.68-1.38,2.69-1.83a3.14,3.14,0,0,0-2.26-.6c.68-1.18,1.58-1,2.51-.87,1.38,1.32.94,2.85.77,4.51l-1.56-.37.69-1.52c-.46,0-.75-.17-1-.08a4.93,4.93,0,0,0-1,.72l1.34.8" transform="translate(-0.59 -0.59)"/><path class="cls-4" d="M106.14,76.45l1.16-.38a18.74,18.74,0,0,1,0,6l-2.68.4c0-.19-.09-.38-.13-.58l2.34-.82-2.4-.67a3.12,3.12,0,0,1-.3-3.75c.62-.71,1.37-1.23,2.12-.08-2.22,1.21-2.32,1.93-.43,3.3,1.5-1,.65-2.22.33-3.4" transform="translate(-0.59 -0.59)"/><path class="cls-4" d="M74.51,75.71c.16-.5.29-.93.43-1.36l.4.05v5.94l-2.47.38c-1.56-1.35-1.34-2.7-.64-4.31.65-.2,1.37-.41,2.28-.7m-.72.89c-1.47,1.85-1.47,1.85.16,3.44.86-1.16,1.28-2.15-.16-3.44" transform="translate(-0.59 -0.59)"/><path class="cls-4" d="M44.08,77.31l-2.44-.41c-.06.15-.12.3-.17.45l2.25,1.39a1.32,1.32,0,0,1-1.08,1.87,1.73,1.73,0,0,1-2.35-1.32l2.27.49c.08-.16.15-.32.22-.49L40.47,77.9c.6-2.35,1.24-2.52,3.61-.59" transform="translate(-0.59 -0.59)"/><path class="cls-4" d="M147.39,80.3l-2.22.54-1,1.82v-6.4l2.63-.31c1.46,1.41,1.26,2.78.62,4.35m-1.53-.25c1.5-1.75,1.5-1.76,0-3.26-1.38,1.39-1.38,1.39,0,3.26" transform="translate(-0.59 -0.59)"/><path class="cls-4" d="M133,78.25a2.09,2.09,0,0,1-2,2.43,2.2,2.2,0,0,1-2.19-2.29,2.29,2.29,0,0,1,2-2.45A2.11,2.11,0,0,1,133,78.25m-2.09,1.8c1.41-1.79,1.41-1.79.08-3.28-1.43,1.38-1.43,1.38-.08,3.28" transform="translate(-0.59 -0.59)"/><path class="cls-4" d="M29.5,77.66l-1.9-1c-1.2,1.14-1.27,2.18,0,3.27l1.69-.86c-.05.4,0,.81-.11.86-.74.33-1.51.58-2.17.82-1.59-2.23-1.61-3.75-.28-4.57.95-.58,1.67-.25,2.72,1.45" transform="translate(-0.59 -0.59)"/><path class="cls-4" d="M125.38,76.09c-.43,1.52-.85,3-1.26,4.41l-.38,0V76.18l1.64-.09" transform="translate(-0.59 -0.59)"/><path class="cls-4" d="M85.49,76.62c.65-1.44,1.35-.27,2.14-.23v4.07l-.58.06c-.09-.79-.24-1.59-.26-2.39s-.39-1.48-1.34-1.58Z" transform="translate(-0.59 -0.59)"/><path class="cls-4" d="M138.83,80.06c-1.29.62-2,.49-2.21-.59a21.1,21.1,0,0,1,0-3.28l.7-.06a21.17,21.17,0,0,1,.25,2.37,1.54,1.54,0,0,0,1.34,1.63Z" transform="translate(-0.59 -0.59)"/><path class="cls-4" d="M92.38,76.26v4.82c-1.35-2-.75-3.42-.74-4.83h.74" transform="translate(-0.59 -0.59)"/><path class="cls-4" d="M49.83,80.08c-.7,1.14-1.39.63-2.2-.1V76.19l.44,0c.13,1,.26,2,.42,3.23l1.38.74Z" transform="translate(-0.59 -0.59)"/><path class="cls-4" d="M62.43,80.35v-6h.45v5.94l-.45.06" transform="translate(-0.59 -0.59)"/><path class="cls-4" d="M138.87,80.13c.28-1.28.55-2.56.82-3.85H140v4.39l-1.19-.62Z" transform="translate(-0.59 -0.59)"/><path class="cls-4" d="M85.45,76.55c-.28,1.28-.55,2.56-.82,3.85h-.31V75.91l1.17.71Z" transform="translate(-0.59 -0.59)"/><path class="cls-4" d="M49.87,80.13c.22-1.31.45-2.62.79-4.55a10.89,10.89,0,0,1,.44,1.64c0,1.06,0,2.12,0,3.46l-1.28-.6Z" transform="translate(-0.59 -0.59)"/><path class="cls-4" d="M80.06,76.22v4.07l-.35,0V76.24l.35,0" transform="translate(-0.59 -0.59)"/><path class="cls-4" d="M91.69,74.42h0" transform="translate(-0.59 -0.59)"/><path class="cls-4" d="M80,74.39v.2l-.4-.11a.7.7,0,0,1,.21-.18s.13.06.19.09" transform="translate(-0.59 -0.59)"/><path d="M69.44,64.48V27.27c4.89.19,9.72-.61,14.46.68A18.54,18.54,0,0,1,82,64.2c-4.11.59-8.23.31-12.51.28" transform="translate(-0.59 -0.59)"/><path d="M118.62,76.46v3.26c-1.34.18-1.64-.43-1.69-1.32-.07-1.27.76-1.65,1.79-1.85Z" transform="translate(-0.59 -0.59)"/><path d="M33.82,79l1.6-.39.2.5-1.31.72L33.82,79" transform="translate(-0.59 -0.59)"/><path d="M57,80.14l-1.34-.8a4.93,4.93,0,0,1,1-.72c.21-.09.5,0,1,.08l-.69,1.52Z" transform="translate(-0.59 -0.59)"/><path d="M106.14,76.45c.32,1.18,1.17,2.4-.33,3.4-1.89-1.37-1.79-2.09.43-3.3Z" transform="translate(-0.59 -0.59)"/><path d="M73.79,76.6c1.44,1.29,1,2.28.16,3.44-1.63-1.59-1.63-1.59-.16-3.44" transform="translate(-0.59 -0.59)"/><path d="M145.86,80.05c-1.34-1.87-1.34-1.87,0-3.26,1.46,1.5,1.46,1.51,0,3.26" transform="translate(-0.59 -0.59)"/><path d="M130.92,80.05c-1.35-1.9-1.35-1.9.08-3.28,1.33,1.49,1.33,1.49-.08,3.28" transform="translate(-0.59 -0.59)"/></g></g></g></g></g></g></g></svg>