<svg xmlns="http://www.w3.org/2000/svg" xmlns:xlink="http://www.w3.org/1999/xlink" viewBox="0 0 251.93 79.21"><defs><style>.cls-1{fill:none;}.cls-2{clip-path:url(#clip-path);}.cls-3{clip-path:url(#clip-path-2);}.cls-4{fill:#19b4ff;}.cls-5{fill:#38003d;}</style><clipPath id="clip-path" transform="translate(560 240)"><rect class="cls-1" x="-560" y="-240" width="251.93" height="93.44"/></clipPath><clipPath id="clip-path-2" transform="translate(560 240)"><rect class="cls-1" x="-560" y="-240" width="251.93" height="79.21"/></clipPath></defs><title>logo-tru</title><g id="Layer_2" data-name="Layer 2"><g id="Layer_1-2" data-name="Layer 1"><g id="Tru_Rating" data-name="Tru Rating"><g class="cls-2"><g class="cls-3"><path class="cls-4" d="M-456.1-216.86l-17-17.51c-4.52-4.66-13.45-6.87-19.83-4.92l-55,16.82c-3.36,1-5.37,3-5.87,5.34,0,0,0-.05,0-.07l-6,26.51c-.48,2.12.29,4.53,2.46,6.76l17,17.51c4.52,4.65,13.44,6.87,19.83,4.92L-466.74-178a2.43,2.43,0,0,1-1.77-2.51v-.66a4,4,0,0,1,.08-.89h-.1a9.4,9.4,0,0,1-8.29,4.94c-5.18,0-8.3-2.72-8.3-9.33v-9.4c0-.72-.51-1.55-1.17-1.55h-1.85v-4.79h5.69c2.24,0,3.12,1.16,3.12,3.34v11.17c0,3,.9,4.94,3.89,4.94,4.37,0,6.93-3.85,6.93-8.17v-11.28H-463v18.26c0,.67.67.87,1.33.87h1.72c.1-.5.18-.4.23-.65l6.05-26.47a.66.66,0,0,0,0,.15c.54-2.15-.22-4.58-2.43-6.86m-58.42,10.68h-5.32v28.43h-6v-28.43h-5.22c-.67,0-.82.33-.82,1v2h-5.79v-5.3c0-2.23.86-3,3.14-3H-511c2.28,0,3,.78,3,3v5.3h-5.53v-2c0-.67-.3-1-1-1m24.37,9.88s-.88-.09-1.73-.09a6.94,6.94,0,0,0-6.71,5.08,14.71,14.71,0,0,0-.62,3.94v9.62h-6v-18.07c0-.72-.38-1.55-1.05-1.55H-508v-4.79h5.33c2.14,0,3,1.06,3,3.11v1.42c0,.9.16,1,.16,1h.09a8.67,8.67,0,0,1,8-6,4.63,4.63,0,0,1,1.35.35Z" transform="translate(560 240)"/><path class="cls-4" d="M-446.5-205.73h-3v-5.11h14.65c6,0,10.17,3.68,10.17,9.85,0,5.89-4.05,8.33-5.43,8.61v.09a3.75,3.75,0,0,1,1.61,1.66l3.18,6.31c.5,1,1.29,1.06,2.3,1.06h.6v5.11h-3.18c-2.44,0-3.5-.37-4.56-2.44l-4.19-8.24c-.69-1.29-1.38-1.52-3.08-1.52h-3v12.2h-6Zm10.82,10.22c3,0,4.83-1.89,4.83-5.16s-1.8-5.06-4.74-5.06h-4.88v10.22Z" transform="translate(560 240)"/><path class="cls-4" d="M-406.78-192.89h.74v-.18c0-3.36-1.34-4.6-4.33-4.6-1.06,0-3.13.27-3.13,1.56v1.24h-5.44v-2.48c0-4.38,6.17-4.84,8.61-4.84,7.83,0,10.13,4.1,10.13,9.35v8.75a.92.92,0,0,0,1,1h1.84v4.93h-5.25c-2.16,0-3-1.2-3-2.58,0-.6,0-1,0-1h-.09a7.65,7.65,0,0,1-7.09,4.14c-4.19,0-8-2.62-8-7.32,0-7.37,10.13-8,14-8m-4.51,10.73c3.13,0,5.34-3.31,5.34-6.17v-.55h-1c-3,0-7.88.41-7.88,3.68,0,1.57,1.15,3,3.55,3" transform="translate(560 240)"/><path class="cls-4" d="M-394-197h-3v-4.65h3.18V-208h5.71v6.4h5.34V-197h-5.34v9.48c0,3.87,3,4.42,4.65,4.42a5.57,5.57,0,0,0,1.06-.09v5.11a10.69,10.69,0,0,1-1.8.14c-3.27,0-9.76-1-9.76-8.84Z" transform="translate(560 240)"/><path class="cls-4" d="M-377.75-195.65a.9.9,0,0,0-1-1h-1.84v-5H-375c2.16,0,3.08,1,3.08,3.13v14.41a.92.92,0,0,0,1,1h1.85v4.93h-5.57c-2.17,0-3.09-.92-3.09-3.13Zm.28-15.19h5.06v5.38h-5.06Z" transform="translate(560 240)"/><path class="cls-4" d="M-365.2-195.65a.9.9,0,0,0-1-1H-368v-5h5.38c2.08,0,3.09,1,3.09,2.62v.69a6.51,6.51,0,0,1-.09,1h.09a9,9,0,0,1,8.29-4.88c5.2,0,8.19,2.72,8.19,8.94v9.16a.92.92,0,0,0,1,1h1.84v4.93h-5.56c-2.22,0-3.14-.92-3.14-3.13v-10.78c0-2.85-.73-4.79-3.68-4.79a6.44,6.44,0,0,0-6.31,4.79,10,10,0,0,0-.46,3.13v10.78h-5.8Z" transform="translate(560 240)"/><path class="cls-4" d="M-328.47-202.19c5.43,0,7.23,3.32,7.23,3.32h.09v-.6c0-1.06.74-2.16,2.58-2.16h5.43v5h-1.79a.9.9,0,0,0-1,.92v16.16c0,8.06-6.26,11.1-12.38,11.1a18.63,18.63,0,0,1-8.33-2l1.79-4.6a15.19,15.19,0,0,0,6.49,1.56c3.55,0,6.63-1.52,6.63-5.75v-1.11c0-.55.05-1.24.05-1.24h-.09c-1.38,2-3.41,3-6.54,3-6.72,0-10.54-5.44-10.54-11.88s3.63-11.7,10.4-11.7m6.86,11.74c0-5.34-2.67-6.76-5.85-6.76-3.54,0-5.47,2.58-5.47,6.54s2.07,7.13,5.84,7.13c2.81,0,5.48-1.61,5.48-6.91" transform="translate(560 240)"/><rect class="cls-5" x="246.86" y="56.87" width="5.07" height="5.39"/></g></g></g></g></g></svg>