<svg xmlns="http://www.w3.org/2000/svg" xmlns:xlink="http://www.w3.org/1999/xlink" viewBox="0 0 249.01 42.1"><defs><style>.cls-1{fill:none;}.cls-2{clip-path:url(#clip-path);}.cls-3{clip-path:url(#clip-path-3);}.cls-4{fill:#1c4598;}.cls-5{fill:#c4cee4;}.cls-6{fill:#1d4598;}.cls-7{fill:#1d4698;}</style><clipPath id="clip-path" transform="translate(-0.12 -0.12)"><rect class="cls-1" width="249.01" height="42.21"/></clipPath><clipPath id="clip-path-3" transform="translate(-0.12 -0.12)"><rect class="cls-1" x="0.12" y="0.12" width="249.01" height="42.21"/></clipPath></defs><title>logo-nokia</title><g id="Layer_2" data-name="Layer 2"><g id="Layer_1-2" data-name="Layer 1"><g id="QqwOcD"><g class="cls-2"><g class="cls-2"><g class="cls-3"><g class="cls-3"><path class="cls-4" d="M.12,41.71V.87H20.84L44.66,31.38V.94h12V41.69H36.31l-24.2-31v31Z" transform="translate(-0.12 -0.12)"/><path class="cls-4" d="M249.13,41.71H234.6l-3.69-7.07H206.63c-1.19,2.32-2.42,4.68-3.64,7H189.15L211.34.91h15.59l8.89,16.33L248.76,41c.11.19.25.37.37.55Zm-22.56-16L218.79,11c-2.62,5-5.19,9.84-7.78,14.77Z" transform="translate(-0.12 -0.12)"/><path class="cls-5" d="M76.19.23a.41.41,0,0,1,0-.11H99.6a.37.37,0,0,0,0,.11H76.19" transform="translate(-0.12 -0.12)"/><path class="cls-4" d="M99.23,42.23h-23a53.41,53.41,0,0,1-7.73-1C64,40,61.71,36.64,61.63,32.11c-.14-7.5-.26-15,.11-22.51C62,4.17,65.85,1,71.78.5,73.25.37,74.72.32,76.19.23H99.61a52.52,52.52,0,0,1,7.24,1A8.74,8.74,0,0,1,113.78,10c.18,7.7.27,15.42-.09,23.11-.25,5.24-4.19,8.35-10,8.86-1.47.13-2.94.19-4.41.28M87.7,31.76v.11c3.82,0,7.63,0,11.45,0,2,0,3.5-.61,3.5-2.92,0-5.33.06-10.66-.16-16a3.19,3.19,0,0,0-2.23-2.16c-8.19-.18-16.38-.16-24.57-.15-1.63,0-2.82.78-2.84,2.55q-.06,8,0,16.05a2.29,2.29,0,0,0,2.41,2.49c4.14.06,8.29,0,12.44,0" transform="translate(-0.12 -0.12)"/><path class="cls-6" d="M131.43,20.43V41.67H118.94V.92h12.5V20.41L143,9.73c3.08-2.84,6.15-5.68,9.24-8.51A1.13,1.13,0,0,1,153,.9c5.33,0,10.66,0,16.19,0L146.81,20l25.12,21.67H154.24L131.43,20.43" transform="translate(-0.12 -0.12)"/><rect class="cls-7" x="174.21" y="0.8" width="12.47" height="40.75"/></g></g></g></g></g></g></g></svg>