<svg xmlns="http://www.w3.org/2000/svg" xmlns:xlink="http://www.w3.org/1999/xlink" viewBox="0 0 268.52 108.66"><defs><clipPath id="clip-path" transform="translate(-0.44 -7.03)"><rect width="268.52" height="122.25" style="fill:none"/></clipPath><clipPath id="clip-path-3" transform="translate(-0.44 -7.03)"><rect x="0.44" y="7.03" width="268.52" height="108.66" style="fill:none"/></clipPath></defs><title>logo-ovo</title><g id="Layer_2" data-name="Layer 2"><g id="Layer_1-2" data-name="Layer 1"><g id="Client_-_Ovo" data-name="Client - Ovo"><g style="clip-path:url(#clip-path)"><g style="clip-path:url(#clip-path)"><g style="clip-path:url(#clip-path-3)"><g style="clip-path:url(#clip-path-3)"><path d="M.44,29.69C4,28.81,7.61,28,11.17,27q16.65-4.41,33.28-8.88L83.32,7.74c.91-.24,1.82-.44,2.92-.71q4.26,15.9,8.43,31.45a77.14,77.14,0,0,0-9.12,1.21,67.7,67.7,0,0,0-8.23,3.17l1.16-3.43H75.36c-3.86,0-7.72.06-11.57,0a1.93,1.93,0,0,0-2.25,1.69c-2,7.06-4.06,14.1-6.1,21.15-.1.31-.22.62-.51,1.45-2-6.88-3.86-13.24-5.7-19.61-1.34-4.65-1.33-4.65-6.09-4.65H32a1.62,1.62,0,0,0-.5.2c.38,1.11.76,2.23,1.2,3.5-11.17-5.64-16.33-5.78-29-.84-.82-3-1.61-6-2.46-9a12.18,12.18,0,0,0-.85-1.88Z" transform="translate(-0.44 -7.03)" style="fill:#189739"/><path d="M269,51.52a12.58,12.58,0,0,0-1.11,2q-5.58,15.83-11.11,31.66c-.12.35-.26.68-.36,1-.49,1.56-1.54,2.38-3.14,1.9-1.81-.54-1.64-2.07-1.18-3.43.89-2.61,2-5.15,2.85-7.77a4.89,4.89,0,0,0,0-2.86c-2.25-6.75-4.62-13.46-6.94-20.19-.4-1.17-.79-2.34-1.14-3.52s-.06-2.57,1.3-2.74A4.46,4.46,0,0,1,251,48.74c.54.42.62,1.43.87,2.18,2,5.83,3.9,11.66,6,18l4.4-13.23c.57-1.72,1.12-3.45,1.69-5.18,1.13-3.43,1.75-3.74,4.92-2.53Z" transform="translate(-0.44 -7.03)" style="fill:#189739"/><path d="M105.91,80.44l3.31,12.29-85.7,23L14.79,83.78c6.07.24,11.73-.57,16.83-3.71S40,72.2,41.45,65.58C43.22,70.1,44.75,74,46.27,78c2,5.11,2,5.12,7.36,5.1,2.61,0,5.84.85,7.66-.37s2.23-4.51,3.19-6.92c1.3-3.23,2.53-6.48,4-10.22,1.91,8.61,6.85,14.13,14.72,16.76a28.52,28.52,0,0,0,22.72-1.87" transform="translate(-0.44 -7.03)" style="fill:#189739"/><path d="M238.38,72.82c-4.72,6.29-12.85,4.09-16.23.27-4.77-5.38-5.16-15.09-.9-20.92,3.2-4.38,10.77-7.37,17-1.52l.17-1.24c.21-1.52,1.29-2.33,2.57-2a3.66,3.66,0,0,1,2.11,2.24,13.68,13.68,0,0,1,.1,3.9c0,6.91,0,13.82,0,20.73,0,5.36-1.61,10-6.74,12.51-5.36,2.6-10.61,1.59-15.58-1.37-.43-.25-1-.62-1.08-1-.24-.89-.62-2.12-.21-2.72s1.71-.74,2.59-.67c.72,0,1.4.71,2.09,1.12,3.37,2,6.94,3,10.51.81s3.65-5.92,3.63-10.13M223,61.93l-.53.23c.9,2.54,1.43,5.31,2.8,7.58,2.23,3.68,7.53,4,10.6,1,4-3.94,4-13.61-.22-17.38-2.19-2-4.82-2.67-6.76-1.74-4.52,2.16-5.78,5.86-5.89,10.35" transform="translate(-0.44 -7.03)" style="fill:#189739"/><path d="M122.82,64c.17,7.49,7.31,11.12,14,7.37a28.84,28.84,0,0,1,2.9-1.9c.73-.3,2.07-.4,2.44,0s.24,1.67.22,2.55c0,.23-.3.49-.5.69-4.66,4.76-16,6.63-21.25-1-3.86-5.56-3.44-14.8.85-20,5-6.16,15.82-5.79,19.71,1.78a24.64,24.64,0,0,1,2.09,7.46c.37,2.36-.41,3-2.82,3-5.09,0-10.18,0-15.27,0h-2.33m0-3.77h15.54c.23-4.76-2.79-8.43-7-8.68-5.1-.29-8.07,2.69-8.51,8.68" transform="translate(-0.44 -7.03)" style="fill:#189739"/><path d="M178.73,64c.52,7.63,7.36,11.07,14.05,7.35,1-.56,1.85-1.45,2.89-1.92.68-.3,2-.44,2.28-.07a4.66,4.66,0,0,1,.46,2.54c0,.28-.36.62-.61.87-5.33,5.24-16,5.81-20.81-.43-4.33-5.62-4.12-15.4.52-20.72,3.3-3.79,7.56-4.87,12.24-3.86,4.5,1,7.2,4.19,8.65,8.42a21.21,21.21,0,0,1,.86,4.49c.25,2.07-.95,3.32-3.15,3.33-5.1,0-10.19,0-15.28,0h-2.1m15.57-3.77c.17-5.11-3-8.67-7.66-8.7-4.8,0-7.85,3.39-7.75,8.7Z" transform="translate(-0.44 -7.03)" style="fill:#189739"/><path d="M152.06,51c2.72-2.82,5.67-3.95,9.14-3.55,4.75.55,8.29,3.67,8.59,8.42.4,6.16.26,12.35.28,18.53a2.2,2.2,0,0,1-2.45,2.45c-1.77,0-2.38-1.17-2.38-2.75,0-4.87,0-9.75,0-14.62,0-6.53-3.88-9.25-10-7.13a4.42,4.42,0,0,0-3.11,4.32C152,62.38,152,68.13,152,73.87c0,1.9-.93,2.62-2.69,2.55-1.35,0-2.13-.63-2.13-2.12,0-8.15,0-16.29,0-24.44a2.24,2.24,0,0,1,2.39-2.38,2.09,2.09,0,0,1,2.41,2.06c0,.35.06.7.13,1.43" transform="translate(-0.44 -7.03)" style="fill:#189739"/><path d="M25.8,61.53c0,5-3.32,8.53-8.17,8.52S9.5,66.69,9.47,61.76c-.05-5.1,3.18-8.57,8-8.64s8.26,3.42,8.29,8.41" transform="translate(-0.44 -7.03)" style="fill:#189739"/><path d="M92.22,53.58c5.54.13,8.47,3.18,8.29,8.66a7.89,7.89,0,0,1-8.43,7.82c-4.73-.1-8-3.84-7.87-9,.17-4.77,3.2-7.63,8-7.52" transform="translate(-0.44 -7.03)" style="fill:#189739"/><path d="M208.53,51.35a32.77,32.77,0,0,1,4.67-3.71,2.51,2.51,0,0,1,3.8,1.3c.63,1.63-.24,2.78-2.39,3.39-4.88,1.37-6.68,3.69-6.7,8.73,0,4.21,0,8.42,0,12.63,0,1.71-.36,3.13-2.42,3.13s-2.41-1.46-2.41-3.15q0-11.32,0-22.65c0-1.78,0-3.57,2.36-3.65s2.45,1.79,2.55,3.51l.09.92.44-.45" transform="translate(-0.44 -7.03)" style="fill:#189739"/></g></g></g></g></g></g></g></svg>