<svg xmlns="http://www.w3.org/2000/svg" xmlns:xlink="http://www.w3.org/1999/xlink" viewBox="0 0 215.65 39.06"><defs><style>.cls-1{fill:none;}.cls-2{clip-path:url(#clip-path);}.cls-3{fill:#1d1d1b;}</style><clipPath id="clip-path" transform="translate(560 240)"><rect class="cls-1" x="-560" y="-240" width="215.65" height="39.06"/></clipPath></defs><title>logo-scimed</title><g id="Layer_2" data-name="Layer 2"><g id="Layer_1-2" data-name="Layer 1"><g id="Artwork_5" data-name="Artwork 5"><g class="cls-2"><g class="cls-2"><path class="cls-3" d="M-542.4-201q-10.62,0-17.6-6.22l5.79-6.92a19.15,19.15,0,0,0,12.18,4.5c2.86,0,4.3-.86,4.3-2.57v-.11a2.27,2.27,0,0,0-1.29-2,19.51,19.51,0,0,0-5.05-1.63,56.83,56.83,0,0,1-5.65-1.59,21.68,21.68,0,0,1-4.35-2.09,8.38,8.38,0,0,1-3.14-3.32,10.57,10.57,0,0,1-1-4.81v-.1a10.88,10.88,0,0,1,3.94-8.67q3.94-3.35,10.6-3.35,9.23,0,15.45,5l-5.2,7.35A18.19,18.19,0,0,0-544-231.26a5,5,0,0,0-2.79.67,2.06,2.06,0,0,0-1,1.75v.11a2.28,2.28,0,0,0,1.31,2,21.81,21.81,0,0,0,5.18,1.61q7,1.54,10.51,4.13a8.78,8.78,0,0,1,3.49,7.56v.11a10.79,10.79,0,0,1-4.13,9q-4.12,3.27-11,3.27" transform="translate(560 240)"/><path class="cls-3" d="M-504.09-200.94a18.84,18.84,0,0,1-13.74-5.55,18.72,18.72,0,0,1-5.63-13.87v-.11a18.82,18.82,0,0,1,5.66-13.9A19.24,19.24,0,0,1-503.66-240q10.29,0,15.93,7.83l-7.83,6.07q-3.56-4.41-8.21-4.4a8.17,8.17,0,0,0-6.41,2.87,10.22,10.22,0,0,0-2.55,7v.11a10.45,10.45,0,0,0,2.52,7.16,8.2,8.2,0,0,0,6.44,2.87,9,9,0,0,0,4.67-1.15,15.46,15.46,0,0,0,3.8-3.41l7.84,5.58a22,22,0,0,1-6.87,6.25,19.47,19.47,0,0,1-9.76,2.23" transform="translate(560 240)"/><rect class="cls-3" x="77.21" y="0.75" width="10.46" height="37.56"/><polygon class="cls-3" points="107.87 38.31 107.87 0.75 118.87 0.75 127.83 15.29 136.79 0.75 147.79 0.75 147.79 38.31 137.43 38.31 137.43 16.74 127.83 31.44 127.61 31.44 118.06 16.85 118.06 38.31 107.87 38.31"/><polygon class="cls-3" points="154.44 38.31 154.44 0.75 181.16 0.75 184.65 9.6 164.74 9.6 164.74 15.29 177.79 15.29 177.79 23.5 164.74 23.5 164.74 29.45 184.91 29.45 181.43 38.31 154.44 38.31"/><path class="cls-3" d="M-350.07-234.28q-5.73-5.19-15.71-5.18h-7l3.48,9.33h3.68a11,11,0,0,1,7.62,2.55,9,9,0,0,1,2.85,7.05v.11a9,9,0,0,1-2.85,7.09,11.07,11.07,0,0,1-7.62,2.52h-3.68l-3.48,9.33H-366q10,0,15.85-5.34a17.86,17.86,0,0,0,5.8-13.76v-.11a17.48,17.48,0,0,0-5.72-13.59" transform="translate(560 240)"/><path class="cls-3" d="M-456.59-207.45a5.89,5.89,0,0,1-5.89,5.89,5.89,5.89,0,0,1-5.89-5.89,5.89,5.89,0,0,1,5.89-5.89,5.89,5.89,0,0,1,5.89,5.89" transform="translate(560 240)"/></g></g></g></g></g></svg>