<svg id="Layer_1" data-name="Layer 1" xmlns="http://www.w3.org/2000/svg" xmlns:xlink="http://www.w3.org/1999/xlink" viewBox="0 0 363.1 202.56"><defs><style>.cls-1{fill:none;}.cls-2{clip-path:url(#clip-path);}.cls-3{clip-path:url(#clip-path-2);}.cls-4{fill:#19b4ff;}.cls-5{fill:#38003d;}</style><clipPath id="clip-path"><rect class="cls-1" x="57.92" y="55.56" width="251.93" height="93.44"/></clipPath><clipPath id="clip-path-2"><rect class="cls-1" x="57.92" y="55.56" width="251.93" height="79.21"/></clipPath></defs><title>trurating</title><g id="Tru_Rating" data-name="Tru Rating"><g class="cls-2"><g class="cls-3"><path class="cls-4" d="M161.82,78.7l-17-17.51c-4.53-4.66-13.45-6.87-19.84-4.92L70,73.09c-3.36,1-5.37,3-5.87,5.34,0,0,0-.05,0-.07l-6,26.51c-.48,2.12.3,4.53,2.46,6.76l17,17.51C82,133.8,91,136,97.35,134.06l53.84-16.46a2.45,2.45,0,0,1-1.78-2.52v-.66a3.89,3.89,0,0,1,.08-.88h-.09a9.44,9.44,0,0,1-8.3,4.93c-5.18,0-8.3-2.72-8.3-9.32V99.74c0-.71-.51-1.55-1.17-1.55h-1.85V93.41h5.69c2.24,0,3.12,1.15,3.12,3.34v11.16c0,3,.9,4.94,3.89,4.94,4.37,0,6.93-3.85,6.93-8.17V93.41H155v18.25c0,.67.67.87,1.34.87H158c.09-.5.17-.4.22-.65l6.05-26.47,0,.15c.54-2.15-.22-4.58-2.43-6.86M103.4,89.38H98.08v28.43H92V89.38H86.82c-.66,0-.82.33-.82,1v2H80.21V87.1c0-2.23.86-3,3.14-3h23.52c2.28,0,3,.77,3,3v5.3h-5.54v-2c0-.67-.3-1-1-1m24.37,9.88s-.87-.09-1.73-.09a6.92,6.92,0,0,0-6.7,5.08,14.33,14.33,0,0,0-.63,4v9.61h-6V99.74c0-.71-.38-1.55-1-1.55h-1.71V93.41h5.33c2.13,0,3,1.06,3,3.1v1.42c0,.91.16,1,.16,1h.1a8.66,8.66,0,0,1,8-6,4.63,4.63,0,0,1,1.35.35Z"/><path class="cls-4" d="M171.42,89.83h-3V84.72h14.64c6,0,10.17,3.68,10.17,9.85,0,5.9-4.05,8.34-5.43,8.61v.09a3.75,3.75,0,0,1,1.61,1.66l3.18,6.31c.5,1,1.29,1.06,2.3,1.06h.6v5.11h-3.18c-2.44,0-3.5-.37-4.56-2.44l-4.19-8.24c-.69-1.29-1.38-1.52-3.08-1.52h-3v12.2h-6Zm10.82,10.22c3,0,4.83-1.89,4.83-5.16s-1.79-5.06-4.74-5.06h-4.88v10.22Z"/><path class="cls-4" d="M211.14,102.67h.74v-.18c0-3.36-1.34-4.6-4.33-4.6-1.06,0-3.13.27-3.13,1.56v1.25H199V98.21c0-4.37,6.17-4.84,8.61-4.84,7.82,0,10.12,4.1,10.12,9.35v8.75a.92.92,0,0,0,1,1h1.84v4.93h-5.25c-2.16,0-3-1.2-3-2.58,0-.6,0-1,0-1h-.09A7.63,7.63,0,0,1,205.2,118c-4.19,0-8-2.62-8-7.32,0-7.37,10.13-8,13.95-8m-4.51,10.73c3.13,0,5.34-3.31,5.34-6.17v-.55h-1c-3,0-7.88.41-7.88,3.69,0,1.56,1.15,3,3.55,3"/><path class="cls-4" d="M223.91,98.58h-3V93.93h3.18v-6.4h5.71v6.4h5.34v4.65h-5.34v9.48c0,3.87,3,4.42,4.65,4.42a5.57,5.57,0,0,0,1.06-.09v5.11a10.69,10.69,0,0,1-1.8.14c-3.27,0-9.76-1-9.76-8.84Z"/><path class="cls-4" d="M240.17,99.91a.9.9,0,0,0-1-1h-1.84v-5h5.57c2.16,0,3.08,1,3.08,3.13v14.41a.92.92,0,0,0,1,1h1.84v4.93h-5.57c-2.17,0-3.09-.92-3.09-3.13Zm.28-15.19h5.06v5.39h-5.06Z"/><path class="cls-4" d="M252.72,99.91a.9.9,0,0,0-1-1h-1.84v-5h5.39c2.07,0,3.08,1,3.08,2.62v.69a6.73,6.73,0,0,1-.09,1h.09a9,9,0,0,1,8.29-4.88c5.2,0,8.19,2.71,8.19,8.93v9.16a.92.92,0,0,0,1,1h1.84v4.93h-5.57c-2.21,0-3.13-.92-3.13-3.13V103.5c0-2.85-.74-4.78-3.69-4.78A6.45,6.45,0,0,0,259,103.5a10,10,0,0,0-.46,3.14v10.77h-5.8Z"/><path class="cls-4" d="M289.45,93.38c5.43,0,7.23,3.31,7.23,3.31h.09v-.6c0-1.06.74-2.16,2.58-2.16h5.43v5H303a.89.89,0,0,0-1,.92V116c0,8.06-6.26,11.1-12.39,11.1a18.63,18.63,0,0,1-8.33-2l1.79-4.6a15.21,15.21,0,0,0,6.5,1.56c3.54,0,6.63-1.52,6.63-5.75v-1.11c0-.55,0-1.24,0-1.24h-.09c-1.38,2-3.41,3-6.54,3-6.72,0-10.54-5.43-10.54-11.88s3.63-11.69,10.4-11.69m6.86,11.74c0-5.34-2.67-6.77-5.85-6.77-3.54,0-5.47,2.58-5.47,6.54s2.07,7.13,5.85,7.13c2.8,0,5.47-1.61,5.47-6.9"/><rect class="cls-5" x="304.78" y="112.43" width="5.07" height="5.39"/></g></g></g></svg>