<svg xmlns="http://www.w3.org/2000/svg" xmlns:xlink="http://www.w3.org/1999/xlink" viewBox="0 0 281.55 58.33"><defs><clipPath id="clip-path" transform="translate(-0.22 -0.22)"><rect width="281.55" height="59.61" style="fill:none"/></clipPath><clipPath id="clip-path-3" transform="translate(-0.22 -0.22)"><rect x="0.22" y="0.22" width="281.55" height="58.32" style="fill:none"/></clipPath></defs><title>logo-capita</title><g id="Layer_2" data-name="Layer 2"><g id="Layer_1-2" data-name="Layer 1"><g id="jOXdFi"><g style="clip-path:url(#clip-path)"><g style="clip-path:url(#clip-path)"><g style="clip-path:url(#clip-path-3)"><g style="clip-path:url(#clip-path-3)"><path d="M281.77,57.63l-10.55,0c-1.06,0-1.06,0-1.43-1q-2-5.52-3.94-11c-.31-.87-.31-.88-1.22-.88H245.18c-.86,0-.87,0-1.16.81-1.34,3.78-2.69,7.56-4,11.35-.19.55-.42.81-1.06.79-2.68,0-5.35,0-8,0-.83,0-.83,0-.54-.83l6.81-18.84q6.38-17.65,12.76-35.31c.52-1.47.53-1.47,2.14-1.47h8.36c.95,0,1,0,1.26.84q3.1,8.6,6.2,17.2l13.61,37.56a1.9,1.9,0,0,0,.26.43ZM254.94,36.79h6.7c1.08,0,1.08,0,.72-1.07a1.21,1.21,0,0,1-.09-.2q-2.73-7.74-5.45-15.47c-.55-1.55-1.09-3.1-1.65-4.64a2.29,2.29,0,0,0-.28-.41,4.78,4.78,0,0,0-.23.45L247.39,36c-.28.8-.26.81.63.82h6.92" transform="translate(-0.22 -0.22)" style="fill:#03608c"/><path d="M30.79.22c.62.14,1.23.32,1.85.41A25.58,25.58,0,0,1,41.33,3.5c1.78,1,1.78,1,1.09,2.91-.57,1.57-1.14,3.15-1.73,4.73-.26.69-.28.7-.9.32A24.59,24.59,0,0,0,31.42,8a16.62,16.62,0,0,0-9.71.71,14.66,14.66,0,0,0-8.27,9,28.21,28.21,0,0,0-1.55,8.82c-.07,2.16-.08,4.33,0,6.49a25.34,25.34,0,0,0,1.93,9.28c2.36,5.24,6.46,8,12.11,8.71a33.06,33.06,0,0,0,10.45-.79c1.83-.36,3.61-.91,5.41-1.37a4.52,4.52,0,0,1,.53-.06,2.25,2.25,0,0,1,0,.59c-.82,2.27-1.65,4.53-2.46,6.8a.91.91,0,0,1-.71.72A48.59,48.59,0,0,1,25.45,58.5,25.31,25.31,0,0,1,1.34,39.16c-.41-1.59-.6-3.23-.91-4.84a2,2,0,0,0-.21-.45V26.18a2.26,2.26,0,0,0,.22-.55A31.81,31.81,0,0,1,2.2,17.85C5.92,8.24,12.78,2.4,23,.61c.48-.09.94-.26,1.42-.39Z" transform="translate(-0.22 -0.22)" style="fill:#02608c"/><path d="M76.78,1.15h4.51c.91,0,.91,0,1.22.85q2.91,8,5.82,16.06,6.93,19.16,13.85,38.3c.45,1.24.67,1.23-.81,1.23H92c-1,0-1,0-1.38-1q-2-5.57-4-11.14c-.29-.82-.3-.83-1.13-.83H66c-.82,0-.82,0-1.11.84q-2,5.52-3.92,11c-.38,1.05-.37,1.06-1.43,1.06H51.82c-.87,0-.88,0-.59-.83Q54,49,56.83,41.22L71,2.1c.34-.94.35-.94,1.39-1h4.4M75.66,36.79h6.7a3.19,3.19,0,0,0,.76,0,.43.43,0,0,0,.26-.34,3.27,3.27,0,0,0-.21-.74C82.59,34,82,32.39,81.42,30.74q-2.67-7.59-5.33-15.17c-.09-.24-.19-.47-.29-.71a4.48,4.48,0,0,0-.34.65L68.17,36.13c-.22.63-.21.65.46.66h7" transform="translate(-0.22 -0.22)" style="fill:#03608c"/><path d="M113.75,29.38V2.66c0-.22,0-.44,0-.65,0-.84,0-.85,1-.85,4.55,0,9.09,0,13.63,0,2,0,4,0,6,.19,4.78.46,9.13,2,12.54,5.56a16.59,16.59,0,0,1,4.41,9.47,18.46,18.46,0,0,1-1.21,9.78,16,16,0,0,1-8.76,8.78A21.71,21.71,0,0,1,133,36.75c-2.49,0-5,0-7.47,0-1,0-1-.13-1,1V56.25c0,.26,0,.52,0,.77,0,.41-.12.61-.56.58s-.81,0-1.21,0h-8c-1,0-1,0-1-1V29.38m10.73-10.46v9c0,1.36,0,1.36,1.41,1.36s3,0,4.51,0a20.73,20.73,0,0,0,3.16-.28,7,7,0,0,0,6-5.5,19.34,19.34,0,0,0,0-8.92,6.5,6.5,0,0,0-4.4-5.05,14.51,14.51,0,0,0-3.76-.69c-2-.12-4.1-.05-6.15-.05-.75,0-.76,0-.77.78v9.35" transform="translate(-0.22 -0.22)" style="fill:#03608c"/><path d="M202.86,33.21q0-11.43,0-22.87c0-1.53.21-1.3-1.36-1.3H188c-.78,0-.79,0-.79-.76,0-1.72,0-3.44,0-5.16,0-.48,0-1,0-1.43s.11-.56.5-.53.52,0,.77,0H229c1.31,0,1.3,0,.84,1.26-.72,2-1.46,3.9-2.13,5.87a1,1,0,0,1-1.09.77c-3.95,0-7.91,0-11.87,0a3.29,3.29,0,0,0-.77,0,.65.65,0,0,0-.39.37,4.2,4.2,0,0,0,0,.87V56.36c0,1.44.17,1.23-1.21,1.23-2.86,0-5.71,0-8.57,0-1,0-.94,0-.94-1V33.21" transform="translate(-0.22 -0.22)" style="fill:#04608d"/><path d="M164.09,29.48V2.54a6.57,6.57,0,0,0,0-.77c0-.49.18-.62.64-.62,3.12,0,6.23,0,9.35,0,.71,0,.71,0,.74.76V56.36c0,1.4.16,1.24-1.22,1.24H165c-1,0-.93.11-.93-1V29.48" transform="translate(-0.22 -0.22)" style="fill:#04608d"/></g></g></g></g></g></g></g></svg>