<svg xmlns="http://www.w3.org/2000/svg" viewBox="0 0 598.12 170.9"><defs><style>.cls-1,.cls-2{fill:#00588c;}.cls-2{opacity:0.3;}</style></defs><title>logo-olice</title><g id="Layer_2" data-name="Layer 2"><g id="Layer_1-2" data-name="Layer 1"><g id="Olice_Logo_V4" data-name="Olice Logo V4"><path class="cls-1" d="M507.37,133.61a28.3,28.3,0,0,1-7.13,4.08,33,33,0,0,1-23.13,0,27.1,27.1,0,0,1-9-5.82,26.3,26.3,0,0,1-5.28-7.4H548.9a61.64,61.64,0,0,0,1.16-12,57.72,57.72,0,0,0-4.55-23,56.93,56.93,0,0,0-12.7-18.59,58.91,58.91,0,0,0-19.47-12.42,70.44,70.44,0,0,0-49.44,0,58.14,58.14,0,0,0-19.32,12.42,57.07,57.07,0,0,0-12.64,18.59,60.36,60.36,0,0,0,0,46,56.83,56.83,0,0,0,32,31,70.29,70.29,0,0,0,49.44,0A58.42,58.42,0,0,0,532.81,154a56.52,56.52,0,0,0,10-13.08ZM468.07,93a26.75,26.75,0,0,1,9-5.8,33,33,0,0,1,23.13,0,27.15,27.15,0,0,1,9.11,5.8,26.74,26.74,0,0,1,5.8,8.41H462.3A26.66,26.66,0,0,1,468.07,93"/><rect class="cls-2" x="196.45" y="5.99" width="38.58" height="160.39"/><polygon class="cls-1" points="229.59 166.39 235.02 166.39 235.02 5.99 196.45 5.99 196.45 11.12 229.59 11.12 229.59 166.39"/><path class="cls-1" d="M383.73,54q1.49,0,2.94.06Q385.22,54,383.73,54Z"/><path class="cls-1" d="M397.25,88.23c-.69-.35-1.4-.66-2.13-1Q396.22,87.71,397.25,88.23Z"/><path class="cls-1" d="M390,54.24c-.95-.08-1.91-.14-2.88-.19C388.08,54.1,389,54.16,390,54.24Z"/><path class="cls-1" d="M345.74,65.39a58.37,58.37,0,0,1,8.73-5.14A58.37,58.37,0,0,0,345.74,65.39Z"/><path class="cls-1" d="M396.43,55.13a38.38,38.38,0,0,1,3,34.31h0A26.27,26.27,0,0,1,404,93a24.19,24.19,0,0,1,2,2.26,76.18,76.18,0,0,1,4.53-14.44,80.77,80.77,0,0,1,9.21-16.15A61.29,61.29,0,0,0,408,58.43a64.11,64.11,0,0,0-17.9-4.17Q393.33,54.55,396.43,55.13Z"/><path class="cls-1" d="M339.24,70.85a55.74,55.74,0,0,1,6.5-5.46,55.74,55.74,0,0,0-6.5,5.46l-.11.1Z"/><path class="cls-1" d="M366.88,89.66a28.56,28.56,0,0,1,4.44-2.29A28.56,28.56,0,0,0,366.88,89.66Z"/><path class="cls-1" d="M383.35,85.08c-1.19,0-2.35.07-3.49.18,1.14-.11,2.3-.18,3.49-.18Z"/><path class="cls-1" d="M358,99.25c-.42.78-.81,1.58-1.16,2.41a25.79,25.79,0,0,0-1.6,5.19,25.79,25.79,0,0,1,1.6-5.19C357.17,100.83,357.56,100,358,99.25Z"/><path class="cls-1" d="M327.08,88.38c.75-1.66,1.56-3.26,2.43-4.82C328.63,85.11,327.83,86.72,327.08,88.38Z"/><path class="cls-1" d="M329.55,83.48c.42-.74.86-1.48,1.31-2.2C330.41,82,330,82.74,329.55,83.48Z"/><path class="cls-1" d="M339.24,154A57.55,57.55,0,0,1,322,112.42a57.73,57.73,0,0,1,4.56-23c.15-.36.32-.7.48-1.06A38.7,38.7,0,0,0,354.71,113c0-.18,0-.35,0-.53a28.21,28.21,0,0,1,.54-5.57,28.21,28.21,0,0,0-.54,5.57,27.05,27.05,0,0,0,2.14,10.76,26.59,26.59,0,0,0,5.91,8.69,27.16,27.16,0,0,0,9,5.82Z"/><path class="cls-1" d="M336.42,73.84c.3-.35.6-.69.91-1C337,73.15,336.72,73.49,336.42,73.84Z"/><path class="cls-1" d="M334.38,76.28c.38-.48.76-1,1.16-1.45C335.14,75.31,334.76,75.8,334.38,76.28Z"/><path class="cls-1" d="M332.59,78.68c.42-.6.84-1.19,1.28-1.76C333.43,77.49,333,78.08,332.59,78.68Z"/><path class="cls-1" d="M331,81.06c.43-.67.86-1.34,1.32-2C331.86,79.72,331.43,80.39,331,81.06Z"/><path class="cls-1" d="M339.24,154a57.73,57.73,0,0,0,19.32,12.42,70.59,70.59,0,0,0,49.44,0,61.38,61.38,0,0,0,11.79-6.21,80.24,80.24,0,0,1-9.22-16.14A75.78,75.78,0,0,1,406,129.62a25.41,25.41,0,0,1-2,2.25,27.51,27.51,0,0,1-9.11,5.82,33,33,0,0,1-23.13,0Z"/><path class="cls-1" d="M559.54,151.61a18.61,18.61,0,0,0,1.51,7.47,19.67,19.67,0,0,0,4.16,6.14,19.38,19.38,0,0,0,6.15,4.16,19.12,19.12,0,0,0,14.94,0,19.64,19.64,0,0,0,10.3-10.3,19.12,19.12,0,0,0,0-14.94,19.66,19.66,0,0,0-4.16-6.15Z"/><path class="cls-1" d="M498.39,54.58a76.15,76.15,0,0,0-19.55,0,76.15,76.15,0,0,1,19.55,0Z"/><path class="cls-1" d="M488.69,85.08h0c-1.05,0-2.08,0-3.09.13C486.61,85.12,487.64,85.08,488.69,85.08Z"/><path class="cls-1" d="M533.81,71.87a56.14,56.14,0,0,1,8.59,11.38A56.14,56.14,0,0,0,533.81,71.87Z"/><path class="cls-1" d="M469.8,91.44c-.6.49-1.18,1-1.73,1.53A26.27,26.27,0,0,0,466,95.34,26.27,26.27,0,0,1,468.07,93C468.62,92.43,469.2,91.93,469.8,91.44Z"/><path class="cls-1" d="M432.69,87.8a57.63,57.63,0,0,1,7.71-12.37A57.63,57.63,0,0,0,432.69,87.8Z"/><path class="cls-1" d="M546.62,92.28c-.33-.93-.69-1.84-1.08-2.75C545.93,90.44,546.29,91.35,546.62,92.28Z"/><path class="cls-1" d="M547.61,95.25q-.39-1.29-.84-2.55Q547.22,94,547.61,95.25Z"/><path class="cls-1" d="M559.54,151.61a18.57,18.57,0,0,1,1.51-7.47,19.59,19.59,0,0,1,10.31-10.31,19.23,19.23,0,0,1,14.94,0,19.67,19.67,0,0,1,6.14,4.16Z"/></g><path class="cls-1" d="M172.62,51.84A83,83,0,0,0,154,24.69a80,80,0,0,0-7-6l-18.76,44L144.81,24c1.79,1.45,3.52,3,5.17,4.56A77.81,77.81,0,0,1,167.38,54a78.74,78.74,0,0,1,6.19,29.33,36.46,36.46,0,0,1,5.53,7.52c.11-1.77.18-3.55.18-5.36A84.79,84.79,0,0,0,172.62,51.84Z"/><path class="cls-1" d="M123.33,159.38a91.19,91.19,0,0,1-33.8,6.13,97.17,97.17,0,0,1-20.32-2.12l0,0a82.92,82.92,0,0,1-13.55-4.05,78.87,78.87,0,0,1-26.45-17,77.55,77.55,0,0,1-13.56-17.83l31.66-23.63L15.65,124.53a77.72,77.72,0,0,1-3.75-7.6A79,79,0,0,1,5.65,85.45,78.91,78.91,0,0,1,29.19,28.52a77.54,77.54,0,0,1,22-15L46.34,9.7c1.12-.56,2.27-1.1,3.42-1.63A82.75,82.75,0,0,0,6.66,51.84,84.44,84.44,0,0,0,0,85.45a83.41,83.41,0,0,0,53.35,78.9,96.93,96.93,0,0,0,36.18,6.55,97.25,97.25,0,0,0,36.07-6.55A85.15,85.15,0,0,0,154,146.21l.36-.38a45.42,45.42,0,0,1-9.7,1.2A81.61,81.61,0,0,1,123.33,159.38Z"/><path class="cls-1" d="M172.62,119.05a83.48,83.48,0,0,0,6.49-28.22,36.48,36.48,0,0,0-6.56-8.62,38,38,0,0,0-12.62-8,43,43,0,0,0-16-2.9,45.56,45.56,0,0,0-11,1.33,43.74,43.74,0,0,1,1.87,12.85,42.61,42.61,0,0,1-3.36,16.91A41.9,41.9,0,0,1,122.06,116a42.89,42.89,0,0,1-14.33,9.14h0a36.52,36.52,0,0,0,20.18,19,42.79,42.79,0,0,0,16,2.9,44.87,44.87,0,0,0,10.46-1.22A82.9,82.9,0,0,0,172.62,119.05Z"/><path class="cls-1" d="M143.94,147.05a42.79,42.79,0,0,1-16-2.9,36.52,36.52,0,0,1-20.18-19,48.87,48.87,0,0,1-18.13,3.29c-1.84,0-3.62-.09-5.37-.26l-15,35.19a97.17,97.17,0,0,0,20.32,2.12,91.19,91.19,0,0,0,33.8-6.13A81.76,81.76,0,0,0,144.72,147C144.45,147,144.2,147.05,143.94,147.05Z"/><path class="cls-1" d="M71.37,125.17a41.8,41.8,0,0,1-23.51-22.81c-.2-.48-.39-1-.57-1.45L15.63,124.54a77.55,77.55,0,0,0,13.56,17.83,78.87,78.87,0,0,0,26.45,17,82.92,82.92,0,0,0,13.55,4.05l15-35.23A46.61,46.61,0,0,1,71.37,125.17Z"/><path class="cls-1" d="M44.51,85.45A41.92,41.92,0,0,1,71.37,45.73,48.08,48.08,0,0,1,88,42.47l-36.86-29a77.54,77.54,0,0,0-22,15A78.91,78.91,0,0,0,5.65,85.45a79,79,0,0,0,6.25,31.48,77.72,77.72,0,0,0,3.75,7.6l31.64-23.62A42.68,42.68,0,0,1,44.51,85.45Z"/><path class="cls-1" d="M125.6,6.54A97.25,97.25,0,0,0,89.53,0,96.93,96.93,0,0,0,53.35,6.54c-2.41,1-4.74,2-7,3.16L88,42.47c.53,0,1,0,1.58,0a48.76,48.76,0,0,1,18.14,3.29,43,43,0,0,1,14.33,9.12,41.47,41.47,0,0,1,6.24,7.82l18.77-44A88.44,88.44,0,0,0,125.6,6.54Z"/><path class="cls-1" d="M167.38,54A77.81,77.81,0,0,0,150,28.52c-1.65-1.6-3.38-3.11-5.17-4.56L128.3,62.67a43.6,43.6,0,0,1,3.11,5.86,42.15,42.15,0,0,1,1.49,4.07,45.56,45.56,0,0,1,11-1.33,43,43,0,0,1,16,2.9,38,38,0,0,1,12.62,8c.36.36.68.74,1,1.11A78.85,78.85,0,0,0,167.38,54Z"/><rect class="cls-1" x="196.45" y="11.12" width="33.14" height="33.14"/><path class="cls-1" d="M229.59,102.91V44.26H196.45V96.11a53.82,53.82,0,0,1,33.14,6.8Z"/><path class="cls-1" d="M229.59,102.91a53.82,53.82,0,0,0-33.14-6.8v70.28h33.14Z"/><path class="cls-1" d="M295.78,78.21a46.38,46.38,0,0,1,4.73.25V48.82H261.93V92.28C271.17,83.49,283,78.21,295.78,78.21Z"/><path class="cls-1" d="M295.78,78.21c-12.83,0-24.61,5.28-33.85,14.07v39.89h38.58V78.46A46.38,46.38,0,0,0,295.78,78.21Z"/><rect class="cls-1" x="261.93" y="132.17" width="38.58" height="34.22"/><path class="cls-1" d="M354.68,112.42a27.16,27.16,0,0,1,2.14-10.76,26.56,26.56,0,0,1,14.94-14.49,33,33,0,0,1,23.13,0,29.59,29.59,0,0,1,4.54,2.27,38.38,38.38,0,0,0-3-34.31A71.73,71.73,0,0,0,383.3,54a66.37,66.37,0,0,0-24.74,4.48,58,58,0,0,0-19.32,12.42,56.89,56.89,0,0,0-12.16,17.53A38.7,38.7,0,0,0,354.71,113C354.71,112.77,354.68,112.6,354.68,112.42Z"/><path class="cls-1" d="M427.66,106.52c.07-.73.16-1.44.25-2.16C427.82,105.08,427.73,105.79,427.66,106.52Z"/><path class="cls-1" d="M429.78,95.45c.53-1.77,1.15-3.52,1.85-5.23C430.93,91.93,430.31,93.68,429.78,95.45Z"/><path class="cls-1" d="M431.64,90.19h0l.29-.72Z"/><path class="cls-1" d="M429.06,98.14c.22-.9.46-1.79.72-2.68C429.52,96.35,429.27,97.24,429.06,98.14Z"/><path class="cls-1" d="M428.46,100.88q.26-1.32.57-2.61Q428.72,99.56,428.46,100.88Z"/><path class="cls-1" d="M428,103.67c.12-.82.26-1.63.41-2.44C428.25,102,428.11,102.85,428,103.67Z"/><path class="cls-1" d="M433.87,90.75l.66.22Z"/><path class="cls-1" d="M442.75,95.83l-.29-.27Z"/><path class="cls-1" d="M444.38,97.49l-.21-.23Z"/><path class="cls-1" d="M436.07,91.54l.65.28Z"/><path class="cls-1" d="M440.68,94.11l.05,0Z"/><path class="cls-1" d="M438.33,92.63l.39.21Z"/><path class="cls-1" d="M427.46,109.43c0-.54.07-1.08.11-1.62C427.53,108.35,427.48,108.89,427.46,109.43Z"/><path class="cls-1" d="M437.94,132.42c.17-.09.34-.17.5-.27C438.28,132.25,438.11,132.33,437.94,132.42Z"/><path class="cls-1" d="M429,126.62c-.21-.88-.4-1.76-.57-2.66C428.63,124.86,428.82,125.74,429,126.62Z"/><path class="cls-1" d="M440.07,131.15l.18-.12Z"/><path class="cls-1" d="M435.88,133.39l.63-.28Z"/><path class="cls-1" d="M433.79,134.12l.61-.2Z"/><path class="cls-1" d="M431.64,134.65Z"/><path class="cls-1" d="M431.64,134.65c-.36-.86-.69-1.73-1-2.6l0,0a55.85,55.85,0,0,1-1.61-5.4,55.12,55.12,0,0,0,2.89,8.73c-.11-.25-.19-.52-.3-.77Z"/><path class="cls-1" d="M549,101.38H447.14a22.51,22.51,0,0,1-.61,23.09H548.9a61.64,61.64,0,0,0,1.16-12A60.52,60.52,0,0,0,549,101.38Z"/><path class="cls-1" d="M450,112.42a22.65,22.65,0,0,0-18.39-22.23,60.26,60.26,0,0,0,0,44.46A22.64,22.64,0,0,0,450,112.42Z"/><path class="cls-1" d="M427.56,117c0-.52-.08-1-.1-1.58C427.48,116,427.53,116.48,427.56,117Z"/><path class="cls-1" d="M427.91,120.48c-.09-.71-.18-1.42-.25-2.15C427.73,119.06,427.82,119.77,427.91,120.48Z"/><path class="cls-1" d="M428.4,123.65c-.15-.82-.29-1.64-.41-2.47C428.11,122,428.25,122.83,428.4,123.65Z"/><path class="cls-1" d="M428.38,101.36v0h0Z"/><path class="cls-1" d="M430.65,92.79c.29-.81.6-1.62.92-2.42C431.25,91.17,430.93,92,430.65,92.79Z"/><path class="cls-1" d="M429.78,95.45c.26-.86.54-1.71.83-2.55C430.32,93.74,430,94.59,429.78,95.45Z"/><path class="cls-1" d="M463.9,58.43a70.44,70.44,0,0,1,49.44,0,58.91,58.91,0,0,1,19.47,12.42,56.93,56.93,0,0,1,12.7,18.59,55.36,55.36,0,0,1,3.56,11.94H515.15a26.74,26.74,0,0,0-5.8-8.41,27.15,27.15,0,0,0-9.11-5.8,33,33,0,0,0-23.13,0Z"/><path class="cls-1" d="M429,98.35v0Z"/><path class="cls-1" d="M463.9,58.43a58.14,58.14,0,0,0-19.32,12.42,57.07,57.07,0,0,0-12.64,18.59c-.11.25-.19.5-.3.75a22.68,22.68,0,0,1,15.5,11.19H462.3a26.41,26.41,0,0,1,14.81-14.21Z"/><path class="cls-1" d="M428.57,124.47h0c.12.58.26,1.16.4,1.74C428.81,125.63,428.69,125.05,428.57,124.47Z"/><path class="cls-1" d="M430.64,132c-.3-.86-.58-1.72-.84-2.59C430.05,130.31,430.34,131.17,430.64,132Z"/><path class="cls-1" d="M548.57,99c-.27-1.19-.57-2.38-.91-3.54C548,96.6,548.3,97.79,548.57,99Z"/><path class="cls-1" d="M548.86,100.34c-.1-.45-.19-.91-.29-1.36C548.67,99.43,548.76,99.89,548.86,100.34Z"/><path class="cls-1" d="M548.86,100.34c.07.35.12.7.18,1h0C549,101,548.93,100.69,548.86,100.34Z"/><path class="cls-1" d="M429.73,129.19c-.24-.79-.45-1.59-.65-2.4C429.27,127.6,429.49,128.4,429.73,129.19Z"/><path class="cls-1" d="M463.9,166.41a56.83,56.83,0,0,1-32-31c-.47-1.11-.9-2.24-1.3-3.37.31.87.64,1.74,1,2.6a22.62,22.62,0,0,0,14.89-10.18h16.26a26.3,26.3,0,0,0,5.28,7.4,27.1,27.1,0,0,0,9,5.82Z"/><path class="cls-1" d="M463.9,166.41a70.29,70.29,0,0,0,49.44,0A58.42,58.42,0,0,0,532.81,154a56.52,56.52,0,0,0,10-13.08l-35.43-7.31a28.3,28.3,0,0,1-7.13,4.08,33,33,0,0,1-23.13,0Z"/></g></g></svg>