<svg xmlns="http://www.w3.org/2000/svg" xmlns:xlink="http://www.w3.org/1999/xlink" viewBox="0 0 261.22 82.53"><defs><clipPath id="clip-path" transform="translate(-0.13 -0.13)"><rect width="261.22" height="82.53" style="fill:none"/></clipPath><clipPath id="clip-path-3" transform="translate(-0.13 -0.13)"><rect x="0.13" y="0.13" width="261.22" height="82.53" style="fill:none"/></clipPath></defs><title>logo-cqc</title><g id="Layer_2" data-name="Layer 2"><g id="Layer_1-2" data-name="Layer 1"><g id="Client_CQC" data-name="Client CQC"><g style="clip-path:url(#clip-path)"><g style="clip-path:url(#clip-path)"><g style="clip-path:url(#clip-path-3)"><g style="clip-path:url(#clip-path-3)"><path d="M40.5.13c1.15.2,2.3.35,3.43.62a27,27,0,0,1,5.14,1.4c.62.28,1.32.4,1.93.69,1.35.63,2.68,1.3,4,2a21.15,21.15,0,0,1,2.17,1.26c.94.63,1.85,1.28,2.73,2C61,8.89,62,9.73,63,10.64a22.65,22.65,0,0,1,2,2.17c.88,1.06,1.73,2.14,2.55,3.25a17.59,17.59,0,0,1,1.16,1.86c.71,1.27,1.41,2.55,2.08,3.85a12.94,12.94,0,0,1,.71,1.78c.45,1.38.87,2.77,1.31,4.15a31,31,0,0,1,1.12,10.23,40.49,40.49,0,0,1-.41,5.39,41.6,41.6,0,0,1-1.19,4.61,17.24,17.24,0,0,1-.73,2.24c-.68,1.56-1.34,3.13-2.17,4.62a45.27,45.27,0,0,1-3,4.68,31.67,31.67,0,0,1-3,3.43c-1.1,1.12-2.29,2.15-3.46,3.19a17.37,17.37,0,0,1-1.5,1.07,19.68,19.68,0,0,1,2.36.34A42.14,42.14,0,0,1,65,68.9a22.48,22.48,0,0,1,3.39,1.72,21.05,21.05,0,0,1,2.36,1.87.43.43,0,0,1-.08.36c-1.31,1.12-2.64,2.22-4,3.35-1.16,1-2.29,2-3.45,3s-2.08,1.64-3.1,2.48c-.35.29-.65.65-1,1h-.38a1.22,1.22,0,0,0-.14-.35,25.13,25.13,0,0,0-4.36-3.88,23,23,0,0,0-5.72-2.79,24.46,24.46,0,0,0-3.34-1c-1.78-.31-3.58-.53-5.38-.67-2.86-.22-5.75.13-8.58-.52-.81-.19-1.64-.29-2.44-.5a46.47,46.47,0,0,1-4.55-1.3,48.25,48.25,0,0,1-4.58-2.07,29,29,0,0,1-3.24-1.88c-1.19-.81-2.32-1.72-3.43-2.64a27,27,0,0,1-2.56-2.34,35.13,35.13,0,0,1-2.41-2.89c-.91-1.2-1.79-2.43-2.62-3.68a20.51,20.51,0,0,1-1.21-2.27c-.52-1-1-2.06-1.49-3.11a15.31,15.31,0,0,1-.65-1.87c-.47-1.63-1-3.25-1.37-4.89C.48,42.88.34,41.69.13,40.5v-7a12.21,12.21,0,0,0,.34-1.18c.2-1.07.3-2.16.56-3.21C1.45,27.39,2,25.69,2.44,24a8.82,8.82,0,0,1,.66-1.73C4,20.64,4.84,19,5.73,17.42a11.11,11.11,0,0,1,.76-1.24c.58-.79,1.16-1.57,1.79-2.31.81-1,1.64-1.91,2.52-2.81s1.65-1.56,2.51-2.3a31.92,31.92,0,0,1,2.53-2c1.07-.72,2.19-1.37,3.32-2,1.29-.7,2.61-1.34,3.93-2a15.66,15.66,0,0,1,2-.7c1.64-.48,3.27-1,4.92-1.37C31.23.48,32.5.34,33.75.13ZM37,64.46l.06.18,4.56-.53A7,7,0,0,0,43,63.9c1.54-.47,3.09-1,4.6-1.52a14.09,14.09,0,0,0,2.87-1.32A47.06,47.06,0,0,0,54.65,58a23.67,23.67,0,0,0,3-2.86,26.44,26.44,0,0,0,2.72-3.76,37,37,0,0,0,2.18-4.53,19.81,19.81,0,0,0,1.12-3.63,35,35,0,0,0,.63-4.56,24.83,24.83,0,0,0-1-8.86A31.14,31.14,0,0,0,62,25.9a27.51,27.51,0,0,0-2-3.7,25.74,25.74,0,0,0-2.48-3.38,26.68,26.68,0,0,0-3.14-3,37.25,37.25,0,0,0-3.64-2.57c-.85-.53-1.83-.87-2.72-1.36a21.21,21.21,0,0,0-5.69-1.86A26,26,0,0,0,39,9.59c-.71-.07-1.43,0-2.15,0l0,.16a25.82,25.82,0,0,1,11.75,5.86A25.36,25.36,0,0,1,56.2,26.24,22,22,0,0,0,43.47,16.08a21.48,21.48,0,0,0-16.54,1.51A21.83,21.83,0,0,0,17.79,47.5a20.66,20.66,0,0,0,17,11.34c9.1.86,16.16-3,21.23-10.62a2,2,0,0,1-.17.8c-.46.87-.92,1.73-1.44,2.56a23.62,23.62,0,0,1-1.82,2.7,46.48,46.48,0,0,1-3.23,3.5,18.21,18.21,0,0,1-2.43,1.95,23.58,23.58,0,0,1-2.86,1.79c-1.41.73-2.86,1.39-4.33,2a22.42,22.42,0,0,1-2.46.71,1.7,1.7,0,0,0-.34.23" transform="translate(-0.13 -0.13)" style="fill:#5f2961"/><path d="M261.35,16.43c-.39.92-.77,1.83-1.15,2.75-.47,1.1-.93,2.21-1.38,3.32-.27.66-.5,1.33-.75,2-.78,2.05-1.55,4.09-2.34,6.12-.5,1.3-1,2.59-1.55,3.87a18.72,18.72,0,0,1-2.82,5.36,5.65,5.65,0,0,1-3.4,1.92,17.94,17.94,0,0,1-1.79.26,9.43,9.43,0,0,1-4.36-1,.53.53,0,0,1-.22-.46c.38-1,.79-2,1.21-3a.43.43,0,0,1,.4-.11,5.46,5.46,0,0,0,3.75.3,2.61,2.61,0,0,0,1.62-1.43,16.15,16.15,0,0,0,1.05-2.32,1.16,1.16,0,0,0,0-.78c-.69-1.7-1.42-3.39-2.13-5.09-.53-1.25-1-2.51-1.58-3.77-.76-1.82-1.51-3.64-2.28-5.46-.39-.92-.8-1.84-1.25-2.85h5.16l4.63,12.08a2.68,2.68,0,0,0,.28-.44c.46-1.34.9-2.69,1.38-4s1-2.64,1.46-4,.87-2.43,1.32-3.71h4.75Z" transform="translate(-0.13 -0.13)" style="fill:#75787d"/><path d="M172.51,31.91c.81.31,1.7.62,2.56,1a4.44,4.44,0,0,1,1,.68c.08.07.11.4,0,.46-1.27,1.09-2.57,2.16-3.87,3.23,0,0-.08,0-.11,0A8.16,8.16,0,0,0,169,35a11,11,0,0,0-3.89-.62,13.2,13.2,0,0,1-4.89-1,10.19,10.19,0,0,1-4.3-3.51,12,12,0,0,1-2.31-6.42,12.29,12.29,0,0,1-.19-2,19.24,19.24,0,0,1,.62-4.1A11.11,11.11,0,0,1,157.42,12a11.83,11.83,0,0,1,4.11-2.19,12.32,12.32,0,0,1,6.26-.24,10.28,10.28,0,0,1,6,3.43,12.79,12.79,0,0,1,2.68,5.57,13.38,13.38,0,0,1,.19,5.34,11.87,11.87,0,0,1-2.81,6.52c-.46.49-.88,1-1.29,1.5m-1-9.86c0-3.26-.61-5.43-2.95-7.37a5.71,5.71,0,0,0-4.08-1.22,6.77,6.77,0,0,0-2.22.71,5.45,5.45,0,0,0-2.9,3.37,13.07,13.07,0,0,0-.73,3.5c-.18,2.62.22,5.08,2.15,7.12a6.5,6.5,0,0,0,4.05,1.89,6.19,6.19,0,0,0,2.82-.52,3.34,3.34,0,0,0,1.27-.75,7.73,7.73,0,0,0,2.3-4.17,18.64,18.64,0,0,0,.29-2.56" transform="translate(-0.13 -0.13)" style="fill:#75787c"/><path d="M101.56,27.84l2.11,3.43a10.07,10.07,0,0,1-4.54,2.33c-1.06.24-2.14.38-3.21.55a4.24,4.24,0,0,1-1.35.17,18.36,18.36,0,0,1-4.9-1.14,12.7,12.7,0,0,1-3.14-2.05,9.61,9.61,0,0,1-1.91-2.57A16.52,16.52,0,0,1,83.23,25,14.39,14.39,0,0,1,83,21.77a11.91,11.91,0,0,1,.7-4.4,12.55,12.55,0,0,1,2.42-4.2,11.85,11.85,0,0,1,5.55-3.35,14.65,14.65,0,0,1,7-.23,9.87,9.87,0,0,1,4.53,2,4.34,4.34,0,0,1,.39.44c-.71,1.09-1.42,2.21-2.16,3.35A9.27,9.27,0,0,0,94,13.77a6.38,6.38,0,0,0-3.8,2.08,8.27,8.27,0,0,0-1.86,3.54,9.45,9.45,0,0,0-.18,3.81,7.69,7.69,0,0,0,2.76,5.17,7,7,0,0,0,4,1.42,11.12,11.12,0,0,0,4.74-.9,16.27,16.27,0,0,0,1.88-1.05" transform="translate(-0.13 -0.13)" style="fill:#75787c"/><path d="M153.62,64.52c-1,0-1.87,0-2.76,0-.36,0-.4-.2-.4-.49,0-.74,0-1.49,0-2.23V47h2.75c0,.38,0,.73.06,1.14.53-.25,1-.44,1.48-.7a7.31,7.31,0,0,1,5.72-.7,6.85,6.85,0,0,1,2,1.32c.26.21.39.34.74.16a18.77,18.77,0,0,1,3.21-1.44,12.72,12.72,0,0,1,3.27-.26,4.74,4.74,0,0,1,3.62,1.67,5.36,5.36,0,0,1,1.16,2.08,15.78,15.78,0,0,1,.45,3.56c0,3.5,0,7,0,10.58h-3.17v-.65c0-3.58,0-7.17-.05-10.76a6,6,0,0,0-.67-2.71c-.67-1.17-1.94-1.24-3.18-1.12a8.89,8.89,0,0,0-3.58,1.2.61.61,0,0,0-.25.49c0,1.18.15,2.37.16,3.55,0,3.14,0,6.29,0,9.43,0,.54-.16.69-.68.66-.8,0-1.61,0-2.47,0v-.75c0-3.71,0-7.43,0-11.14a3.23,3.23,0,0,0-.62-2.44,2.94,2.94,0,0,0-1.3-.87,7.24,7.24,0,0,0-5.33,1.14c-.15.08-.2.44-.2.66,0,4.21,0,8.41,0,12.61Z" transform="translate(-0.13 -0.13)" style="fill:#75787c"/><path d="M136.42,64.48h-3v-.73c0-3.46,0-6.92,0-10.38a19.91,19.91,0,0,0-.27-2.16,2,2,0,0,0-1.33-1.75,6.61,6.61,0,0,0-2.31-.22,7.87,7.87,0,0,0-3.45,1.22c-.15.08-.24.41-.24.62,0,3.91,0,7.81,0,11.72v1.66h-3.14V47.05h2.75c0,.36,0,.71.06,1.13.58-.26,1.11-.47,1.62-.74a7.36,7.36,0,0,1,5.6-.69A3.34,3.34,0,0,1,134.66,48c.42.58.92.31,1.38.07s.9-.58,1.39-.79a8.57,8.57,0,0,1,5.63-.56,4.74,4.74,0,0,1,3.7,3.64,16.49,16.49,0,0,1,.4,3.35c.06,3.4,0,6.8,0,10.19,0,.49-.11.68-.63.66-.82-.05-1.65,0-2.53,0v-.75q0-4.91,0-9.81a13,13,0,0,0-.12-2.16c-.26-1.58-1-2.53-2.71-2.62a8.88,8.88,0,0,0-4.72,1.27.55.55,0,0,0-.18.42c0,3.22.09,6.45.13,9.67,0,1.29,0,2.58,0,3.94" transform="translate(-0.13 -0.13)" style="fill:#75787d"/><path d="M189.5,16.08h4.8V33.59h-4.11c0-.34,0-.69-.06-1.07a10.47,10.47,0,0,1-3.88,1.56,7.15,7.15,0,0,1-4.3-.67,4.82,4.82,0,0,1-2.44-2.77,15.43,15.43,0,0,1-.77-4c-.1-3.39,0-6.79,0-10.19,0-.1,0-.21,0-.42h1.63c.89,0,1.78,0,2.67,0,.52,0,.71.15.71.69q0,4,0,8.09c0,1.14.08,2.28.15,3.42S185,29.9,186,30a5.72,5.72,0,0,0,3.31-1c.14-.06.21-.43.21-.66q0-5.76,0-11.52Z" transform="translate(-0.13 -0.13)" style="fill:#75787c"/><path d="M149.9,26.47H138.35A3.54,3.54,0,0,0,140,29.56c1.81,1.18,3.75,1,5.68.28.62-.22,1.23-.46,1.85-.69.42.84.85,1.64,1.25,2.45s.27.81-.53,1.2a12.71,12.71,0,0,1-8.1,1.15A7.57,7.57,0,0,1,135,30.34a8.23,8.23,0,0,1-1.15-3.19c-.08-.54-.2-1.07-.25-1.6a10.39,10.39,0,0,1,.55-4.11A8.36,8.36,0,0,1,137.48,17a6.48,6.48,0,0,1,3.24-1.18,9.08,9.08,0,0,1,1.85-.19c2,.22,3.9.73,5.26,2.43a10,10,0,0,1,1.71,3.41,15.27,15.27,0,0,1,.36,5M145.41,23a3.36,3.36,0,0,0-2.75-3.75A3.88,3.88,0,0,0,138.39,23Z" transform="translate(-0.13 -0.13)" style="fill:#75787d"/><path d="M115.6,33.57c0-.36,0-.67-.07-1a8.13,8.13,0,0,1-6.55,1.3,4.69,4.69,0,0,1-3.15-2.31,6.23,6.23,0,0,1-.74-4.29,5.2,5.2,0,0,1,2.56-3.67,8.35,8.35,0,0,1,3.2-1.17l4.38-.54c.26-1.58-.62-2.31-2-2.51a8.47,8.47,0,0,0-4.76.85,8.09,8.09,0,0,1-.85.3l-.89-1.6c-.15-.27-.3-.54-.47-.8-.28-.46-.19-.74.3-1a10,10,0,0,1,4.33-1.34c.41,0,.81-.17,1.22-.21a9.91,9.91,0,0,1,4,.55A4.68,4.68,0,0,1,119.32,19a7.77,7.77,0,0,1,.49,2.37c0,3.94,0,7.89,0,11.84,0,.12,0,.24,0,.39Zm-.32-8.21c-.73,0-1.4,0-2.07,0a5.7,5.7,0,0,0-3.07.9,2.21,2.21,0,0,0-.85,2.21,1.79,1.79,0,0,0,1.32,1.65,5,5,0,0,0,4.24-.55.93.93,0,0,0,.41-.56c0-1.2,0-2.41,0-3.66" transform="translate(-0.13 -0.13)" style="fill:#75787d"/><path d="M211,33.61h-4.09c0-.36-.06-.71-.1-1.13a8.12,8.12,0,0,1-6.52,1.41A5,5,0,0,1,197,31.55a5.82,5.82,0,0,1-.79-2.85A5.23,5.23,0,0,1,198,24.2a8.07,8.07,0,0,1,4-1.77c1.44-.21,2.9-.36,4.39-.55a2,2,0,0,0-1.92-2.53,11.32,11.32,0,0,0-4.4.61,3.49,3.49,0,0,0-.77.39c-.44.26-.68,0-.88-.34-.37-.71-.77-1.42-1.12-2.14a.49.49,0,0,1,.13-.48A11.86,11.86,0,0,1,200,16.15a12.65,12.65,0,0,1,4.49-.58,9,9,0,0,1,4,1.08,4.49,4.49,0,0,1,2.42,3.74q.06,4.86.1,9.74c0,1.14,0,2.28,0,3.48m-4.55-8.27a13,13,0,0,0-3.76.34,3.2,3.2,0,0,0-1.88,1.19,2.12,2.12,0,0,0,1,3.24,5.12,5.12,0,0,0,4.41-.59.72.72,0,0,0,.25-.53c0-1.19,0-2.37,0-3.65" transform="translate(-0.13 -0.13)" style="fill:#75787d"/><path d="M235.75,11.24v4.81h5.06v4h-5a4.7,4.7,0,0,0-.08.58c0,2.38,0,4.76,0,7.13A2.18,2.18,0,0,0,237,29.92a3.82,3.82,0,0,0,2.34,0,5,5,0,0,0,.88-.33L241.39,33a5.48,5.48,0,0,1-3.25,1.1,11.54,11.54,0,0,1-3.22-.17A4.71,4.71,0,0,1,231,29.09c0-2.74,0-5.48,0-8.22,0-.74-.09-.82-.85-.83H228v-4h3V11.24Z" transform="translate(-0.13 -0.13)" style="fill:#74777c"/><path d="M94.67,65a28.39,28.39,0,0,1-3.57-.5,10.22,10.22,0,0,1-4.32-2.4,11.69,11.69,0,0,1-2.87-4.33,15,15,0,0,1-.69-8,11.43,11.43,0,0,1,1.6-4.31,10.64,10.64,0,0,1,3-3.25,12.67,12.67,0,0,1,3.84-1.82,14.36,14.36,0,0,1,6.58-.18A9.38,9.38,0,0,1,102,41.7c.25.18.43.39.21.73-.36.58-.69,1.18-1.07,1.74a.5.5,0,0,1-.48,0,9.47,9.47,0,0,0-2.56-1.08,9.37,9.37,0,0,0-4.81-.2,8,8,0,0,0-4.87,3,10.56,10.56,0,0,0-1.77,3.72,11.2,11.2,0,0,0-.18,4.88,8.56,8.56,0,0,0,3.69,6.17,7.45,7.45,0,0,0,3,1.15,13.81,13.81,0,0,0,4.16-.09,7.29,7.29,0,0,0,3.39-1.32c.3-.23.66-.3.88.25a14.37,14.37,0,0,0,.88,1.42.51.51,0,0,1,0,.47,6.79,6.79,0,0,1-1.26.88A14.25,14.25,0,0,1,94.67,65" transform="translate(-0.13 -0.13)" style="fill:#75787d"/><path d="M222.69,55.73a21.48,21.48,0,0,1,.37-3A8,8,0,0,1,227,47.49a8.65,8.65,0,0,1,6.41-.72,6.75,6.75,0,0,1,4,2.74A10.74,10.74,0,0,1,239,53.24a11.57,11.57,0,0,1,.17,4.14,8.77,8.77,0,0,1-2.67,5.46,7.77,7.77,0,0,1-5.71,2A7.92,7.92,0,0,1,227,64a7.73,7.73,0,0,1-3-2.89,10.87,10.87,0,0,1-1.33-5.38m3.06.05.29,1.56c.43,2.26,1.4,4,3.82,4.75a4.52,4.52,0,0,0,3.44-.34c1.76-.87,2.42-2.55,2.7-4.36a9.47,9.47,0,0,0-.22-4.06,5.49,5.49,0,0,0-2.75-3.7,4.7,4.7,0,0,0-6.12,1.66,10.49,10.49,0,0,0-1.16,4.49" transform="translate(-0.13 -0.13)" style="fill:#75787d"/><path d="M120.23,55.68a11.64,11.64,0,0,1-1.14,4.81,7.41,7.41,0,0,1-2.8,3.15,8.9,8.9,0,0,1-7.29.81,6.66,6.66,0,0,1-3.63-2.65c-2.14-3-2.06-6.27-1.29-9.55a7.48,7.48,0,0,1,4.27-5,8.81,8.81,0,0,1,4.82-.64,7.08,7.08,0,0,1,4.92,2.71,7.79,7.79,0,0,1,1.78,4.18c.07.74.23,1.48.36,2.22m-3.12.24c-.18-1-.29-1.87-.52-2.7a7.78,7.78,0,0,0-.83-1.94,4.64,4.64,0,0,0-1.23-1.34,4.92,4.92,0,0,0-4.23-.62,4.17,4.17,0,0,0-1.48.76,6.31,6.31,0,0,0-2,4.12A8.49,8.49,0,0,0,107.84,60a4.48,4.48,0,0,0,2,1.83,4.68,4.68,0,0,0,3.57.27,4.43,4.43,0,0,0,2.91-2.74,29,29,0,0,0,.79-3.39" transform="translate(-0.13 -0.13)" style="fill:#75787d"/><path d="M256.47,64.47h-3.13v-.78c0-3.78,0-7.56,0-11.34a4.11,4.11,0,0,0-.48-1.92,2.78,2.78,0,0,0-2.45-1.25,8,8,0,0,0-4.64,1.35c-.15.09-.21.42-.22.64,0,3.74,0,7.47,0,11.21,0,.69.2,1.65-.16,2s-1.32.12-2,.14c-.25,0-.5,0-.8,0V47h2.69c0,.36,0,.69.06,1.1.44-.22.84-.41,1.22-.62a8.23,8.23,0,0,1,6-.8,4.92,4.92,0,0,1,3.4,2.91,7.41,7.41,0,0,1,.56,3.06c0,3.8,0,7.6,0,11.4,0,.12,0,.25,0,.38" transform="translate(-0.13 -0.13)" style="fill:#75787d"/><rect x="213.35" y="7.7" width="4.66" height="25.76" style="fill:#74777c"/><path d="M134.06,16c-.39,1.24-.77,2.46-1.12,3.6a25.05,25.05,0,0,0-2.95.27,5.26,5.26,0,0,0-3,2.17c-.11.14-.07.41-.07.62v10.9h-4.86V16.12h4.15v2.05c2.28-2.06,4.71-3.23,7.84-2.14" transform="translate(-0.13 -0.13)" style="fill:#75787d"/><path d="M185.25,63.16c.31-.58.61-1.11.88-1.66.16-.34.31-.4.68-.23a9.19,9.19,0,0,0,4.45,1.12A3.22,3.22,0,0,0,194,61a1.92,1.92,0,0,0-.46-2.79,18.31,18.31,0,0,0-2.35-1.27c-1.49-.75-3.09-1.28-4.3-2.52a4.47,4.47,0,0,1-.85-4.52c1-2.4,3-3.22,5.37-3.34a10.59,10.59,0,0,1,3,.24,23.2,23.2,0,0,1,3,1.15c-.43.82-.77,1.47-1.13,2.14-.81-.28-1.59-.56-2.38-.81-.39-.13-.8-.22-1.2-.32a3.67,3.67,0,0,0-3.6,1.45,1.7,1.7,0,0,0,.47,2.32,22.48,22.48,0,0,0,2.82,1.52,12.24,12.24,0,0,1,3.89,2.23,4.37,4.37,0,0,1,.95,4.95,5.34,5.34,0,0,1-5.18,3.4,18.22,18.22,0,0,1-4-.28,6,6,0,0,1-2.91-1.36" transform="translate(-0.13 -0.13)" style="fill:#75787d"/><path d="M212.31,48.11c-.36.66-.72,1.29-1.09,2a12.06,12.06,0,0,1-1.24-.43,6.29,6.29,0,0,0-3.39-.7,3.14,3.14,0,0,0-2.48,1.31,1.79,1.79,0,0,0,.39,2.44,9.65,9.65,0,0,0,3,1.58A10.45,10.45,0,0,1,211.75,57a4.16,4.16,0,0,1,.77,3.17,4.9,4.9,0,0,1-2.93,4c-1.94,1-4,.76-6,.46a6.92,6.92,0,0,1-3.45-1.5c.28-.54.58-1.06.84-1.61.16-.33.32-.44.68-.27.76.34,1.55.6,2.31.94a4.52,4.52,0,0,0,5-1.36,2.17,2.17,0,0,0,0-1.91,5,5,0,0,0-2.6-1.91,36.68,36.68,0,0,1-3.67-1.8,4.71,4.71,0,0,1-2-2.66c-.74-2.35,1.09-4.86,3.12-5.58a10.06,10.06,0,0,1,5.54-.2,6,6,0,0,1,2.86,1.33" transform="translate(-0.13 -0.13)" style="fill:#75787d"/><rect x="220.64" y="15.97" width="4.78" height="17.48" style="fill:#74777c"/><rect x="178.58" y="46.9" width="3.05" height="17.41" style="fill:#74777b"/><rect x="216.28" y="46.9" width="3.05" height="17.41" style="fill:#74777b"/><path d="M223.13,13.9a2.7,2.7,0,0,1-2.8-2.71,2.91,2.91,0,0,1,2.81-2.81,2.83,2.83,0,0,1,2.72,2.83,2.64,2.64,0,0,1-2.73,2.69" transform="translate(-0.13 -0.13)" style="fill:#75787d"/><path d="M217.89,44.21a2,2,0,0,1-1.93-2,1.82,1.82,0,0,1,1.95-1.84,1.78,1.78,0,0,1,1.86,1.9,1.85,1.85,0,0,1-1.88,1.92" transform="translate(-0.13 -0.13)" style="fill:#75787d"/><path d="M180.23,40.39a1.83,1.83,0,0,1,2,1.85,2,2,0,0,1-1.94,1.95,1.8,1.8,0,0,1-1.88-2,1.77,1.77,0,0,1,1.87-1.84" transform="translate(-0.13 -0.13)" style="fill:#75787d"/><path d="M56.12,48.13l-.08,0s0,0,0,0l.08,0,0,0" transform="translate(-0.13 -0.13)" style="fill:#5f2961"/></g></g></g></g></g></g></g></svg>