<svg xmlns="http://www.w3.org/2000/svg" xmlns:xlink="http://www.w3.org/1999/xlink" viewBox="0 0 220.73 83.2"><defs><style>.cls-1{fill:none;}.cls-2{clip-path:url(#clip-path);}.cls-3,.cls-4,.cls-6{fill:#231f20;}.cls-4{font-size:21.34px;}.cls-4,.cls-6{font-family:Interstate-RegularCompressed, Interstate RegularCompressed;}.cls-5{letter-spacing:0.2em;}.cls-6{font-size:7.53px;}</style><clipPath id="clip-path" transform="translate(0 0)"><rect class="cls-1" width="220.19" height="81.98"/></clipPath></defs><title>logo-belgo</title><g id="Layer_2" data-name="Layer 2"><g id="Layer_1-2" data-name="Layer 1"><g id="Artwork_8" data-name="Artwork 8"><g class="cls-2"><g class="cls-2"><path class="cls-3" d="M14.88,36.55H23a7,7,0,0,0,3.94-1,3.81,3.81,0,0,0,1.48-3.45q0-4.23-4.85-4.23h-8.7Zm0-17.33h7.31a6.07,6.07,0,0,0,3.53-.85,3.4,3.4,0,0,0,1.2-3,2.65,2.65,0,0,0-1.23-2.45,6.87,6.87,0,0,0-3.5-.75H14.88ZM1,1.11H25.66a20.51,20.51,0,0,1,7.09,1.07A11.14,11.14,0,0,1,37.2,5a10.24,10.24,0,0,1,2.2,3.74,12.93,12.93,0,0,1,.64,4,9.62,9.62,0,0,1-1.42,5.44,12.24,12.24,0,0,1-4.13,3.68,12.24,12.24,0,0,1,5.64,4,12,12,0,0,1,2.18,7.56A13.76,13.76,0,0,1,41,39.55,12.7,12.7,0,0,1,37.48,44a15.67,15.67,0,0,1-5.07,2.71,19.35,19.35,0,0,1-5.87.91H1Z" transform="translate(0 0)"/><polygon class="cls-3" points="47.1 1.11 84.36 1.11 84.36 13.03 60.97 13.03 60.97 18.83 82.22 18.83 82.22 29.91 60.97 29.91 60.97 35.71 85.06 35.71 85.06 47.63 47.1 47.63 47.1 1.11"/><polygon class="cls-3" points="90.86 1.11 104.73 1.11 104.73 35.71 124.66 35.71 124.66 47.63 90.86 47.63 90.86 1.11"/><path class="cls-3" d="M160.41,42.87a13.67,13.67,0,0,1-5.58,4.4,17.89,17.89,0,0,1-7.22,1.47,21.06,21.06,0,0,1-8.86-1.83,19.77,19.77,0,0,1-6.84-5.11,23,23,0,0,1-4.32-7.66,28.71,28.71,0,0,1-1.48-9.32,29.25,29.25,0,0,1,2-11.14,22,22,0,0,1,5.17-7.78,20.8,20.8,0,0,1,7.16-4.47A23.17,23.17,0,0,1,148.3,0q8.52,0,13.88,4.56t6.87,12.84H155.74a6.61,6.61,0,0,0-2.23-4.17,6.36,6.36,0,0,0-4.32-1.63A8.37,8.37,0,0,0,144.14,13a8.29,8.29,0,0,0-2.81,3.48,14.84,14.84,0,0,0-1.13,4.24,42.28,42.28,0,0,0-.22,4.46,18.6,18.6,0,0,0,.44,3.91A12.31,12.31,0,0,0,142,32.93a8.76,8.76,0,0,0,3.15,3,9.79,9.79,0,0,0,5,1.17,8.34,8.34,0,0,0,4.64-1.34A5.75,5.75,0,0,0,157.32,32H151.2V22h18.42V47.63h-8.77Z" transform="translate(0 0)"/><path class="cls-3" d="M189.26,30.56a10.66,10.66,0,0,0,2.2,4,7.87,7.87,0,0,0,2.88,2,8.27,8.27,0,0,0,3,.59,8.37,8.37,0,0,0,3-.59,7.92,7.92,0,0,0,2.87-2,10.52,10.52,0,0,0,2.2-4,19.58,19.58,0,0,0,.86-6.19,19.54,19.54,0,0,0-.86-6.19,10.57,10.57,0,0,0-2.2-4,8,8,0,0,0-2.87-2,8.35,8.35,0,0,0-3-.58,8.26,8.26,0,0,0-3,.58,8,8,0,0,0-2.88,2,10.71,10.71,0,0,0-2.2,4,19.56,19.56,0,0,0-.85,6.19,19.61,19.61,0,0,0,.85,6.19m-13.09-16a22.75,22.75,0,0,1,4.67-7.75,21.09,21.09,0,0,1,7.25-5,24.9,24.9,0,0,1,18.54,0,21,21,0,0,1,7.25,5.05,22.75,22.75,0,0,1,4.67,7.75,28.43,28.43,0,0,1,1.64,9.78,28.38,28.38,0,0,1-1.64,9.77,22.66,22.66,0,0,1-4.67,7.75,20.73,20.73,0,0,1-7.25,5,24.77,24.77,0,0,1-18.54,0,20.82,20.82,0,0,1-7.25-5,22.66,22.66,0,0,1-4.67-7.75,28.38,28.38,0,0,1-1.64-9.77,28.43,28.43,0,0,1,1.64-9.78" transform="translate(0 0)"/><text class="cls-4" transform="translate(0 77.86)">M</text><text class="cls-4" transform="translate(14.41 77.86)"><tspan class="cls-5">O</tspan><tspan x="18.97" y="0">U</tspan></text><text class="cls-4" transform="translate(39.5 77.86)">L</text><text class="cls-4" transform="translate(50.26 77.86)">E</text><text class="cls-4" transform="translate(61.57 77.86)">S</text></g><text class="cls-6" transform="translate(73.18 73.72)">รท</text><g class="cls-2"><text class="cls-4" transform="translate(80.77 77.86)"><tspan class="cls-5">FR</tspan><tspan x="30.41" y="0">I</tspan></text><text class="cls-4" transform="translate(113.03 77.86)">T</text><text class="cls-4" transform="translate(124.17 77.86)">E</text><text class="cls-4" transform="translate(135.12 77.86)">S</text></g><text class="cls-6" transform="translate(146.71 73.72)">รท</text><g class="cls-2"><text class="cls-4" transform="translate(154.3 77.86)">B</text><text class="cls-4" transform="translate(166.53 77.86)">I</text><text class="cls-4" transform="translate(175.19 77.86)">ร</text><text class="cls-4" transform="translate(186.57 77.86)">R</text><text class="cls-4" transform="translate(198.9 77.86)">E</text><text class="cls-4" transform="translate(210.21 77.86)">S</text></g></g></g></g></g></svg>